<svg width="53" height="18" viewBox="0 0 53 18" fill="none" xmlns="http://www.w3.org/2000/svg">
<g id="text">
<g id="Get it on">
<path id="path42" d="M4.4664 2.30082C4.4664 2.84956 4.304 3.28633 3.97856 3.61243C3.60859 4.00008 3.12729 4.19391 2.53534 4.19391C1.96761 4.19391 1.48566 3.99746 1.08949 3.60392C0.692018 3.21102 0.494263 2.72318 0.494263 2.1417C0.494263 1.55957 0.692018 1.07238 1.08949 0.678835C1.48566 0.285943 1.96761 0.0888424 2.53534 0.0888424C2.81625 0.0888424 3.08604 0.143847 3.34142 0.253857C3.59745 0.363867 3.80241 0.509892 3.9563 0.692586L3.61055 1.03833C3.35059 0.727947 2.9924 0.572099 2.53534 0.572099C2.12149 0.572099 1.76396 0.71747 1.46209 1.00821C1.16021 1.2996 1.00961 1.67678 1.00961 2.1417C1.00961 2.60597 1.16021 2.9838 1.46209 3.27454C1.76396 3.56594 2.12149 3.71065 2.53534 3.71065C2.97407 3.71065 3.33946 3.56463 3.63281 3.27192C3.82271 3.08137 3.93207 2.81682 3.96153 2.47632H2.53534V2.00419H4.4389C4.45723 2.107 4.4664 2.20588 4.4664 2.30082Z" fill="black"/>
<path id="path46" d="M4.4664 2.30082C4.4664 2.84956 4.304 3.28633 3.97856 3.61243C3.60859 4.00008 3.12729 4.19391 2.53534 4.19391C1.96761 4.19391 1.48566 3.99746 1.08949 3.60392C0.692018 3.21102 0.494263 2.72318 0.494263 2.1417C0.494263 1.55957 0.692018 1.07238 1.08949 0.678835C1.48566 0.285943 1.96761 0.0888424 2.53534 0.0888424C2.81625 0.0888424 3.08604 0.143847 3.34142 0.253857C3.59745 0.363867 3.80241 0.509892 3.9563 0.692586L3.61055 1.03833C3.35059 0.727947 2.9924 0.572099 2.53534 0.572099C2.12149 0.572099 1.76396 0.71747 1.46209 1.00821C1.16021 1.2996 1.00961 1.67678 1.00961 2.1417C1.00961 2.60597 1.16021 2.9838 1.46209 3.27454C1.76396 3.56594 2.12149 3.71065 2.53534 3.71065C2.97407 3.71065 3.33946 3.56463 3.63281 3.27192C3.82271 3.08137 3.93207 2.81682 3.96153 2.47632H2.53534V2.00419H4.4389C4.45723 2.107 4.4664 2.20588 4.4664 2.30082Z" fill="black"/>
<path id="path50" d="M7.48451 0.659701H5.69554V1.90517H7.30902V2.37729H5.69554V3.62276H7.48451V4.10602H5.19067V0.177099H7.48451V0.659701Z" fill="black"/>
<path id="path54" d="M7.48451 0.659701H5.69554V1.90517H7.30902V2.37729H5.69554V3.62276H7.48451V4.10602H5.19067V0.177099H7.48451V0.659701Z" fill="black"/>
<path id="path58" d="M9.61357 4.10602H9.10871V0.659701H8.01123V0.177099H10.7111V0.659701H9.61357V4.10602Z" fill="black"/>
<path id="path62" d="M9.61357 4.10602H9.10871V0.659701H8.01123V0.177099H10.7111V0.659701H9.61357V4.10602Z" fill="black"/>
<path id="path64" d="M12.6646 0.177099H13.1694V4.10602H12.6646V0.177099Z" fill="black"/>
<path id="path68" d="M15.4086 4.10602H14.9038V0.659701H13.8063V0.177099H16.5061V0.659701H15.4086V4.10602Z" fill="black"/>
<path id="path72" d="M15.4086 4.10602H14.9038V0.659701H13.8063V0.177099H16.5061V0.659701H15.4086V4.10602Z" fill="black"/>
<path id="path76" d="M19.1087 3.2693C19.3994 3.56397 19.755 3.71065 20.176 3.71065C20.5971 3.71065 20.9527 3.56397 21.2434 3.2693C21.5341 2.97463 21.6802 2.59877 21.6802 2.1417C21.6802 1.68464 21.5341 1.30812 21.2434 1.0141C20.9527 0.719434 20.5971 0.572099 20.176 0.572099C19.755 0.572099 19.3994 0.719434 19.1087 1.0141C18.8186 1.30812 18.6726 1.68464 18.6726 2.1417C18.6726 2.59877 18.8186 2.97463 19.1087 3.2693ZM21.6166 3.59802C21.2303 3.9955 20.7503 4.19391 20.176 4.19391C19.6018 4.19391 19.1218 3.9955 18.7361 3.59802C18.3497 3.2012 18.1572 2.71598 18.1572 2.1417C18.1572 1.56743 18.3497 1.08155 18.7361 0.684728C19.1218 0.287907 19.6018 0.0888424 20.176 0.0888424C20.747 0.0888424 21.2257 0.288562 21.614 0.687348C22.0017 1.08613 22.1955 1.5707 22.1955 2.1417C22.1955 2.71598 22.0023 3.2012 21.6166 3.59802Z" fill="black"/>
<path id="path80" d="M19.1087 3.2693C19.3994 3.56397 19.755 3.71065 20.176 3.71065C20.5971 3.71065 20.9527 3.56397 21.2434 3.2693C21.5341 2.97463 21.6802 2.59877 21.6802 2.1417C21.6802 1.68464 21.5341 1.30812 21.2434 1.0141C20.9527 0.719434 20.5971 0.572099 20.176 0.572099C19.755 0.572099 19.3994 0.719434 19.1087 1.0141C18.8186 1.30812 18.6726 1.68464 18.6726 2.1417C18.6726 2.59877 18.8186 2.97463 19.1087 3.2693ZM21.6166 3.59802C21.2303 3.9955 20.7503 4.19391 20.176 4.19391C19.6018 4.19391 19.1218 3.9955 18.7361 3.59802C18.3497 3.2012 18.1572 2.71598 18.1572 2.1417C18.1572 1.56743 18.3497 1.08155 18.7361 0.684728C19.1218 0.287907 19.6018 0.0888424 20.176 0.0888424C20.747 0.0888424 21.2257 0.288562 21.614 0.687348C22.0017 1.08613 22.1955 1.5707 22.1955 2.1417C22.1955 2.71598 22.0023 3.2012 21.6166 3.59802Z" fill="black"/>
<path id="path84" d="M22.9039 4.10602V0.177099H23.5182L25.4276 3.23314H25.4499L25.4276 2.47617V0.177099H25.9331V4.10602H25.406L23.4081 0.90133H23.3865L23.4081 1.65896V4.10602H22.9039Z" fill="black"/>
<path id="path88" d="M22.9039 4.10602V0.177099H23.5182L25.4276 3.23314H25.4499L25.4276 2.47617V0.177099H25.9331V4.10602H25.406L23.4081 0.90133H23.3865L23.4081 1.65896V4.10602H22.9039Z" fill="black"/>
</g>
<g id="Group 1000005853">
<g id="Vector">
<path d="M17.2636 9.2161C16.5991 9.2161 16.0659 9.74929 16.0659 10.4137C15.746 9.93795 15.016 9.29813 13.7035 9.29813C11.5708 9.29813 9.68414 10.9387 9.68414 13.5554C9.68414 15.844 11.1689 17.8291 13.7035 17.8291C14.6387 17.8291 15.6312 17.4682 16.0659 16.6889C16.0659 17.3205 16.5827 17.8373 17.2143 17.8373H17.3046C17.9362 17.8373 18.453 17.3205 18.453 16.6889V10.4055C18.453 9.74929 17.9198 9.2079 17.2554 9.2079L17.2636 9.2161ZM16.0659 13.6866C16.0413 14.0476 15.9347 14.3921 15.7378 14.712C15.4343 15.2042 14.9175 15.6061 14.0645 15.6061C12.629 15.6061 12.0794 14.3429 12.0794 13.6046V13.5882C12.0794 12.6777 12.6864 11.5293 14.048 11.5293C15.057 11.5293 15.6066 12.0871 15.8609 12.6367C16.0167 12.9648 16.0906 13.3257 16.0659 13.6866Z" fill="black"/>
<path d="M33.8579 9.2161C33.2017 9.2161 32.6603 9.74929 32.6603 10.4137C32.3404 9.93795 31.6103 9.29813 30.2979 9.29813C28.1651 9.29813 26.2785 10.9387 26.2785 13.5554C26.2785 15.844 27.7632 17.8291 30.2979 17.8291C31.233 17.8291 32.2255 17.4682 32.6603 16.6889C32.6603 17.3205 33.1771 17.8373 33.8087 17.8373H33.8989C34.5305 17.8373 35.0473 17.3205 35.0473 16.6889V10.4055C35.0473 9.74929 34.5141 9.2079 33.8497 9.2079L33.8579 9.2161ZM32.6685 13.6866C32.6357 14.0476 32.5372 14.3921 32.3404 14.712C32.0369 15.2042 31.5201 15.6061 30.667 15.6061C29.2315 15.6061 28.6819 14.3429 28.6819 13.6046V13.5882C28.6819 12.6777 29.2889 11.5293 30.6506 11.5293C31.6595 11.5293 32.2091 12.0871 32.4634 12.6367C32.6193 12.9648 32.6931 13.3257 32.6685 13.6866Z" fill="black"/>
<path d="M43.9884 9.2161C43.3322 9.2161 42.7908 9.74929 42.7908 10.4137C42.4709 9.93795 41.7408 9.29813 40.4284 9.29813C38.2956 9.29813 36.409 10.9387 36.409 13.5554C36.409 15.844 37.8937 17.8291 40.4284 17.8291C41.3635 17.8291 42.356 17.4682 42.7908 16.6889C42.7908 17.3205 43.3076 17.8373 43.9392 17.8373H44.0294C44.661 17.8373 45.1778 17.3205 45.1778 16.6889V10.4055C45.1778 9.74929 44.6446 9.2079 43.9802 9.2079L43.9884 9.2161ZM42.799 13.6866C42.7744 14.0476 42.6677 14.3921 42.4709 14.712C42.1674 15.2042 41.6506 15.6061 40.7975 15.6061C39.362 15.6061 38.8124 14.3429 38.8124 13.6046V13.5882C38.8124 12.6777 39.4194 11.5293 40.7811 11.5293C41.79 11.5293 42.3314 12.0871 42.5939 12.6367C42.7498 12.9648 42.8236 13.3257 42.799 13.6866Z" fill="black"/>
<path d="M25.5648 10.9387C25.5648 10.184 24.9496 9.56883 24.195 9.56883H20.5283C20.0279 9.56883 19.6178 9.97077 19.6178 10.4793C19.6178 10.9879 20.0279 11.3899 20.5283 11.3899H22.9891L19.8639 15.5979C19.708 15.8112 19.6178 16.0655 19.6178 16.3362C19.6178 17.017 20.1674 17.5666 20.8482 17.5666H24.6543C25.1547 17.5666 25.5648 17.1647 25.5648 16.6561C25.5648 16.1475 25.1547 15.7456 24.6543 15.7456H22.4395L25.3105 11.7426C25.4746 11.5129 25.5648 11.234 25.5648 10.9469V10.9387Z" fill="black"/>
<path d="M50.1733 9.33094C48.4917 9.33094 47.1219 10.7008 47.1219 12.3824V16.7381C47.1219 17.3861 47.6469 17.9111 48.2949 17.9111C48.9429 17.9111 49.4679 17.3861 49.4679 16.7381V12.3824C49.4679 11.9887 49.7878 11.677 50.1733 11.677H51.6908C52.3389 11.677 52.8639 11.152 52.8639 10.5039C52.8639 9.85593 52.3389 9.33094 51.6908 9.33094H50.1733Z" fill="black"/>
<path d="M7.06743 11.8574C7.75647 11.5457 7.99435 10.5368 7.99435 9.88874C7.99435 8.24817 6.45222 6.91931 4.81166 6.91931H0.94812V17.5584H5.18078C7.37914 17.5584 8.61777 16.2952 8.61777 14.4741C8.61777 13.2929 7.8385 12.2019 7.05923 11.8492L7.06743 11.8574ZM3.26952 9.09306H4.46714C5.20539 9.09306 5.68936 9.37196 5.68936 10.1676C5.68936 10.9633 5.13157 11.2504 4.45893 11.2504H3.26952V9.09306ZM5.17258 15.3108H3.26952V13.2109H5.18078C5.91904 13.2109 6.40301 13.4816 6.40301 14.2608C6.40301 15.0401 5.84521 15.3108 5.17258 15.3108Z" fill="black"/>
</g>
</g>
</g>
</svg>
