<svg width="17" height="19" viewBox="0 0 17 19" fill="none" xmlns="http://www.w3.org/2000/svg">
<g id="icon">
<path id="path94" d="M8.08467 8.92118L0.70874 16.7495C0.709433 16.7509 0.709433 16.7529 0.710126 16.7543C0.936662 17.6044 1.71256 18.2299 2.63395 18.2299C3.0025 18.2299 3.3482 18.1302 3.6447 17.9556L3.66826 17.9417L11.9704 13.1512L8.08467 8.92118Z" fill="#EA4335"/>
<path id="path98" d="M15.5467 7.58806L15.5398 7.58321L11.9554 5.50559L7.91724 9.09899L11.9699 13.1503L15.5349 11.0935C16.1598 10.7554 16.5845 10.0966 16.5845 9.33731C16.5845 8.58219 16.1661 7.92682 15.5467 7.58806Z" fill="#FBBC04"/>
<path id="path102" d="M0.708761 1.89176C0.664423 2.05525 0.640869 2.22706 0.640869 2.40441V16.2377C0.640869 16.415 0.664423 16.5868 0.709453 16.7496L8.33824 9.12151L0.708761 1.89176Z" fill="#4285F4"/>
<path id="path106" d="M8.1394 9.32087L11.9566 5.5044L3.6641 0.696568C3.36274 0.515756 3.01082 0.41184 2.63464 0.41184C1.71326 0.41184 0.935969 1.0388 0.709433 1.88952C0.709433 1.89021 0.70874 1.89091 0.70874 1.8916L8.1394 9.32087Z" fill="#34A853"/>
</g>
</svg>
