<svg width="22" height="10" viewBox="0 0 22 10" fill="none" xmlns="http://www.w3.org/2000/svg">
<mask id="mask0_780_1507" style="mask-type:luminance" maskUnits="userSpaceOnUse" x="0" y="0" width="22" height="10">
<path d="M22 0H0V9.02465H22V0Z" fill="white"/>
</mask>
<g mask="url(#mask0_780_1507)">
<path d="M1.30561 4.4086H1.7407C2.55671 4.4086 3.0463 3.91875 3.0463 3.15688V0H2.448V3.15688C2.448 3.5922 2.23031 3.81001 1.7407 3.81001H1.30561C0.816004 3.81001 0.576888 3.5922 0.598292 3.15688L0.707316 1.1433H0.163201C0.0541773 2.39469 0 3.05885 0 3.27633C0 3.97296 0.533078 4.40827 1.30561 4.40827" fill="#010101"/>
<path d="M12.1856 0H11.5873V3.26562H12.1856V0Z" fill="#010101"/>
<path d="M7.61594 0H7.01764V3.26562H7.61594V0Z" fill="#010101"/>
<path d="M9.68304 0.598587H8.46438L8.4102 1.19717H9.68304C10.0746 1.19717 10.2813 1.36046 10.2813 1.74156V2.17686C10.2813 2.55796 10.0636 2.66671 9.68304 2.66671H9.51982C9.13893 2.66671 8.89979 2.55763 8.92154 2.17686L8.95398 1.4692H8.38812L8.32291 2.17686C8.25771 2.88419 8.75801 3.26529 9.51982 3.26529H9.68304C10.4445 3.26529 10.8799 2.88419 10.8799 2.17686V1.74156C10.8799 1.03389 10.3904 0.598587 9.68304 0.598587Z" fill="#010101"/>
<path d="M20.7807 0.598586H18.2564L18.2022 1.19717H20.7807C21.2267 1.19717 21.3789 1.36045 21.3789 1.74156V2.17686C21.3789 2.55796 21.2157 2.6667 20.7807 2.6667H19.2574C18.7678 2.6667 18.6915 2.55763 18.7132 2.17686L18.7457 1.4692H18.1798L18.1146 2.17686C18.0949 2.37259 18.1109 2.53321 18.1611 2.6667H17.6795C17.2986 2.6667 17.0812 2.50343 17.0812 2.12232V1.74122C17.0812 1.03356 16.5916 0.598251 15.8843 0.598251H14.6656L14.6115 1.19684H15.8843C16.2759 1.19684 16.4826 1.36012 16.4826 1.74122V2.17653C16.4826 2.5031 16.3736 2.66638 16.1562 2.66638C15.9559 2.66638 15.5706 2.57402 15.0857 2.43183C15.1034 2.3522 15.1155 2.2672 15.1225 2.17686L15.1549 1.4692H14.5891L14.5239 2.17686C14.4914 2.55796 14.3607 2.6667 14.0343 2.6667H13.9801C13.6537 2.6667 13.4905 2.55763 13.4905 2.17686V1.14297H12.8922V3.15655C12.8922 3.6464 12.6745 3.80968 12.1849 3.80968H11.5866V4.40827H12.1849C12.9648 4.40827 13.4463 3.96025 13.4871 3.16056C13.6393 3.23685 13.8236 3.26529 13.9801 3.26529H14.0343C14.3951 3.26529 14.6723 3.14886 14.858 2.92534C15.5532 3.16759 16.004 3.26529 16.2104 3.26529C16.4428 3.26529 16.6749 3.15489 16.8287 2.97352C17.015 3.15489 17.2919 3.26529 17.6792 3.26529H20.7799C21.5414 3.26529 21.977 2.88419 21.977 2.17686V1.74156C21.977 1.03389 21.5418 0.598586 20.7799 0.598586" fill="#010101"/>
<path d="M6.31031 3.04781V1.74156C6.31031 1.03389 5.8207 0.598587 5.11339 0.598587H3.89473L3.84056 1.19717H5.11339C5.50501 1.19717 5.71169 1.36046 5.71169 1.74156V2.66703H4.89567C4.51476 2.66703 4.32983 2.55796 4.35156 2.17721L4.384 1.46953H3.81816L3.75293 2.17721C3.68772 2.88487 4.13384 3.26597 4.84118 3.26597C5.13211 3.26597 5.4234 3.25325 5.70934 3.23251C5.68727 3.66379 5.46756 3.81001 5.00437 3.81001H3.75328V4.4086H5.00437C5.82037 4.4086 6.30997 3.91875 6.30997 3.04781" fill="#010101"/>
<path d="M0.598292 6.68384H0V9.02432H0.598292V6.68384Z" fill="#010101"/>
<path d="M9.84657 4.94562V5.32338C9.45328 5.134 9.0299 5.06374 8.63661 5.11761V4.54277C8.96636 4.49793 9.31683 4.53976 9.65328 4.6659C9.77033 4.70974 9.84657 4.82181 9.84657 4.94529V4.94562Z" fill="#0095DA"/>
<path d="M20.6721 2.02797V2.4054C20.2787 2.21601 19.8554 2.14575 19.4621 2.19961V1.62512C19.7919 1.58028 20.1422 1.62211 20.4786 1.74825C20.5958 1.79175 20.6721 1.90384 20.6721 2.02764V2.02797Z" fill="#0095DA"/>
<path d="M3.59042 5.7587H2.99214C2.76371 5.7587 2.60051 5.82395 2.43731 5.98722L2.3798 6.04478C2.18348 5.85371 1.89253 5.75836 1.52365 5.75836H0V6.35695H1.5775C1.95841 6.35695 2.06709 6.52022 2.06709 6.84679V8.44681H2.66539V6.84679C2.66539 6.65908 2.63696 6.4958 2.58279 6.35695H3.53557C3.97067 6.35695 4.13387 6.57478 4.13387 6.95553V9.02365H4.73215V6.95553C4.73215 6.24787 4.35124 5.75803 3.58976 5.75803" fill="#010101"/>
<path d="M9.84622 5.75868H9.24792V9.02433H9.84622V5.75868Z" fill="#010101"/>
<path d="M6.03844 7.50025V7.33697C6.03844 6.68384 6.41935 6.35727 6.96347 6.35727H8.43228V5.75868H6.96347C6.03844 5.75868 5.44014 6.35727 5.44014 7.33697V7.50025C5.44014 8.47994 5.92974 9.02433 6.90895 9.02433H8.54096V8.42574H6.90895C6.31065 8.42574 6.03877 8.1537 6.03877 7.50025" fill="#010101"/>
<path d="M11.3612 5.79149L11.5541 6.37L11.5866 6.50016H11.6003L11.6341 6.37L11.827 5.79149H12.1417V6.66711H11.9585V5.95812H11.9451L11.9043 6.10232L11.7183 6.66711H11.4699L11.2839 6.10232L11.2435 5.95812H11.2298V6.66711H11.0465V5.79149H11.3612Z" fill="#010101"/>
<path d="M12.4029 6.1003C12.4631 6.04811 12.5491 6.02202 12.6614 6.02202C12.7738 6.02202 12.8598 6.04811 12.9193 6.1003C12.9788 6.15216 13.0089 6.22746 13.0089 6.32516V6.37936C13.0089 6.47606 12.9791 6.55068 12.9193 6.60287C12.8594 6.65506 12.7738 6.68117 12.6614 6.68117C12.5491 6.68117 12.4631 6.65506 12.4029 6.60287C12.3427 6.55101 12.3126 6.47639 12.3126 6.37936V6.32516C12.3126 6.22746 12.3427 6.15251 12.4029 6.1003ZM12.7845 6.49612C12.8113 6.4717 12.8246 6.43456 12.8246 6.38471V6.31813C12.8246 6.26927 12.8113 6.23247 12.7845 6.20805C12.7578 6.18361 12.7166 6.17124 12.6618 6.17124C12.6069 6.17124 12.5645 6.18361 12.5374 6.20805C12.5106 6.23247 12.4972 6.26927 12.4972 6.31813V6.38471C12.4972 6.43456 12.5106 6.4717 12.5374 6.49612C12.5641 6.52056 12.6052 6.53294 12.6618 6.53294C12.7183 6.53294 12.7578 6.52056 12.7845 6.49612Z" fill="#010101"/>
<path d="M13.1841 5.7587H13.3688V6.07087C13.3905 6.05547 13.4176 6.04343 13.45 6.03473C13.4825 6.02603 13.5172 6.02168 13.5544 6.02168C13.7533 6.02168 13.853 6.11804 13.853 6.31078V6.39074C13.853 6.58347 13.7533 6.67984 13.5544 6.67984C13.5039 6.67984 13.4597 6.67347 13.4229 6.66076C13.3858 6.64804 13.3584 6.62964 13.3403 6.60522L13.3296 6.66646H13.1845V5.75803L13.1841 5.7587ZM13.5209 6.53829C13.5744 6.53829 13.6122 6.5276 13.6349 6.50585C13.6577 6.48408 13.6687 6.44797 13.6687 6.39709V6.30609C13.6687 6.25556 13.6574 6.2191 13.6349 6.19735C13.6122 6.1756 13.5741 6.16489 13.5209 6.16489C13.4711 6.16489 13.4333 6.17492 13.4076 6.19468C13.3818 6.21441 13.3688 6.24385 13.3688 6.28301V6.4202C13.3688 6.49915 13.4192 6.53829 13.5209 6.53829Z" fill="#010101"/>
<path d="M14.2132 5.91896H14.0286V5.75868H14.2132V5.91896ZM14.2132 6.66711H14.0286V6.03574H14.2132V6.66711Z" fill="#010101"/>
<path d="M14.6095 5.75868H14.4249V6.66711H14.6095V5.75868Z" fill="#010101"/>
<path d="M14.8667 6.0983C14.9242 6.04778 15.0065 6.02202 15.1145 6.02202C15.2225 6.02202 15.3064 6.04677 15.3623 6.09662C15.4178 6.14649 15.4456 6.22075 15.4456 6.31946V6.41583H14.965C14.9667 6.45665 14.9804 6.48642 15.0058 6.50484C15.0312 6.52323 15.0713 6.53294 15.1265 6.53294C15.2258 6.53294 15.3218 6.52624 15.4141 6.51253L15.4278 6.65105C15.3175 6.67079 15.2151 6.68082 15.1212 6.68082C15.0091 6.68082 14.9242 6.65607 14.8667 6.60688C14.8091 6.55769 14.7804 6.48576 14.7804 6.39174V6.32113C14.7804 6.22343 14.8091 6.14916 14.8667 6.0983ZM15.262 6.30608V6.29237C15.262 6.24686 15.2506 6.21407 15.2275 6.19333C15.2044 6.17257 15.1666 6.16221 15.1141 6.16221C15.0616 6.16221 15.0212 6.17325 14.9988 6.19533C14.976 6.2174 14.965 6.25422 14.965 6.30608H15.2623H15.262Z" fill="#010101"/>
<path d="M11.5866 6.96923C11.6418 6.98229 11.6909 6.9997 11.7344 7.02177L11.6829 7.1536C11.5996 7.11847 11.5187 7.1004 11.4401 7.1004C11.3615 7.1004 11.299 7.12081 11.2612 7.16096C11.2231 7.20111 11.2043 7.26468 11.2043 7.35168V7.4524C11.2043 7.53771 11.2227 7.60028 11.2598 7.64111C11.297 7.68193 11.3558 7.70234 11.4364 7.70234C11.4762 7.70234 11.521 7.69698 11.5709 7.68662C11.6207 7.67624 11.6695 7.66119 11.7173 7.64111L11.7622 7.7726C11.7097 7.79803 11.6531 7.81776 11.5926 7.83149C11.5317 7.84554 11.4749 7.85256 11.4217 7.85256C11.2886 7.85256 11.1886 7.81811 11.1211 7.74884C11.0535 7.67959 11.0197 7.57853 11.0197 7.44537V7.35704C11.0197 7.22386 11.0545 7.12283 11.1241 7.05355C11.194 6.9843 11.296 6.94983 11.4307 6.94983C11.4796 6.94983 11.5317 6.95653 11.5869 6.96958" fill="#010101"/>
<path d="M11.9458 7.27205C12.006 7.21986 12.0919 7.19376 12.2043 7.19376C12.3166 7.19376 12.4026 7.21986 12.4621 7.27205C12.5216 7.32392 12.5517 7.39919 12.5517 7.49689V7.5511C12.5517 7.6478 12.522 7.72241 12.4621 7.77461C12.4023 7.82682 12.3166 7.8529 12.2043 7.8529C12.0919 7.8529 12.006 7.82682 11.9458 7.77461C11.8856 7.72274 11.8555 7.64815 11.8555 7.5511V7.49689C11.8555 7.39919 11.8856 7.32425 11.9458 7.27205ZM12.327 7.66788C12.3538 7.64346 12.3671 7.60631 12.3671 7.55647V7.48988C12.3671 7.44102 12.3538 7.40423 12.327 7.37979C12.3003 7.35537 12.2591 7.34299 12.2043 7.34299C12.1494 7.34299 12.107 7.35537 12.0799 7.37979C12.0531 7.40423 12.0397 7.44102 12.0397 7.48988V7.55647C12.0397 7.60631 12.0531 7.64346 12.0799 7.66788C12.1066 7.6923 12.1478 7.70467 12.2043 7.70467C12.2608 7.70467 12.3003 7.6923 12.327 7.66788Z" fill="#010101"/>
<path d="M12.728 7.20748H12.8731L12.8838 7.26736C12.9009 7.24461 12.9266 7.22689 12.9607 7.2135C12.9945 7.20045 13.033 7.19375 13.0755 7.19375C13.1667 7.19375 13.231 7.22119 13.2681 7.2764C13.2908 7.24896 13.3216 7.22855 13.3604 7.21449C13.3992 7.20045 13.4453 7.19342 13.4988 7.19342C13.5938 7.19342 13.6644 7.21583 13.7105 7.26068C13.7567 7.30551 13.7797 7.37779 13.7797 7.47715V7.83851H13.5951V7.47615C13.5951 7.42428 13.5858 7.38848 13.5667 7.36741C13.5477 7.34667 13.5169 7.33629 13.4744 7.33629C13.3891 7.33629 13.3467 7.37509 13.3467 7.45306V7.83886H13.1621V7.47648C13.1621 7.42461 13.1527 7.38883 13.1336 7.36774C13.1146 7.34699 13.0838 7.33663 13.0413 7.33663C12.9554 7.33663 12.9126 7.37544 12.9126 7.45339V7.83919H12.728V7.20781V7.20748Z" fill="#010101"/>
<path d="M13.9781 7.20748H14.1232L14.1339 7.26736C14.151 7.24461 14.1767 7.22689 14.2108 7.2135C14.2446 7.20045 14.2831 7.19375 14.3255 7.19375C14.4168 7.19375 14.4811 7.22119 14.5182 7.2764C14.5409 7.24896 14.5717 7.22855 14.6105 7.21449C14.6493 7.20045 14.6954 7.19342 14.7489 7.19342C14.8439 7.19342 14.9145 7.21583 14.9606 7.26068C15.0068 7.30551 15.0299 7.37779 15.0299 7.47715V7.83851H14.8453V7.47615C14.8453 7.42428 14.8359 7.38848 14.8165 7.36741C14.7974 7.34667 14.7667 7.33629 14.7242 7.33629C14.6389 7.33629 14.5964 7.37509 14.5964 7.45306V7.83886H14.4118V7.47648C14.4118 7.42461 14.4025 7.38883 14.3834 7.36774C14.3643 7.34699 14.3336 7.33663 14.2911 7.33663C14.2052 7.33663 14.1624 7.37544 14.1624 7.45339V7.83919H13.9778V7.20781L13.9781 7.20748Z" fill="#010101"/>
<path d="M15.7128 7.83919L15.7021 7.77796C15.684 7.8024 15.6566 7.8208 15.6208 7.8335C15.5843 7.84622 15.5429 7.85257 15.4957 7.85257C15.3997 7.85257 15.3288 7.82848 15.2834 7.77997C15.2375 7.73146 15.2148 7.65951 15.2148 7.5635V7.20782H15.3994V7.57018C15.3994 7.62003 15.4091 7.65583 15.4285 7.67725C15.4479 7.699 15.4817 7.70971 15.5298 7.70971C15.6258 7.70971 15.6736 7.67022 15.6736 7.5916V7.20714H15.8582V7.83852H15.7128V7.83919Z" fill="#010101"/>
<path d="M16.2014 7.20749L16.2121 7.27004C16.2311 7.24562 16.2585 7.22689 16.294 7.21384C16.3298 7.20079 16.3713 7.19411 16.4184 7.19411C16.5144 7.19411 16.5853 7.2182 16.6308 7.26671C16.6766 7.31522 16.6993 7.38715 16.6993 7.48319V7.83887H16.5147V7.47749C16.5147 7.42697 16.505 7.3905 16.4856 7.3691C16.4659 7.34735 16.4325 7.33664 16.3843 7.33664C16.2883 7.33664 16.2405 7.37611 16.2405 7.45474V7.8392H16.0559V7.20782H16.2014V7.20749Z" fill="#010101"/>
<path d="M17.0769 7.09071H16.8923V6.93044H17.0769V7.09071ZM17.0769 7.83919H16.8923V7.20782H17.0769V7.83919Z" fill="#010101"/>
<path d="M17.8233 7.2279L17.7962 7.3624C17.7274 7.34869 17.6615 7.34198 17.5979 7.34198C17.5411 7.34198 17.4993 7.35436 17.4722 7.37946C17.4454 7.40423 17.432 7.4417 17.432 7.49155V7.55679C17.432 7.60664 17.4454 7.64379 17.4722 7.66821C17.4989 7.69263 17.5407 7.70502 17.5979 7.70502C17.6775 7.70502 17.7551 7.69633 17.83 7.67925L17.8504 7.81911C17.8106 7.82916 17.7665 7.83718 17.7183 7.84355C17.6698 7.8499 17.6257 7.8529 17.5859 7.8529C17.4772 7.8529 17.3939 7.82682 17.3354 7.77461C17.2772 7.72274 17.2478 7.64815 17.2478 7.5511V7.49689C17.2478 7.39919 17.2769 7.32425 17.3354 7.27205C17.3936 7.21986 17.4772 7.19376 17.5859 7.19376C17.6538 7.19376 17.7327 7.20514 17.8233 7.22755" fill="#010101"/>
<path d="M18.4136 7.34267C18.3945 7.32861 18.3614 7.32158 18.3146 7.32158C18.2775 7.32158 18.234 7.32359 18.1845 7.3276C18.1347 7.33161 18.0912 7.33697 18.0544 7.34332L18.0407 7.22387C18.0832 7.21586 18.131 7.20883 18.1838 7.2028C18.237 7.19678 18.2852 7.19411 18.3283 7.19411C18.4306 7.19411 18.5056 7.21251 18.5537 7.24897C18.6015 7.28579 18.6256 7.344 18.6256 7.42364V7.84053H18.4832L18.4694 7.76725C18.4323 7.82413 18.3554 7.85291 18.2387 7.85291C18.1534 7.85291 18.0905 7.83584 18.0494 7.80139C18.0083 7.76692 17.9875 7.7144 17.9875 7.64379C17.9875 7.5732 18.0096 7.52167 18.0534 7.48921C18.0972 7.45675 18.1695 7.44037 18.2698 7.44037H18.4423V7.42263C18.4423 7.38382 18.433 7.35738 18.4139 7.34332M18.1979 7.56383C18.1798 7.57787 18.1708 7.60196 18.1708 7.63643C18.1708 7.6709 18.1801 7.6923 18.1985 7.70636C18.2169 7.72042 18.247 7.72743 18.2889 7.72743C18.336 7.72743 18.3731 7.71773 18.4009 7.69833C18.4283 7.67892 18.4423 7.65148 18.4423 7.61635V7.54309H18.2889C18.2464 7.54309 18.2159 7.55012 18.1979 7.56416" fill="#010101"/>
<path d="M18.8617 7.20748V7.03917H19.0463V7.20748H19.2008V7.34332H19.0463V7.62571C19.0463 7.65381 19.053 7.67423 19.0661 7.68695C19.0791 7.69965 19.0985 7.70603 19.1236 7.70603H19.2012L19.1861 7.84186H19.1005C18.9413 7.84186 18.8617 7.76625 18.8617 7.615V7.34332H18.7477V7.20748H18.8617Z" fill="#010101"/>
<path d="M19.5593 7.09071H19.3747V6.93044H19.5593V7.09071ZM19.5593 7.83919H19.3747V7.20782H19.5593V7.83919Z" fill="#010101"/>
<path d="M19.8205 7.27205C19.8808 7.21986 19.9667 7.19376 20.0791 7.19376C20.1914 7.19376 20.2774 7.21986 20.3368 7.27205C20.3965 7.32392 20.4265 7.39919 20.4265 7.49689V7.5511C20.4265 7.6478 20.3967 7.72241 20.3368 7.77461C20.277 7.82682 20.1914 7.8529 20.0791 7.8529C19.9667 7.8529 19.8808 7.82682 19.8205 7.77461C19.7603 7.72274 19.7303 7.64815 19.7303 7.5511V7.49689C19.7303 7.39919 19.7603 7.32425 19.8205 7.27205ZM20.2019 7.66788C20.2286 7.64346 20.2419 7.60631 20.2419 7.55647V7.48988C20.2419 7.44102 20.2286 7.40423 20.2019 7.37979C20.1751 7.35537 20.1339 7.34299 20.0791 7.34299C20.0243 7.34299 19.9817 7.35537 19.9547 7.37979C19.9278 7.40423 19.9145 7.44102 19.9145 7.48988V7.55647C19.9145 7.60631 19.9278 7.64346 19.9547 7.66788C19.9815 7.6923 20.0225 7.70467 20.0791 7.70467C20.1356 7.70467 20.1751 7.6923 20.2019 7.66788Z" fill="#010101"/>
<path d="M20.7482 7.20749L20.759 7.27004C20.778 7.24562 20.8055 7.22689 20.8409 7.21384C20.8766 7.20079 20.9182 7.19411 20.9653 7.19411C21.0613 7.19411 21.1322 7.2182 21.1777 7.26671C21.2234 7.31522 21.2463 7.38715 21.2463 7.48319V7.83887H21.0615V7.47749C21.0615 7.42697 21.0518 7.3905 21.0325 7.3691C21.0127 7.34735 20.9794 7.33664 20.9312 7.33664C20.8351 7.33664 20.7873 7.37611 20.7873 7.45474V7.8392H20.6027V7.20782H20.7482V7.20749Z" fill="#010101"/>
<path d="M21.5404 7.84287C21.4866 7.83651 21.4388 7.8278 21.3973 7.81711L21.4231 7.69063C21.5255 7.7097 21.6136 7.71906 21.6876 7.71906C21.7364 7.71906 21.7703 7.71437 21.7889 7.70467C21.8073 7.69532 21.817 7.67858 21.817 7.65515C21.817 7.64277 21.8133 7.63274 21.8063 7.62604C21.799 7.61936 21.785 7.61299 21.7643 7.60764C21.7434 7.6023 21.7093 7.59593 21.6623 7.58857C21.5906 7.57687 21.5362 7.56347 21.4986 7.54842C21.4612 7.53338 21.4349 7.51463 21.4198 7.49154C21.4047 7.46846 21.3973 7.43734 21.3973 7.39853C21.3973 7.26167 21.4953 7.19342 21.6921 7.19342C21.7754 7.19342 21.8699 7.20514 21.9756 7.22855L21.9485 7.3537C21.8536 7.33663 21.7726 7.32792 21.7056 7.32792C21.6586 7.32792 21.626 7.33228 21.608 7.34097C21.59 7.34967 21.5809 7.36441 21.5809 7.38515C21.5809 7.39886 21.5846 7.40957 21.591 7.4176C21.5978 7.42562 21.6113 7.43265 21.6318 7.43802C21.6522 7.44336 21.6836 7.44938 21.7262 7.45574C21.8003 7.46645 21.8565 7.47917 21.895 7.49389C21.9334 7.50861 21.9605 7.52735 21.9762 7.55077C21.9921 7.57418 22 7.60631 22 7.64713C22 7.71772 21.976 7.76958 21.9282 7.80272C21.8803 7.83584 21.804 7.85224 21.7 7.85224C21.6475 7.85224 21.5943 7.84922 21.5404 7.84287Z" fill="#010101"/>
<path d="M11.1097 8.44381C11.1699 8.3916 11.2559 8.36551 11.3682 8.36551C11.4806 8.36551 11.5665 8.3916 11.6261 8.44381C11.6856 8.49567 11.7157 8.57095 11.7157 8.66865V8.72285C11.7157 8.81955 11.6859 8.89417 11.6261 8.94636C11.5662 8.99855 11.4806 9.02466 11.3682 9.02466C11.2559 9.02466 11.1699 8.99855 11.1097 8.94636C11.0495 8.8945 11.0194 8.81988 11.0194 8.72285V8.66865C11.0194 8.57095 11.0495 8.496 11.1097 8.44381ZM11.491 8.83963C11.5177 8.81519 11.5311 8.77807 11.5311 8.7282V8.66162C11.5311 8.61278 11.5177 8.57596 11.491 8.55154C11.4642 8.52712 11.4231 8.51473 11.3682 8.51473C11.3134 8.51473 11.2709 8.52712 11.2441 8.55154C11.2174 8.57596 11.204 8.61278 11.204 8.66162V8.7282C11.204 8.77807 11.2174 8.81519 11.2441 8.83963C11.2709 8.86405 11.312 8.87643 11.3682 8.87643C11.4244 8.87643 11.4642 8.86405 11.491 8.83963Z" fill="#010101"/>
<path d="M11.9973 8.1661C12.0421 8.12359 12.1106 8.10219 12.2029 8.10219H12.3116L12.2979 8.24339H12.2274C12.1859 8.24339 12.1565 8.2514 12.1397 8.26781C12.123 8.28421 12.1146 8.31332 12.1146 8.3548V8.38056H12.2762V8.51508H12.1146V9.0106H11.93V8.51508H11.8294V8.38056H11.93V8.36015C11.93 8.27315 11.9524 8.20859 11.9973 8.1661Z" fill="#010101"/>
<path d="M12.9577 8.13496H12.7731V9.01094H12.9577V8.13496Z" fill="#010101"/>
<path d="M13.1557 8.37922H13.3009L13.3146 8.46188C13.3527 8.39762 13.4109 8.36551 13.4898 8.36551H13.5754L13.5617 8.52009H13.4774C13.435 8.52009 13.4015 8.53247 13.3768 8.55756C13.3524 8.58231 13.34 8.61611 13.34 8.65895V9.0106H13.1554V8.37922H13.1557Z" fill="#010101"/>
<path d="M14.0854 8.51439C14.0664 8.50035 14.0333 8.49332 13.9864 8.49332C13.9493 8.49332 13.9058 8.49531 13.8564 8.49934C13.8065 8.50335 13.763 8.50871 13.7263 8.51507L13.7125 8.39562C13.755 8.38758 13.8028 8.38055 13.8557 8.37452C13.9089 8.3685 13.957 8.36583 14.0001 8.36583C14.1025 8.36583 14.1774 8.38423 14.2256 8.42071C14.2734 8.45751 14.2975 8.51572 14.2975 8.59536V9.01227H14.155L14.1413 8.93899C14.1042 8.99587 14.0272 9.02465 13.9105 9.02465C13.8253 9.02465 13.7624 9.00759 13.7212 8.97311C13.6801 8.93866 13.6594 8.88612 13.6594 8.81553C13.6594 8.74492 13.6814 8.69341 13.7252 8.66095C13.7691 8.62849 13.8413 8.61209 13.9416 8.61209H14.1142V8.59435C14.1142 8.55554 14.1048 8.52911 14.0858 8.51507M13.8697 8.7359C13.8517 8.74994 13.8426 8.77403 13.8426 8.8085C13.8426 8.84295 13.852 8.86437 13.8704 8.87843C13.8888 8.89247 13.9189 8.8995 13.9607 8.8995C14.0078 8.8995 14.045 8.8898 14.0727 8.8704C14.1001 8.85099 14.1142 8.82355 14.1142 8.78842V8.71516H13.9607C13.9182 8.71516 13.8878 8.72217 13.8697 8.73623" fill="#010101"/>
<path d="M14.6362 8.37921L14.6469 8.44178C14.666 8.41736 14.6934 8.39862 14.7289 8.38558C14.7646 8.37253 14.8061 8.36583 14.8533 8.36583C14.9492 8.36583 15.0201 8.38992 15.0656 8.43843C15.1115 8.48697 15.1342 8.55889 15.1342 8.65493V9.01059H14.9496V8.64923C14.9496 8.59871 14.9399 8.56224 14.9205 8.54082C14.9008 8.51907 14.8673 8.50836 14.8192 8.50836C14.7232 8.50836 14.6754 8.54785 14.6754 8.62648V9.01094H14.4908V8.37956H14.6362V8.37921Z" fill="#010101"/>
</g>
</svg>
