<svg width="32" height="33" viewBox="0 0 32 33" fill="none" xmlns="http://www.w3.org/2000/svg">
<g id="Instagram - Iconly Pro">
<path id="Vector" fill-rule="evenodd" clip-rule="evenodd" d="M15.7928 13.9515C13.7688 13.9515 12.1221 15.5955 12.1221 17.6181C12.1221 19.6408 13.7688 21.2848 15.7928 21.2848C17.8168 21.2848 19.4621 19.6408 19.4621 17.6181C19.4621 15.5955 17.8168 13.9515 15.7928 13.9515Z" fill="#000431"/>
<path id="Vector_2" fill-rule="evenodd" clip-rule="evenodd" d="M22.4854 12.3904C21.7254 12.3904 21.1054 11.7744 21.1054 11.0184C21.1054 10.2597 21.7254 9.64372 22.4854 9.64372C23.2454 9.64372 23.864 10.2597 23.864 11.0184C23.864 11.7744 23.2454 12.3904 22.4854 12.3904ZM15.792 23.2851C12.6667 23.2851 10.1227 20.7437 10.1227 17.6184C10.1227 14.4931 12.6667 11.9517 15.792 11.9517C18.9187 11.9517 21.4614 14.4931 21.4614 17.6184C21.4614 20.7437 18.9187 23.2851 15.792 23.2851ZM21.6227 4.51172H10.376C6.16404 4.51172 3.33337 7.47439 3.33337 11.8851V22.4717C3.33337 26.8811 6.16404 29.8451 10.376 29.8451H21.6214C25.8347 29.8451 28.6667 26.8811 28.6667 22.4717V11.8851C28.6667 7.47439 25.836 4.51172 21.6227 4.51172Z" fill="#000431"/>
</g>
</svg>
