<svg width="22" height="12" viewBox="0 0 22 12" fill="none" xmlns="http://www.w3.org/2000/svg">
<path d="M20.1489 3.09911C20.6954 3.52996 21.1688 4.02806 21.4734 4.66264C21.6359 5.00118 21.7365 5.33539 21.7779 5.66501C21.7925 5.77449 21.8 5.88615 21.8 6.00001C21.8 6.01001 21.7999 6.02 21.7998 6.02996C21.796 6.62908 21.5962 7.21241 21.2172 7.77837C20.7544 8.46929 20.1218 8.97852 19.4228 9.40982C18.446 10.0123 17.3868 10.42 16.2857 10.7244C15.2685 11.0056 14.233 11.1871 13.1832 11.2911C12.4573 11.363 11.7305 11.4004 11.0013 11.4C9.46963 11.3975 7.95347 11.2506 6.45796 10.9112C5.25379 10.638 4.09002 10.2495 3.00131 9.65742C2.22525 9.23525 1.51513 8.72669 0.959118 8.02641C0.544995 7.50516 0.268099 6.92267 0.211032 6.25157C0.205118 6.18228 0.201603 6.11357 0.200434 6.04544C0.200143 6.03034 0.199997 6.01519 0.199997 6.00001L0.199998 5.99728C0.199439 5.39834 0.380683 4.84398 0.707313 4.32954C1.10989 3.69517 1.65524 3.20487 2.27055 2.78849C3.23513 2.13587 4.29764 1.697 5.40678 1.36479C6.42155 1.06085 7.45852 0.863349 8.50948 0.741775C9.49161 0.628217 10.478 0.582571 11.4663 0.605951C13.3972 0.651597 15.294 0.915229 17.1304 1.53824C18.214 1.90586 19.2432 2.3848 20.1489 3.09911Z" fill="#FFCC00"/>
<path d="M21.4734 4.66264C21.1688 4.02806 20.6954 3.52996 20.1489 3.09911C19.2432 2.3848 18.214 1.90586 17.1303 1.53824C15.294 0.915229 13.3972 0.651597 11.4663 0.605951C10.478 0.582571 9.49161 0.628217 8.50948 0.741775C7.45852 0.863349 6.42155 1.06085 5.40678 1.36479C4.29764 1.697 3.23513 2.13587 2.27054 2.78849C1.65524 3.20487 1.10989 3.69517 0.707313 4.32954C0.334936 4.91603 0.151522 5.55441 0.211032 6.25157C0.268099 6.92267 0.544995 7.50516 0.959118 8.02641C1.51513 8.72669 2.22525 9.23525 3.00131 9.65742C4.09002 10.2495 5.25379 10.638 6.45796 10.9112C7.95347 11.2506 9.46962 11.3975 11.0013 11.4C11.7305 11.4004 12.4573 11.363 13.1832 11.2911C14.233 11.1871 15.2685 11.0056 16.2857 10.7244C17.3868 10.42 18.446 10.0123 19.4228 9.40981C20.1218 8.97852 20.7544 8.46929 21.2172 7.77837C21.8791 6.78997 21.9948 5.74835 21.4736 4.66242L21.4734 4.66264ZM20.917 6.079C20.8941 6.60649 20.6732 7.05805 20.353 7.46552C19.9011 8.04044 19.3231 8.46194 18.6938 8.81798C17.6655 9.40002 16.5581 9.77164 15.4135 10.0384C14.3236 10.2925 13.2181 10.4356 12.1007 10.4897C11.1463 10.536 10.1933 10.5245 9.24069 10.4454C7.81002 10.3267 6.408 10.0685 5.04972 9.59641C4.12022 9.27332 3.23402 8.86207 2.45018 8.25486C1.97722 7.88858 1.5642 7.46731 1.29952 6.92089C0.925366 6.1487 1.03706 5.41769 1.50514 4.72499C1.89017 4.1552 2.41199 3.73214 2.9871 3.37142C3.96101 2.76066 5.0253 2.36655 6.13044 2.07553C7.15475 1.80588 8.19683 1.64133 9.25246 1.55427C9.83556 1.50618 10.4191 1.48925 10.9154 1.4828C12.6103 1.48547 14.1986 1.64957 15.7585 2.04814C16.8692 2.33203 17.9399 2.71947 18.9243 3.3191C19.5296 3.68783 20.0785 4.12335 20.4846 4.71631C20.7653 5.12623 20.9392 5.574 20.9172 6.079H20.917Z" fill="black"/>
<path d="M10.561 5.88923C10.4082 6.09229 10.2248 6.22634 9.96655 6.21053C9.75627 6.19761 9.57064 6.12213 9.42564 5.9636C9.393 5.92797 9.37679 5.91171 9.3346 5.95847C9.01174 6.31674 8.47016 6.30293 8.16262 5.9322C8.15107 5.91817 8.13842 5.90526 8.12598 5.89145C7.80046 6.24704 7.32149 6.32097 6.85874 6.08539C6.85164 6.18603 6.85386 6.28601 6.83587 6.38242C6.74949 6.84801 6.45572 7.14237 6.03449 7.31716C5.6257 7.48683 5.20025 7.51021 4.77258 7.40422C4.28185 7.28265 3.99385 6.90702 3.98253 6.39378C3.97254 5.94511 4.08934 5.52205 4.24277 5.10612C4.25943 5.06092 4.2803 5.04823 4.32426 5.06137C4.4586 5.10189 4.5925 5.14397 4.72817 5.17982C4.79146 5.19652 4.7848 5.2317 4.77347 5.2798C4.71307 5.53564 4.6529 5.79148 4.64024 6.056C4.62559 6.36528 4.72951 6.51157 5.03149 6.57636C5.34325 6.64338 5.65035 6.6111 5.94634 6.4971C6.18837 6.4038 6.24011 6.31006 6.23323 6.0511C6.22124 5.59865 6.21347 5.1462 6.20481 4.69375C6.19481 4.17828 6.18815 3.6626 6.17416 3.14713C6.17172 3.05718 6.20192 3.0338 6.28474 3.02979C6.42863 3.02244 6.57252 3.00841 6.71485 2.98793C6.81633 2.97323 6.8543 2.99194 6.85297 3.10883C6.84631 3.68375 6.84986 4.25889 6.84986 4.8338C6.84986 4.87099 6.84831 4.90817 6.85097 4.94514C6.86985 5.22925 6.98775 5.34303 7.27109 5.34971C7.34126 5.35149 7.41187 5.35172 7.48181 5.34771C7.72429 5.33413 7.84398 5.2179 7.86618 4.9743C7.87507 4.87834 7.88417 4.78215 7.88373 4.68596C7.8835 4.62072 7.90748 4.60468 7.9681 4.60624C8.11221 4.6098 8.25677 4.61047 8.40088 4.60624C8.46772 4.60424 8.48259 4.63185 8.48037 4.69152C8.47482 4.83603 8.47349 4.98076 8.47016 5.12527C8.46927 5.16223 8.46572 5.19808 8.49037 5.23148C8.57763 5.34927 8.70376 5.35239 8.83121 5.34749C8.93935 5.34326 9.00774 5.2818 9.04549 5.18249C9.10478 5.02685 9.1121 4.86386 9.10944 4.70065C9.10833 4.62962 9.12765 4.60313 9.20226 4.60624C9.34259 4.61203 9.48359 4.61159 9.62393 4.60624C9.69543 4.60357 9.71142 4.63074 9.70898 4.69642C9.70342 4.84828 9.70831 5.0008 9.70143 5.15243C9.69854 5.21745 9.72296 5.25731 9.77381 5.28982C9.87351 5.3535 9.98321 5.36107 10.0947 5.34303C10.1684 5.33101 10.2028 5.27401 10.2235 5.20543C10.2765 5.02819 10.2717 4.8456 10.2708 4.66458C10.2703 4.55481 10.2954 4.50293 10.4173 4.5174C10.5159 4.5292 10.6169 4.51985 10.7166 4.51985C10.8161 4.51985 10.8659 4.56794 10.8661 4.66413C10.8663 4.7866 10.8632 4.90906 10.8685 5.03131C10.8778 5.24929 10.9682 5.33969 11.1858 5.34749C11.3406 5.35305 11.4963 5.36263 11.6495 5.32366C11.7556 5.2965 11.8034 5.23593 11.7896 5.12193C11.7607 4.88279 11.7401 4.64276 11.711 4.40384C11.7017 4.32791 11.7139 4.28939 11.7991 4.27871C11.9639 4.25822 12.1278 4.22816 12.2914 4.19944C12.3329 4.19209 12.3647 4.18808 12.3698 4.24308C12.4064 4.63341 12.4904 5.0224 12.4193 5.41629C12.3418 5.8467 12.0489 6.12503 11.6151 6.1896C11.4352 6.21632 11.2544 6.22344 11.0735 6.19761C10.831 6.1631 10.7124 6.09385 10.5603 5.88923H10.561Z" fill="black"/>
<path d="M14.7618 6.05965C14.7458 6.22598 14.7218 6.36403 14.6763 6.4974C14.5177 6.96299 14.176 7.21549 13.713 7.32303C13.5944 7.35042 13.4736 7.36823 13.3511 7.3718C13.2958 7.37358 13.2727 7.35621 13.262 7.30121C13.2247 7.10861 13.1861 6.91623 13.1406 6.72541C13.125 6.65994 13.1426 6.64547 13.203 6.63078C13.4295 6.57622 13.6517 6.50898 13.856 6.39164C14.0345 6.28899 14.1362 6.15539 14.1087 5.93139C14.0636 5.56355 14.0086 5.1975 13.9375 4.83411C13.9197 4.74304 13.9346 4.70229 14.0294 4.68203C14.1917 4.6473 14.3518 4.60232 14.5115 4.556C14.5659 4.54019 14.5821 4.55467 14.5941 4.6061C14.6276 4.75017 14.6589 4.89534 14.7051 5.03562C14.7837 5.27454 14.8794 5.34223 15.1288 5.34757C15.2762 5.35069 15.425 5.36138 15.5702 5.32263C15.699 5.28834 15.727 5.24938 15.7141 5.11645C15.691 4.88042 15.6695 4.64418 15.6397 4.40905C15.6284 4.31954 15.6508 4.28436 15.7432 4.27434C15.9009 4.25697 16.057 4.22602 16.2137 4.19952C16.2506 4.19329 16.2915 4.17614 16.2972 4.23448C16.3341 4.61724 16.4158 4.9991 16.353 5.38565C16.2801 5.83208 16.0046 6.10663 15.5625 6.1859C15.4164 6.21217 15.2682 6.21796 15.1201 6.20883C14.9927 6.20081 14.8757 6.16007 14.762 6.05965H14.7618Z" fill="black"/>
<path d="M9.40755 8.87556C9.31562 9.01139 9.22547 9.14521 9.13487 9.27858C9.06027 9.38813 8.83822 9.39125 8.75783 9.28348C8.65636 9.14743 8.55577 9.01072 8.45451 8.87378C8.41255 8.89649 8.43142 8.92967 8.4312 8.95439C8.42942 9.23628 8.42609 9.51817 8.43253 9.80006C8.43453 9.89113 8.40455 9.91451 8.32017 9.90805C8.2318 9.90115 8.14231 9.90137 8.05394 9.90805C7.97666 9.91384 7.95446 9.88979 7.95512 9.81052C7.95868 9.28393 7.9569 8.75711 7.9569 8.23051C7.9569 8.01163 7.95845 8.02722 8.1754 8.00695C8.37324 7.98847 8.49693 8.05371 8.59707 8.22294C8.69277 8.38459 8.81912 8.52821 8.9277 8.68251C8.96812 8.73996 8.98832 8.75065 9.0314 8.68185C9.15708 8.481 9.29253 8.2864 9.4191 8.086C9.45552 8.02833 9.49593 8.00651 9.56277 8.01007C9.66247 8.01542 9.76261 8.01542 9.86231 8.01007C9.93226 8.00629 9.94913 8.03323 9.94891 8.09958C9.94669 8.6745 9.94691 9.24941 9.94891 9.82433C9.94891 9.88556 9.93381 9.9105 9.86853 9.90783C9.75772 9.90315 9.64626 9.90137 9.53568 9.90827C9.45107 9.91339 9.42132 9.89113 9.42332 9.79984C9.42976 9.51817 9.42598 9.23605 9.42509 8.95416C9.42509 8.93056 9.43597 8.90339 9.40777 8.87534L9.40755 8.87556Z" fill="black"/>
<path d="M13.5495 9.03822C13.5773 8.99725 13.5651 8.95962 13.5653 8.92466C13.5666 8.66148 13.5717 8.39807 13.5633 8.1351C13.56 8.03179 13.5942 8.00729 13.6881 8.01598C13.7725 8.02377 13.8584 8.02288 13.943 8.01598C14.0212 8.00974 14.0418 8.03624 14.0414 8.11417C14.0378 8.62941 14.0396 9.14488 14.0396 9.66012C14.0396 9.9124 14.0392 9.90393 13.7885 9.91574C13.6523 9.92219 13.5671 9.87944 13.4838 9.77123C13.2671 9.48978 13.0362 9.21925 12.8108 8.94448C12.7857 8.91398 12.7599 8.88414 12.7133 8.82892C12.7133 8.92132 12.7133 8.98211 12.7133 9.04312C12.7133 9.30252 12.712 9.56215 12.7144 9.82155C12.7151 9.88278 12.7082 9.91841 12.6325 9.91373C12.5075 9.90594 12.3438 9.95537 12.2672 9.89302C12.1873 9.82801 12.2434 9.65722 12.2428 9.53298C12.2399 9.06227 12.2437 8.59134 12.2397 8.12063C12.239 8.03913 12.261 8.02511 12.3418 8.01308C12.6125 7.97233 12.7963 8.06763 12.9493 8.29675C13.1048 8.52988 13.2995 8.73651 13.4774 8.9545C13.4998 8.98211 13.524 9.00816 13.55 9.038L13.5495 9.03822Z" fill="black"/>
<path d="M17.3894 4.5894C17.3894 5.09017 17.3879 5.59094 17.391 6.09193C17.3914 6.16674 17.3745 6.1948 17.295 6.19658C17.1512 6.19992 17.007 6.21306 16.864 6.22976C16.791 6.23822 16.7699 6.21929 16.7688 6.14403C16.7559 5.35046 16.7395 4.55667 16.7235 3.7631C16.7193 3.55179 16.7137 3.34026 16.7062 3.12918C16.7042 3.07284 16.7135 3.039 16.7799 3.0341C16.9531 3.02141 17.1263 3.00649 17.2988 2.98534C17.3774 2.97576 17.391 3.00604 17.3905 3.07618C17.3881 3.58074 17.3892 4.08529 17.3892 4.58984L17.3894 4.5894Z" fill="black"/>
<path d="M13.4607 4.58737C13.4607 5.07701 13.4578 5.56664 13.4629 6.05628C13.464 6.15558 13.4495 6.20212 13.3359 6.19945C13.2073 6.19633 13.0774 6.21259 12.9493 6.22906C12.8693 6.23931 12.8394 6.22483 12.8394 6.13488C12.8394 5.85677 12.8291 5.57867 12.8234 5.30056C12.8085 4.58848 12.7963 3.87663 12.7765 3.16478C12.7736 3.05879 12.8089 3.03363 12.9049 3.02918C13.0596 3.02227 13.2144 3.00468 13.3683 2.98553C13.4431 2.97618 13.4624 3.00023 13.462 3.07371C13.4591 3.57826 13.4604 4.08259 13.4604 4.58715L13.4607 4.58737Z" fill="black"/>
<path d="M11.1004 8.01867C11.3631 8.01867 11.6258 8.02068 11.8885 8.01734C11.9538 8.01645 11.9826 8.03047 11.9771 8.10262C11.9706 8.18367 11.9706 8.26605 11.9771 8.34732C11.9831 8.42347 11.9615 8.45131 11.8809 8.44752C11.737 8.44084 11.5923 8.4493 11.4481 8.44396C11.3751 8.44129 11.3542 8.46422 11.3549 8.53748C11.3582 8.96031 11.3538 9.38337 11.3587 9.80621C11.3598 9.89505 11.3345 9.9211 11.2481 9.91509C11.1413 9.90774 11.0334 9.90841 10.9263 9.91509C10.8473 9.91999 10.8273 9.89216 10.828 9.81534C10.8315 9.40363 10.8246 8.99171 10.8328 8.58C10.8353 8.46244 10.7984 8.43572 10.6903 8.44329C10.5577 8.45264 10.4241 8.44284 10.2908 8.44663C10.2298 8.44841 10.2024 8.43171 10.2073 8.36603C10.2158 8.25559 10.164 8.11642 10.2269 8.04205C10.2877 7.97035 10.4287 8.02223 10.5342 8.01979C10.7227 8.01555 10.9115 8.01867 11.1002 8.01867H11.1004Z" fill="black"/>
<path d="M15.3802 7.35039C15.3467 7.35529 15.3267 7.33302 15.3056 7.31187C15.209 7.21479 15.1135 7.11682 15.0149 7.02174C14.9614 6.97008 14.9568 6.92622 15.0127 6.87256C15.1089 6.7806 15.2035 6.68641 15.2949 6.58978C15.3531 6.52832 15.4033 6.52498 15.4626 6.58755C15.5439 6.6735 15.6327 6.75254 15.7115 6.84072C15.7637 6.89928 15.7983 6.91219 15.8561 6.8445C15.9327 6.75455 16.0233 6.67706 16.1048 6.59111C16.1618 6.53077 16.2122 6.52364 16.2726 6.5871C16.3643 6.68352 16.4591 6.77726 16.5546 6.87011C16.6081 6.92199 16.6097 6.9683 16.5557 7.02107C16.4578 7.1166 16.361 7.21345 16.2657 7.31187C16.2131 7.3662 16.1678 7.3642 16.1161 7.31053C16.0264 7.21724 15.9313 7.12884 15.843 7.03443C15.8005 6.98923 15.7721 6.98589 15.7284 7.0331C15.6429 7.12528 15.5521 7.21256 15.4626 7.30118C15.4395 7.32412 15.4204 7.35484 15.3802 7.35084V7.35039Z" fill="black"/>
<path d="M11.9573 3.87855C11.9233 3.88323 11.9033 3.86074 11.8822 3.83959C11.7781 3.73494 11.6744 3.62962 11.5687 3.52652C11.5145 3.47375 11.5169 3.42855 11.5705 3.37667C11.6739 3.27647 11.7761 3.17494 11.8756 3.07096C11.9302 3.01395 11.9781 3.00906 12.0345 3.06695C12.1349 3.17004 12.2371 3.2718 12.3396 3.37289C12.3856 3.41831 12.4025 3.46507 12.3519 3.51628C12.2404 3.62939 12.1276 3.74095 12.0155 3.85339C11.9992 3.86965 11.9815 3.88189 11.9571 3.87855H11.9573Z" fill="black"/>
</svg>
