<?xml version="1.0" encoding="UTF-8"?>
<svg id="Layer_1" xmlns="http://www.w3.org/2000/svg" version="1.1" viewBox="0 0 500 500">
  <!-- Generator: Adobe Illustrator 30.4.0, SVG Export Plug-In . SVG Version: 2.1.4 Build 226)  -->
  <defs>
    <style>
      .st0 {
        fill: #fff;
      }

      .st1 {
        fill: #072341;
      }
    </style>
  </defs>
  <rect class="st1" x="-3.2" y="-3.2" width="506.3" height="506.3" rx="126" ry="126"/>
  <g id="_فلای_تودی" data-name="فلای_تودی">
    <g>
      <path class="st0" d="M266.2,289.4l-45.1-2.1-3.3,13.2c5.1,1.1,11.4-1.6,28.6-.3,12.3,1.1,15.2,6.6,15.2,29.7s0,14.8-1.1,22.9c-5.3,2-14.5,3.1-22.2,3.1s-11.6-1.8-11.6-5.3l.7-22.4-17.4-1.3-2,15.4c-2.2,17.6,5.7,23.5,28.1,23.5s23.3-1.3,32.1-4.4c9.2-3.3,14.1-19.9,14.1-36.6s-6.4-33.2-16-35.4"/>
      <path class="st0" d="M179.1,342.9l-39.8-3.3c-4.4-.4-6.6-3.5-6.6-5.9,0-29.4,4.6-37.1,17.1-37.1h16.3l2.4,23.3,18.2-2v-20.7c0-6.4-4.6-12.3-10.8-11.6l-42.4,4.6c-14.1,1.5-22.2,18-22.2,43.3s7.5,15.8,17.8,16l39.8,1.1c0,5.7-.4,14.7-1.5,20.2-9.7,3.1-21.8,5.1-38.9,5.1-27,0-38.5-6.6-38.5-22.2s2.2-33.2,3.7-51.2h-16.3c-3.3,14.9-7,34.7-7,48.8,0,24.6,16.7,34.5,58,34.5s32.1-1.8,44.2-5.1c11.2-3.1,16.7-11.4,16.7-25.9s-3.5-11.2-10.3-11.9"/>
      <path class="st0" d="M259.3,209.8v-69.2l-18.7,1.1,2.9,79.1c13-.2,15.8-2.6,15.8-11"/>
      <rect class="st0" x="356" y="114.2" width="22" height="17.6"/>
      <path class="st0" d="M386.6,154.4l-39.3-5.7c-8.4-1.3-14.7,4.2-15.6,11.2l-3.1,27.5c-1.1,9.9,5.5,18.5,17.6,18.5h39c-.2,6.1-.8,12.2-1.6,16.7-8.6,2-25.9,3.3-41.1,3.3-30.5,0-38.7-7.7-38.7-23.5v-64l-18.7,1.1.2,68.8c0,11-.2,19.3-1.5,24.2-6.2,2.4-16.9,4-29.4,4s-17.6-.7-23.5-1.8l-1.1,9.2c7.7,1.8,13.4,2.4,25.1,2.4s25.7-1.3,33-3.7c9-3,12.9-8.2,14.5-16.8,6.2,6.8,18.3,9.9,39.8,9.9s32.7-1.1,45.9-3.3c12.5-2.2,17.4-11.6,17.4-34.9s-6.4-41.3-18.7-43.1M349.2,193.6l2-33.6h13.6c16.7,0,20.3,4.4,20.4,37l-32.1-1c-1.3,0-4-.7-4-2.4"/>
      <path class="st0" d="M207.5,203.4l-39.8-3.3c-4.4-.4-6.6-3.5-6.6-5.9,0-29.4,4.6-37.1,17.1-37.1h16.3l2.4,23.3,18.2-2v-20.7c0-6.4-4.6-12.3-10.8-11.6l-42.4,4.6c-14.1,1.5-22.2,18-22.2,43.3s7.5,15.8,17.8,16l39.1,1.1c0,5.7-.4,14.7-1.5,20.2-9,3.1-21.1,5.1-38.2,5.1-27,0-38.5-6.6-38.5-22.2s2.2-33.2,3.7-51.2h-16.3c-3.3,14.9-7,34.7-7,48.8,0,24.6,16.7,34.5,58,34.5s32.1-1.8,44.2-5.1c11.2-3.1,16.7-11.4,16.7-25.9s-3.5-11.2-10.3-11.9"/>
      <path class="st0" d="M403.3,293.9c1.1,18.2,1.8,37.4,1.8,47-3.9.8-13.8,1.5-26,1.9-.5-35.9-6.9-47.3-18.6-49l-39.3-5.7c-8.4-1.3-14.9,4.2-15.6,11.2l-3.1,34.1c-.9,9.9,5.5,18.5,17.6,18.5h39.1c-.2,8.5-1,15.3-2.8,19.3-6.6,2.4-17.6,3.5-28.1,3.5s-20.9-.7-27.9-1.8l-1.1,9.2c9,1.8,15.8,2.4,29.4,2.4s23.7-1.3,31-4c12.2-4.5,18.5-13.8,19.4-28.9,11.1-.2,21.2-.5,30-1,9.2-.4,16.3-6.4,16.3-18.5s-.9-21.1-2.6-39.6l-19.3,1.1ZM323.1,339.6l2-40.2h13.6c16.9,0,20.3,3.3,20.4,43.7-12.8,0-20.2-.3-32.1-.9-2.2,0-4-.9-4-2.6"/>
      <rect class="st0" x="370.8" y="263.2" width="58.7" height="12.1"/>
    </g>
  </g>
</svg>