<svg width="217" height="168" viewBox="0 0 217 168" fill="none" xmlns="http://www.w3.org/2000/svg">
  <path fill-rule="evenodd" clip-rule="evenodd"
        d="M61 0C27.3106 0 0 27.3106 0 61C0 94.6894 27.3106 122 61 122H159V97H66C46.1177 97 30 80.8822 30 61C30 41.1177 46.1177 25 66 25H159V0H61Z"
        fill="#00346B"/>
  <path
    d="M156 168C189.689 168 217 140.689 217 107C217 73.3106 189.689 46 156 46L58 46L58 71L151 71C170.882 71 187 87.1177 187 107C187 126.882 170.882 143 151 143L111 143L111 168L156 168Z"
    fill="#8E9DBF"/>
</svg>
