<?xml version="1.0" encoding="UTF-8"?>
<svg id="Layer_2" data-name="Layer 2" xmlns="http://www.w3.org/2000/svg" viewBox="0 0 77.68 19.2">
  <defs>
    <style>
      .cls-1 {
        fill: #003eff;
      }
    </style>
  </defs>
  <g id="Layer_1-2" data-name="Layer 1">
    <path class="cls-1" d="M53.25,13.09h-3.49v3.49h3.49v-3.49Z"/>
    <path class="cls-1" d="M62.83,13.09h-6.98v3.49h6.98v-3.49Z"/>
    <path class="cls-1" d="M19.2,15.71v2.64h3.49v-1.77h2.63v-3.49h-4.06c-1.14,0-2.06.92-2.06,2.06v.56h0Z"/>
    <path class="cls-1" d="M61.08,5.8c0,1.14-.92,2.06-2.06,2.06h-4.92v-2.2C54.1,2.53,51.57,0,48.45,0h-4.81v3.49h4.92c1.14,0,2.06.92,2.06,2.06v2.31h-13.08v3.49h6.1v2.31c0,1.14-.92,2.06-2.06,2.06h-6.36c-1.14,0-2.06-.92-2.06-2.06v-5.8h-3.49v5.69c0,3.13,2.53,5.66,5.66,5.66h6.14c3.12,0,5.66-2.53,5.66-5.66v-2.2h11.8c3.12,0,5.66-2.53,5.66-5.66V1.75h-3.49v4.05h0Z"/>
    <path class="cls-1" d="M23.56,5.8c0,1.14-.92,2.06-2.06,2.06H7.86v3.49h6.1v2.31c0,1.14-.92,2.06-2.06,2.06h-6.36c-1.14,0-2.06-.92-2.06-2.06v-5.8H0v5.69c0,3.13,2.53,5.66,5.66,5.66h6.14c3.13,0,5.66-2.53,5.66-5.66v-2.2h3.94c3.13,0,5.66-2.53,5.66-5.66V1.79h-3.49v4h0Z"/>
    <path class="cls-1" d="M72.03,0h-5.69v3.49h5.8c1.14,0,2.06.92,2.06,2.06v.25c0,1.14-.92,2.06-2.06,2.06h-5.8v3.49h5.69c3.12,0,5.66-2.53,5.66-5.66v-.03c0-3.13-2.53-5.66-5.66-5.66h0Z"/>
  </g>
</svg>