<?xml version="1.0" encoding="UTF-8"?>
<svg id="Layer_1" data-name="Layer 1" xmlns="http://www.w3.org/2000/svg" viewBox="0 0 349.94 500">
  <defs>
    <style>
      .cls-1 {
        fill: #ed145a;
      }
    </style>
  </defs>
  <path class="cls-1" d="M166.7.22C75.75,4.37,2.63,81.51.09,175.54c-1.12,36.23,8.49,72.05,27.74,103.18l144.63,219.94c.31.4.67.71,1.12.98.45.22.94.36,1.43.36s1.03-.09,1.43-.36c.45-.27.8-.58,1.12-.98l144.63-219.94c18.67-29.44,28.27-63.38,27.74-97.87.04-102.91-82.81-185.68-183.18-180.63h-.04ZM174.96,303.82c-66.02,0-119.44-55.3-119.44-123.55s53.42-123.55,119.44-123.55,119.44,55.3,119.44,123.55-53.42,123.55-119.44,123.55h0Z"/>
  <path class="cls-1" d="M201.67,89.42l-54.32,12.42c-.67.13-1.3.58-1.7,1.12-.4.58-.63,1.25-.63,1.92v146.95c0,.67.31,1.3.71,1.83s.98.98,1.61,1.25l54.32,11.88c.45.09.94.09,1.38,0s.89-.31,1.25-.63.67-.67.8-1.07c.22-.4.27-.89.27-1.34V92.37c0-.45-.09-.89-.31-1.3s-.45-.76-.8-1.03c-.36-.31-.76-.54-1.25-.63s-.94-.09-1.38,0h.04Z"/>
</svg>