<svg width="113" height="129" viewBox="0 0 113 129" fill="none" xmlns="http://www.w3.org/2000/svg">
<path d="M38.2267 11.164C42.8933 1.21734 56.1867 -3.02266 65.7733 2.33734C75.44 7.15067 79.4667 20.1773 74.2667 29.6173C71.52 35.4173 65.6667 38.7907 59.7067 40.444C59.72 43.6707 59.7067 46.9107 59.7067 50.1507C67.8267 46.1107 75.8533 41.8707 84.08 38.044C87.24 42.724 89.3867 48.0573 92.7867 52.564C99.0133 56.1507 106 58.2573 112.227 61.8707C112.187 62.484 112.12 63.6974 112.093 64.2974C105.2 85.5507 99.1733 107.124 91.6933 128.164C74.3867 129.057 57 128.284 39.6533 128.537C33.44 128.377 27.1867 128.964 21.0133 128.191C18.6267 123.151 17.4533 117.644 15.6133 112.404C10.4267 95.564 4.85333 78.8174 0 61.884C5.10667 59.4307 10.28 57.1507 15.44 54.844C22.9467 52.5107 24.0933 43.5773 28.5333 38.0707C36.7867 41.8973 44.84 46.124 53 50.124C53.0533 44.764 53.0933 39.404 52.9867 34.0573C57.9733 33.8973 63.5733 33.2173 66.76 28.8573C72.0533 22.8573 70.2267 12.5907 63.3067 8.65734C57.16 4.61734 48.1067 7.04401 44.64 13.4707C42.5467 16.924 43.5333 21.8307 39.7467 24.2307C34.0667 22.044 36.2533 15.324 38.2267 11.164ZM26.2533 54.724C32.3733 60.924 38.04 67.564 44.5733 73.3507C47.6133 67.8307 50.56 62.2573 53.3467 56.5907C45.9733 53.0307 38.4133 49.8573 31.1333 46.1107C29.4533 48.9507 27.8267 51.8174 26.2533 54.724ZM59.3333 56.604C62.08 62.2573 65.0667 67.7907 68 73.3507C74.56 67.6307 80.16 60.924 86.3733 54.8174C84.8133 51.884 83.1733 48.9907 81.5067 46.1107C74.2267 49.844 66.6667 52.9907 59.3333 56.604ZM7.58667 65.2307C13.4133 84.2707 19.2533 103.324 25.6133 122.204C45.4133 122.084 65.2 122.204 85 122.137C87.7067 122.711 87.9467 119.551 88.6667 117.817C93.9733 100.391 99.7333 83.0974 104.907 65.644C100.707 62.6707 95.5867 61.284 91.0133 58.9373C84.5333 65.6707 77.8933 72.244 71.36 78.924C69.84 80.484 66.9333 82.7774 65.1467 80.284C61.48 75.2174 59.36 69.2307 56.24 63.8307C54.0533 68.2973 51.9067 72.7907 49.5733 77.1774C48.5467 79.0174 47.3867 81.164 45.0933 81.5373C42.7067 80.5507 40.9467 78.604 39.1733 76.8307C33.4 70.804 27.4533 64.9507 21.6267 58.964C16.9467 61.0574 12.2667 63.1374 7.58667 65.2307Z" fill="#FF96A6"/>
</svg>
