<?xml version="1.0" encoding="UTF-8"?><svg id="Layer_1" xmlns="http://www.w3.org/2000/svg" viewBox="0 0 128 128"><defs><style>.cls-1{fill:#f90000;}</style></defs><path class="cls-1" d="M59.55,97.11c3.51-2.08,7.08-4.06,10.51-6.27,6.75-4.36,12.88-9.46,17.79-15.89,2.81-3.68,4.89-7.71,5.88-12.29,2.09-9.72-2.1-16.88-11.62-19.76-5.93-1.8-11.99-1.97-18.1-1.42-15.41,1.39-29.37,6.74-42.02,15.59-.35.25-.71.49-1.07.73-.06.04-.16,0-.53,0,.58-2.34.96-4.68,1.74-6.89,6.28-17.77,18.77-28.36,37.49-30.4,24.5-2.68,43.85,14.77,47.58,35.69,4.4,24.65-12.26,48.01-37,51.4-23.77,3.25-42.64-11.86-48.3-30.87-1.2-4.04-1.85-8.17-1.79-12.39,0-.68.07-1.2.8-1.57,10.09-5.07,20.67-8.26,32.06-8.3,4.26-.01,8.44.55,12.41,2.25,6.7,2.86,9.71,8.56,8.27,15.72-1.16,5.76-3.97,10.75-7.32,15.46-1.95,2.74-4.14,5.31-6.22,7.96-.25.32-.52.64-.77.96.07.1.15.2.22.3Z"/></svg>