<?xml version="1.0" encoding="utf-8"?>
<!-- Generator: Adobe Illustrator 27.9.0, SVG Export Plug-In . SVG Version: 6.00 Build 0)  -->
<svg version="1.1" id="Layer_1" xmlns="http://www.w3.org/2000/svg" xmlns:xlink="http://www.w3.org/1999/xlink" x="0px" y="0px"
	 viewBox="0 0 1080 1080" style="enable-background:new 0 0 1080 1080;" xml:space="preserve">
<style type="text/css">
	.st0{fill:#FFFFFF;}
</style>
<g>
	<g>
		<polygon points="224.17,646.11 224.86,833.04 198.5,833.04 197.81,673.16 127.17,837 51.37,673.16 51.71,833.04 43.62,833.04 
			42.93,646.11 71.18,646.11 137.51,789.97 200.91,646.11 		"/>
		<path d="M435.57,731.04c-2.87-26.76-13.64-47.98-32.3-63.66c-18.67-15.68-41.49-23.52-68.48-23.52c-29.63,0-53.7,9.94-72.19,29.81
			c-18.49,19.87-26.13,44.62-22.91,74.26c3.1,26.42,13.81,47.55,32.13,63.4c18.32,15.85,40.63,23.78,66.93,23.78
			c30.32,0,54.9-9.88,73.74-29.63C431.32,785.72,439.01,760.91,435.57,731.04z M393.36,795.31c-12.75,19.53-31.13,29.29-55.13,29.29
			c-20.91,0-37.67-7.87-50.31-23.6c-11.14-13.67-17.75-31.47-19.81-53.41c-2.99-24.46,1.49-45.6,13.44-63.4
			c12.75-19.75,30.9-29.63,54.44-29.63c21.36,0,38.36,7.75,51,23.26c11.25,13.67,18.09,31.53,20.5,53.58
			C410.24,755.85,405.53,777.16,393.36,795.31z"/>
		<path d="M595.1,721.57c-3.79-21.94-11.77-39.57-23.95-52.89c-13.9-15.05-31.59-22.57-53.07-22.57h-70.81l0.34,186.93h80.46
			c27.22,0,46.86-12.12,58.92-36.35C597.57,775.32,600.27,750.28,595.1,721.57z M565.81,788.24c-8.27,24.7-24.41,37.04-48.41,37.04
			h-43.42l-0.34-171.42h42.73c14.82,0,27.05,7.75,36.7,23.26c7.35,11.26,12.4,25.5,15.16,42.73
			C572.93,746.15,572.13,768.95,565.81,788.24z"/>
		<polygon points="634.9,646.11 635.25,833.04 610.61,833.04 609.92,646.11 		"/>
		<polygon points="780.48,646.45 781.52,837 657.82,678.15 658.16,833.04 650.41,833.04 649.55,646.11 662.99,646.11 773.08,783.94 
			772.73,646.11 		"/>
		<path d="M859.73,646.11l0.34,142.82c0,15.74-3.25,27.02-9.74,33.85c-6.49,6.83-17.72,10.25-33.68,10.25H793.4v-7.75
			c18.72,0,30.09-1.44,34.11-4.31c5.63-3.67,8.33-14.36,8.1-32.04V646.11H859.73z"/>
		<path d="M955.52,637.84l-85.8,195.2h9.13l24.12-55.48h87l25.5,55.48h26.36L955.52,637.84z M906.42,769.46l40.31-90.62l39.11,90.62
			H906.42z"/>
	</g>
	<g>
		<rect x="362.73" y="231.64" width="319.54" height="333.59"/>
		<g>
			<path class="st0" d="M664.97,251.19l1.09,295h-41.6l-1.09-252.32L511.89,552.45L392.26,293.88l0.54,252.32h-12.78l-1.09-295
				h44.59l104.68,227.03l100.05-227.03H664.97z"/>
		</g>
	</g>
</g>
</svg>
