<svg xmlns="http://www.w3.org/2000/svg" xmlns:cc="http://creativecommons.org/ns#" xmlns:dc="http://purl.org/dc/elements/1.1/" xmlns:rdf="http://www.w3.org/1999/02/22-rdf-syntax-ns#" xmlns:svg="http://www.w3.org/2000/svg" xml:space="preserve" width="2646" height="2646" viewBox="0 0 2646 2646" style=""><defs><linearGradient id="a" x1="0" x2="1" y1="0" y2="0" gradientTransform="scale(1454.55236 -1454.55236)rotate(-30 0 -1)" gradientUnits="userSpaceOnUse" spreadMethod="pad"><stop offset="0" style="stop-opacity:1;stop-color:#42bdb0"/><stop offset="0" style="stop-opacity:1;stop-color:#42bdb0"/><stop offset="0" style="stop-opacity:1;stop-color:#81d5d1"/><stop offset="0" style="stop-opacity:1;stop-color:#6acac3"/><stop offset="0" style="stop-opacity:1;stop-color:#6acac3"/><stop offset="0" style="stop-opacity:1;stop-color:#6acac3"/><stop offset="1" style="stop-opacity:1;stop-color:#45b9b1"/><stop offset="1" style="stop-opacity:1;stop-color:#41a8a1"/><stop offset="1" style="stop-opacity:1;stop-color:#41a8a1"/></linearGradient><linearGradient id="b" x1="0" x2="1" y1="0" y2="0" gradientTransform="scale(-84.1417 84.1417)rotate(60 -13 -9)" gradientUnits="userSpaceOnUse" spreadMethod="pad"><stop offset="0" style="stop-opacity:1;stop-color:#6acac3"/><stop offset="0" style="stop-opacity:1;stop-color:#6acac3"/><stop offset="1" style="stop-opacity:1;stop-color:#45b9b1"/><stop offset="1" style="stop-opacity:1;stop-color:#41a8a1"/><stop offset="1" style="stop-opacity:1;stop-color:#41a8a1"/></linearGradient><clipPath id="c" clipPathUnits="userSpaceOnUse"><path d="M0 1984h1984V0H0Z"/></clipPath></defs><g transform="matrix(1.33333 0 0 -1.33333 0 2646)"><path d="M0 0h1984v1984H0Z" style="fill:#fff;fill-opacity:1;fill-rule:nonzero;stroke:none"/><path d="M1299 1378v-2l-20-46-1-3v-11l4-7 8-12q16-22 22-48 3-13 2-27-1-12-10-22-8-9-20-13-18-6-37-8-14-1-28 2-15 4-26 13l-5 2q-4 2-7-2l-2-4-10-34q-3-7-3-16-1-10 6-19l4-5 1-2-4-2q-17-5-33-13-37-19-62-52-19-26-29-59-9-27-10-57v-40l5-41q2-4 1-9h-4l-19 1-19 2-22 3-26 4-40 8-69 18-94 24-84 22-18 5h-1l-3 1-13 3h-4c-49 11-138 26-229 22l-8-1-27-5q-34-6-65-20-27-10-53-25-21-12-39-28-23-22-38-50 1-2-2-3v-5l2 1 4 4 16 17q27 26 61 43 30 14 62 22 23 7 47 10h1l25 3 22 1q39 1 107-9h1l5-1 59-13 4-1 63-20q39-11 76-25l99-37q36-13 74-23l41-9 23-3 17-2 26-2q30-1 58 1l12 1q5 1 8-2l5-5 13-12q26-21 57-30l32-5 23-1h10q9 1 15-6l14-16q48-43 111-43 13-1 26 1l29 4q30 6 59 18l43 20 13 8 58 35q43 28 90 52l32 13 36 6q24 1 47-3l6-1 1 2 9 34 6 22v5l-2 1-14 1q-13 3-26 3h-19l-22-3q-30-6-56-19-30-14-57-30l-77-45-52-28q-26-12-55-20-14-5-29-6l-19-2h-26l-11 1-20 4c-12 3-9 1-19 10l-1 2h1l47 16q51 19 101 40l129 58 64 30q27 12 43 34 12 17 17 36l5 17 3 14q3 21-8 38l-15 17q-26 23-53 44-40 31-84 56l-20 9q-21 7-43 10l-24-1q-17-4-29-15-9-10-14-24-4-12-5-25l-4-21-1-3-6 4-7 6q-26 20-55 38l-41 26-6 4q-4 3-2 7l2 3 3 7 16 26q19 34 22 72v29q-3 20-11 39-11 22-28 40l-6 8h-1zm-219-527q-12 24-17 49-4 19-4 37 0 52 30 94 15 20 35 36 24 19 51 31l25 10 15 1q11 1 20-4 45-20 87-45l33-23 18-15 14-13q8-5 3-14l-14-23q-30-44-76-72l-34-19-22-11-2-1-2 4 3 14 7 16q12 21 32 37l24 17 35 20 3 2-1 1q-17-1-32-7-28-11-51-33-17-16-28-37l-9-22-5-12-1-3q-2-6-7-6l-10-3-34-7-20-2-24-2-34-1q-6 0-8 6m453 191-26 1q-12 1-23 5-18 8-31 21l-4 6-2 6q-1 6 4 10l6 2h18q24-1 47-9 25-9 46-24 51-36 99-74l9-8 5-7q3-6-1-12l-5-5-11-7-66-30-103-46-102-41q-35-14-71-24l-37-8-21-3h-24l-4 4v8q0 4 5 7l7 3q40 17 72 44 41 36 68 83 15 26 24 54 5 10 15 12l3 1 6-3q13-19 35-26l21-6 21-2 14-1q15 0 29 3l6 2q11 5 13 16 2 21 6 41v8h-15l-8-1z" style="fill:url(#a);stroke:none"/><path d="m1217 663-3-4-20-39-2-5q-1-5 3-7l5-4 36-22 4-2 2 2 6 12 21 38q4 5-2 9l-39 21-4 3h-3z" style="fill:url(#b);stroke:none"/><g clip-path="url(#c)"><path d="m75 112 1 1zm-45 4h-2zm-10 0h-2zm-22 1h-1v1zm-3 1h-2zm-8 0-1 1zm-19 13-1-3h-6l-5 1 1 3 4 10 4 12v2q3 2 3 5l3 7v1q-1 3 2 4v2l2 5h-1l-1-1v1h1l2 3v1l-2-2v2q4 3 3 7l2 3 1 3 3 4v2l4 7 6 10 7 9-1 2h1l1-2-2-10-14-43zm-3-7-2-6h-1v1l1-1-1 2h-9l2 5h3l7 1-1-1zm-15-37-14-26-1 4 3 10 1 2q0 5 2 9l3 10 1 2q4 4 2 10l4 6h9zm-16 1q0-2-3-3v1l2 3 1 7 1 1 1 3v-3l-2-5zm-3-7v2zm-3-7 2 5q2-1-2-5m0 47-3 1h-5v1h3l3 2q1-2 4-2l4 2q3-2 6-1 1-2-1-4zm17 2-1-2q-2 1 1 2m6 18v1zm2 6v-2h-1zM-79 45l2 6q1-4-2-6m-97 21-3 1v1l5 1zm-4-7-2-1zl-1 2-2-2-4-5v-2l-1-2-2-3-7-11-3 1 3 4v3l-1-1v2l4 6q3 5 8 8l6 4q3-2 0-4m-5-5 1 2 1-1zm-17-26 1 2q1-2-1-2m0 5-1-1zm279 82-5 2q-1 3-3 2l-22 5h-3v-2l1-1h4q2 1 3-1 5 1 8-1v-2l3 1 2-1 7-4 1-1-7 1v1h-4q-3 3-7 1h-2l-5 2h-1l-1-1-2 2-3-1h-1l-10 2H13l1-3-4 1-2 2q-1-2-3-2l-4 1 1 1-6 1q-2-1-4 1h-11q1 2 3 2l1 1-2 1q4 2 8 1h2l7-1 5-1q2 2 3 1l3-1 4 2c2-4 4-1 6-1l2-1 3-1q3 1 5-1h1q1 2 3 1l3-1 4 2-1 1-30 2-21 1-6 1 1 4 24 66q3 4 2 10l1 2q3 6 2 13l-1 4-11 8q-4 2-7-2l-16-22-12-24-17-38-3-10-2-4-2-7q-2-3-3-1l-3-1v-2h-1q-2 3-3 1h-2l-6 1h-10q-1-2-4-1h-31q-11 0-22 3l-3-1q-3-7 0-13 0-2 3-2l8-2 5-1 27 1h1l17 2 19 1h2l-2-7-2-8-3-11-5-19q0-3-3-3l-14-3q-12-2-24 1-8 1-14 5-4 4-9 4-12 5-26 5-10-1-17-7l-8-7-6-7-2-1q1 9 4 16-5 4-10 5l-10 2-28-109 13-13 3 2 8 9 4 14 2 4 10 20 12 24q7 14 18 24 7 8 19 12h5l10-5q14-7 29-11 9-2 18-1l10 2h2l-4-17q-2-3-5-1 0 2-2 3l-3-3 2-10q1-4 4-6v-2l-1-8-2-21q-1-14 2-29 2-10 8-19l7-5 8-1 8 2 6 3 13 12 24 26v1l2 3L-2-5l1 2h-1l-1 1h1l1 1 1 1h-2l2 2 3 4 4 8 4 6 4 6h-1l-3-5-1-1-2-2-7-9V6q-4 0-5-3-12-18-29-34l-3-2-1-1-3-3-2-1-4-4-2-1 2 2 9 11q14 13 26 29l3 3 8 10 7 7 1 2 2 3 9 14-1-1-6-6-8-11-8-10-12-14-7-9-7-7-3-5-1-1-12-11-13-12q-5-4-12-6-3-2-6 1l-2 5q-3 12-1 23v19l1 3 2 3v6l1 4v6q0 3 3 5l2 3q7 6 11 15l6 12 3 5 14 29 4 7 1 3 1 3 2 2 1 1v2q3 4 4 9l2 3H3q6 1 12-1l1-1 6 1 7-1 4-1 4 1h3l17-4 11-3 2-1-4-2q1-2 4-2h5l2-1q6 7 0 16" style="fill:#585556;fill-opacity:1;fill-rule:nonzero;stroke:none" transform="translate(878 971)"/><path d="m0 0 2 1 1-3z" style="fill:#585556;fill-opacity:1;fill-rule:nonzero;stroke:none" transform="translate(721 1062)"/><path d="M0 0q-1-1-3 1v1q2 0 3-2" style="fill:#585556;fill-opacity:1;fill-rule:nonzero;stroke:none" transform="translate(642 1062)"/><path d="M0 0q-4-1-2 2z" style="fill:#585556;fill-opacity:1;fill-rule:nonzero;stroke:none" transform="translate(646 1062)"/><path d="M0 0h-1v1z" style="fill:#585556;fill-opacity:1;fill-rule:nonzero;stroke:none" transform="translate(883 1089)"/><path d="M0 0v2h1z" style="fill:#585556;fill-opacity:1;fill-rule:nonzero;stroke:none" transform="translate(641 1068)"/><path d="M0 0h3z" style="fill:#585556;fill-opacity:1;fill-rule:nonzero;stroke:none" transform="translate(925 1088)"/><path d="M0 0v1z" style="fill:#585556;fill-opacity:1;fill-rule:nonzero;stroke:none" transform="translate(885 1090)"/><path d="m0 0 1 1z" style="fill:#585556;fill-opacity:1;fill-rule:nonzero;stroke:none" transform="translate(878 971)"/><path d="M0 0" style="fill:#585556;fill-opacity:1;fill-rule:nonzero;stroke:none" transform="translate(937 1088)"/><path d="m0 0 1-1z" style="fill:#585556;fill-opacity:1;fill-rule:nonzero;stroke:none" transform="translate(920 1093)"/><path d="M0 0" style="fill:#585556;fill-opacity:1;fill-rule:nonzero;stroke:none" transform="translate(897 1002)"/><path d="M0 0" style="fill:#585556;fill-opacity:1;fill-rule:nonzero;stroke:none" transform="translate(924 1091)"/><path d="M0 0" style="fill:#585556;fill-opacity:1;fill-rule:nonzero;stroke:none" transform="translate(933 1090)"/><path d="M0 0" style="fill:#585556;fill-opacity:1;fill-rule:nonzero;stroke:none" transform="translate(774 1098)"/><path d="m0 0 1 7 3-1q1-2-1-4 0-2-3-2" style="fill:#585556;fill-opacity:1;fill-rule:nonzero;stroke:none" transform="translate(519 1194)"/><path d="M0 0q-2 4-1 8 3-1 2-3z" style="fill:#585556;fill-opacity:1;fill-rule:nonzero;stroke:none" transform="translate(484 1119)"/><path d="M0 0v5l2 2q1-4-2-7" style="fill:#585556;fill-opacity:1;fill-rule:nonzero;stroke:none" transform="translate(490 1134)"/><path d="M0 0q0-3-3-5l-1 1 2 2z" style="fill:#585556;fill-opacity:1;fill-rule:nonzero;stroke:none" transform="translate(628 1376)"/><path d="m0 0-1-1h-1l-1 1 1 2h1z" style="fill:#585556;fill-opacity:1;fill-rule:nonzero;stroke:none" transform="translate(640 1385)"/><path d="m0 0 1 5q3-2-1-5" style="fill:#585556;fill-opacity:1;fill-rule:nonzero;stroke:none" transform="translate(573 1297)"/><path d="M0 0q3-1 0-3z" style="fill:#585556;fill-opacity:1;fill-rule:nonzero;stroke:none" transform="translate(487 1131)"/><path d="M0 0" style="fill:#585556;fill-opacity:1;fill-rule:nonzero;stroke:none" transform="translate(632 1378)"/><path d="M0 0q1 8 7 14v-2L5 8z" style="fill:#585556;fill-opacity:1;fill-rule:nonzero;stroke:none" transform="translate(516 1118)"/><path d="m0 0 1 2 6 12q1-3-1-5-2-7-6-9" style="fill:#585556;fill-opacity:1;fill-rule:nonzero;stroke:none" transform="translate(539 1163)"/><path d="M0 0v-4l-3-3q-1 3 3 7" style="fill:#585556;fill-opacity:1;fill-rule:nonzero;stroke:none" transform="translate(551 1186)"/><path d="M0 0c1-3 1-3-3-8v3l1 2z" style="fill:#585556;fill-opacity:1;fill-rule:nonzero;stroke:none" transform="translate(529 1146)"/><path d="M0 0q-1 2 1 2h2z" style="fill:#585556;fill-opacity:1;fill-rule:nonzero;stroke:none" transform="translate(587 1062)"/><path d="m0 0 1-1-2-1v1z" style="fill:#585556;fill-opacity:1;fill-rule:nonzero;stroke:none" transform="translate(513 1060)"/><path d="M0 0" style="fill:#585556;fill-opacity:1;fill-rule:nonzero;stroke:none" transform="translate(568 1062)"/><path d="M0 0" style="fill:#585556;fill-opacity:1;fill-rule:nonzero;stroke:none" transform="translate(501 1057)"/><path d="m0 0-1 1 1 1 1-1z" style="fill:#585556;fill-opacity:1;fill-rule:nonzero;stroke:none" transform="translate(543 1205)"/><path d="M0 0h2L1-2z" style="fill:#585556;fill-opacity:1;fill-rule:nonzero;stroke:none" transform="translate(554 1228)"/><path d="m0 0 1 4 2-1V2Q2 0 0 0" style="fill:#585556;fill-opacity:1;fill-rule:nonzero;stroke:none" transform="translate(607 1099)"/><path d="m0 0-1-2-1 1 1 5z" style="fill:#585556;fill-opacity:1;fill-rule:nonzero;stroke:none" transform="translate(591 998)"/><path d="M0 0v-3q-3 1 0 3" style="fill:#585556;fill-opacity:1;fill-rule:nonzero;stroke:none" transform="translate(598 1051)"/><path d="m0 0-1-1-2 1h-3l4 4 1-1q-1-1 1-3" style="fill:#585556;fill-opacity:1;fill-rule:nonzero;stroke:none" transform="translate(690 1021)"/><path d="M0 0q1-3-2-3z" style="fill:#585556;fill-opacity:1;fill-rule:nonzero;stroke:none" transform="translate(686 1018)"/><path d="M0 0q-1 2 1 2z" style="fill:#585556;fill-opacity:1;fill-rule:nonzero;stroke:none" transform="translate(682 1011)"/><path d="M0 0v-1h-1z" style="fill:#585556;fill-opacity:1;fill-rule:nonzero;stroke:none" transform="translate(682 1012)"/><path d="M0 0" style="fill:#585556;fill-opacity:1;fill-rule:nonzero;stroke:none" transform="translate(681 1015)"/><path d="M0 0" style="fill:#585556;fill-opacity:1;fill-rule:nonzero;stroke:none" transform="translate(835 1092)"/><path d="M0 0" style="fill:#585556;fill-opacity:1;fill-rule:nonzero;stroke:none" transform="translate(812 1092)"/><path d="m0 0-22-1-3-10-1-2-3-11 6-3 13-1h1l1 1q8 10 20 10l2 1 6 16zm260 152q-1-2-3 1zm-6 0q-6-2-10 1c3 2 4 2 11 0zm-14 0-1 1 1 1 2-1zm-22 70q0 6 2 10 1-7-2-10m-4 20-5-21-1-4v4l-2-2v-6l1-6q0-3-3-5l-1-2 1-1v-4q-2-4-1-9l-1-5-2-12-2-6-4-3v3l7 35 10 47 1 5 3 1v5a82 82 0 0 0 6 28l1 1v-6zm0-36 1 6 1-1q0-3-2-5M173 44v3l8 43 3 27 1 3 3-3-1-10-3-19-1-8-1-9-1-5-2 3-2-10h3l-1-2-4-32h-3v2zm5 95-9 2h-4q-4 2-7-1l-8 2-1-5q-2 0-2 2-1 2-3 1l-3-2-9 1h-9l-1-2-2 1q-6 3-10-1h-8q-4 0-7 2l-4-1h-4l-1 2-5-4-2 6 7 2 13 2 14 1h2l1 3h3l21 1 26 2 14 1h4q0-9-3-15zm15 2-2 4 1 5q0 4 4 4zm-1-8-1-6-3-8q-2 9 0 18h4zm1-101 1 2-2-5zM90 167l-1-1v2l2 4 1-4 13 25 1 2-3-1 1 2 9 21 11 21 16 34 3 8 4 3 3 10h2l12 19 6 15 1 6 6 3 4 8 8 15 6 9 7 16 2 2 9 14 2 4 2 5h4v1q7 15 18 27l8 10 2 2 1-2-1-7-1-4q-4-8-5-17-6-33-16-67l-3-11-13-61-17-83-7-34-1-3h-2l-35-2-30-2-17-1-12-1h-3l4 13zm9 20v-1l-4-9q-1 6 4 10m8 54 2 2-3-11q-1-2-4-2 1 6 5 11m10 7-2-3v1q0 2 2 2m1 14 1 2 1-3-1-1zm3 3h1v-2zm5 2q0-3-2-4zm45 79 1 1zm-37-60-2-2v1l2 2 1 5-1 1 1 3 10 12 2 2v2q10 18 17 37 0 2 2 3l3-2v4l3 6 7 11 5 11 9 11 1 2 2 5 7 9 11 14v2l1 2q0 4 4 6l2 1q3 8 9 13l2-3q2 8 7 15l1-1-5-11q-1-5-6-7l-1-2-8-9q-4-5-6-11-7-2-5-9h1v-1l-5-6-6-8q-4-6-5-12v-3l-10-4-2-12h-1l-3-1-1-4v-2q-3-2-5-6l-4-7 3-1q-1-4-4-4l-3-1v-9l-3-4-8-14-7-14-3-5h-3q0-5-4-10l-2-8-4-1 2 5 3 7zm107 170v-1l-1-1h-1zm8-61q1-2-2-4l1 7q2-1 1-3m-11-47-3-5-1-1 3 10zm-6-20-1-8-3-16-2-9-1 5 2 11 5 20 1 4v1q1-4-1-8M186-41v5zm-1-22h-1l-1 1 1 4 1-1zm0-33-1 4q-1 3 1 7zm-15 70-2-10v-5q1-16-1-32v-1c-2 7-1 36 1 51l2-1zM49 139v1zm-8-21-5-11-10-21-2-2 1 3 4 12 8 18q1 3 4 3zm211 296q1-3-1-6l-1 2zm63-263q-12 6-24 5l-2 2-5-1-2 1q-4-1-5 2h-2v-4l-1 2-2 1q-2-5-6-2l2 2h-7l-7 1h-14l-7 1h-7l-7 1 1 4 3 8 4 26 1 4 2 5 12 54 15 71 2 7 3 12 1 6 10 40q6 18 7 37a128 128 0 0 1-4 39l-5 3q-2 3-4 2l-4 5-3 2h-4l-6-1q-6-2-9-7l-10-17-1-2q-3 0-4-3l-3-3-2-2-12-19-9-17-1-1h-3v-1q0-5-3-7l-4-5-5-8q-6-9-8-19h-3l-23-42-2-1v-1q-1-7-5-13l-5-10-2-2-4-3-4-8-4-11-1-4-5-8q-5-6-7-13l-2-1q-5-4-6-9v-4q-4-2-4-6l-1-5-2-3h-1l-2 1q-2-12-7-22l-2 2v-1l-11-28-10-20-5-10-2-1-3-1v2l6 14 6 16 2 7v3l-3-5-4-4-5-4q1-7-2-13v-1l-3-10-8-4-19-4-22-3-39-4h-14q-4-3-5-8-1-15 11-25h3l1 1 3 1q18 1 34 4l21 3 13 1-1-2-3-7-1-3q-1-6-7-8L-8 36h-1l44 1 1 4 1 2 11 26 23 52 1 2 16 3q10 0 20 3l10 1 14 1 9 1 23 3 8-1 9 1v-2l-5-30-4-29-4-26-1-16-1-5v-2l-4-45v-11l-1-14v-16q-2-20 1-40 4-24 13-47l2-3 5-1q10-20 31-31 3 3 6 1 5-2 6 2 4-2 7 1l6 6 1 2 6 20 4 11 4 13q1 2-2 4l-3-3-4-5-8-11-2-2-8-7-6-4q-5-3-11-2l-1 1q-6 9-9 17-8 21-9 42l1 30 1 27 5 60v3l1 7v3l1 2 5 32 4 28 5 32 5 24 1 3 8 1 5 1q3 0 4-3l2-2q2-3 5-3h20q10 1 20-2h1l4 3 1-2 22-2v3l9-4h2z" style="fill:#585556;fill-opacity:1;fill-rule:nonzero;stroke:none" transform="translate(408 918)"/><path d="M0 0" style="fill:#585556;fill-opacity:1;fill-rule:nonzero;stroke:none" transform="translate(432 1001)"/><path d="M0 0" style="fill:#585556;fill-opacity:1;fill-rule:nonzero;stroke:none" transform="translate(432 1002)"/><path d="M0 0" style="fill:#585556;fill-opacity:1;fill-rule:nonzero;stroke:none" transform="translate(457 1056)"/><path d="m0 0-1-5q2-15 0-31v-1c-2 6-1 35 1 50h2v-3z" style="fill:#585556;fill-opacity:1;fill-rule:nonzero;stroke:none" transform="translate(576 881)"/><path d="m0 0 1-1z" style="fill:#585556;fill-opacity:1;fill-rule:nonzero;stroke:none" transform="translate(580 1264)"/><path d="m0 0 1-12-2 5z" style="fill:#585556;fill-opacity:1;fill-rule:nonzero;stroke:none" transform="translate(592 833)"/><path d="m0 0-2-1v6l2-1z" style="fill:#585556;fill-opacity:1;fill-rule:nonzero;stroke:none" transform="translate(594 855)"/><path d="M0 0v5z" style="fill:#585556;fill-opacity:1;fill-rule:nonzero;stroke:none" transform="translate(594 877)"/><path d="m0 0 2 6z" style="fill:#585556;fill-opacity:1;fill-rule:nonzero;stroke:none" transform="translate(601 946)"/><path d="M0 0" style="fill:#585556;fill-opacity:1;fill-rule:nonzero;stroke:none" transform="translate(643 1259)"/><path d="M0 0" style="fill:#585556;fill-opacity:1;fill-rule:nonzero;stroke:none" transform="translate(719 1066)"/></g></g></svg>