<?xml version="1.0" encoding="utf-8"?>
<!-- Generator: Adobe Illustrator 28.4.1, SVG Export Plug-In . SVG Version: 6.00 Build 0)  -->
<svg version="1.1" id="Layer_1" xmlns="http://www.w3.org/2000/svg" xmlns:xlink="http://www.w3.org/1999/xlink" x="0px" y="0px"
	 viewBox="0 0 192 192" style="enable-background:new 0 0 192 192;" xml:space="preserve">
<style type="text/css">
	.st0{fill:#FE5722;}
</style>
<g>
	<g>
		<g>
			<path class="st0" d="M55.5,57.7v5.6H44.9v29.1h-7.1V63.3H27.2v-5.6C27.2,57.7,55.5,57.7,55.5,57.7z"/>
			<path class="st0" d="M80.5,92.4l-2.4-7.3H65.6l-2.4,7.3h-7.6l12.8-34.7h6.6l13,34.7H80.5z M67.5,79.6h8.8l-4.5-13.4L67.5,79.6z"
				/>
			<path class="st0" d="M107.6,80.1h-6.4v12.4h-7.1V57.7h13.5c2.8,0,5,0.5,7,1.5c1.9,1,3.4,2.3,4.5,4s1.6,3.7,1.6,5.8
				c0,3.3-1.1,6.1-3.4,8C114.8,79.1,111.6,80.1,107.6,80.1z M107.6,63.3h-6.4v11.1h6.4c2.1,0,3.6-0.5,4.5-1.5c0.9-1,1.4-2.3,1.4-3.8
				s-0.5-2.9-1.4-4.1C111,63.9,109.5,63.3,107.6,63.3z"/>
			<path class="st0" d="M144.8,83.4c0-0.8-0.2-1.6-0.6-2.2s-1-1.1-1.9-1.7c-1-0.6-2.4-1.1-4.4-1.7c-2.1-0.7-4-1.5-5.8-2.4
				c-1.7-0.9-3.2-2.1-4.2-3.4c-1-1.4-1.6-3-1.6-5c0-1.9,0.6-3.6,1.6-5c1.1-1.5,2.6-2.5,4.6-3.4c1.9-0.8,4.1-1.3,6.6-1.3
				s4.8,0.5,6.6,1.4c1.9,0.9,3.4,2.2,4.5,3.8s1.6,3.4,1.6,5.5h-7.1c0-1.5-0.5-2.8-1.4-3.8s-2.4-1.5-4.4-1.5c-1.8,0-3.3,0.5-4.2,1.3
				s-1.4,1.8-1.4,3s0.6,2.2,1.7,3s2.9,1.5,5.2,2.3c3.8,1.1,6.6,2.6,8.6,4.4s3,4,3,6.9c0,3-1.1,5.4-3.4,7.1c-2.3,1.7-5.4,2.5-9.2,2.5
				c-1.7,0-3.4-0.2-5-0.7c-1.7-0.5-3.2-1.1-4.6-2.1c-1.4-0.9-2.4-2.1-3.2-3.6c-0.8-1.4-1.3-3.1-1.3-5h7.2c0,2.2,0.7,3.7,1.9,4.6
				s3,1.4,5,1.4c1.8,0,3.2-0.3,4.1-1.1C144.4,85.6,144.8,84.5,144.8,83.4z"/>
			<path class="st0" d="M165,57.7v34.7h-7.1V57.7H165z"/>
		</g>
		<g>
			<path class="st0" d="M46.7,126.9c0-0.8-0.2-1.6-0.6-2.2s-1-1.1-1.9-1.7c-1-0.6-2.4-1.1-4.4-1.7c-2.1-0.7-4-1.5-5.8-2.4
				c-1.7-0.9-3.2-2.1-4.2-3.4c-1-1.4-1.6-3-1.6-5c0-1.9,0.6-3.6,1.6-5c1.1-1.5,2.6-2.5,4.6-3.4c1.9-0.8,4.1-1.3,6.6-1.3
				s4.8,0.5,6.6,1.4c1.9,0.9,3.4,2.2,4.5,3.8c1,1.6,1.6,3.4,1.6,5.5h-7.1c0-1.5-0.5-2.8-1.4-3.8s-2.4-1.5-4.4-1.5
				c-1.8,0-3.3,0.5-4.2,1.3s-1.4,1.8-1.4,3s0.6,2.2,1.7,3s2.9,1.5,5.2,2.3c3.8,1.1,6.6,2.6,8.6,4.4c1.9,1.7,3,4,3,6.9
				c0,3-1.1,5.4-3.4,7.1c-2.3,1.7-5.4,2.5-9.2,2.5c-1.7,0-3.4-0.2-5-0.7c-1.7-0.5-3.2-1.1-4.6-2.1s-2.4-2.1-3.2-3.6
				c-0.8-1.4-1.3-3.1-1.3-5h7.2c0,2.2,0.7,3.7,1.9,4.6c1.3,0.9,3,1.4,5,1.4c1.8,0,3.2-0.3,4.1-1.1C46.4,129.1,46.7,128.2,46.7,126.9
				z"/>
			<path class="st0" d="M66.9,101.4v14.1h14v-14.1H88v34.7h-7.1v-15h-14v15h-7.1v-34.7H66.9z"/>
			<path class="st0" d="M123.4,117.9v1.6c0,3.6-0.6,6.5-1.8,9.1s-3,4.5-5.2,5.8c-2.2,1.4-4.8,2.1-7.7,2.1c-2.9,0-5.5-0.7-7.7-2.1
				c-2.2-1.4-4-3.3-5.3-5.8s-1.8-5.6-1.8-9.1v-1.6c0-3.6,0.6-6.5,1.8-9.2c1.3-2.5,3-4.5,5.2-5.8s4.8-2.1,7.7-2.1
				c3,0,5.5,0.7,7.7,2.1c2.2,1.4,4,3.3,5.2,5.8C122.8,111.4,123.4,114.3,123.4,117.9z M116.2,119.5v-1.7c0-3.7-0.7-6.4-1.9-8.4
				c-1.4-1.9-3.2-2.9-5.6-2.9s-4.2,0.9-5.6,2.9c-1.3,1.9-1.9,4.7-1.9,8.4v1.7c0,3.7,0.7,6.4,1.9,8.4c1.4,1.9,3.2,3,5.6,3
				s4.2-1,5.6-3C115.5,126,116.2,123.2,116.2,119.5z"/>
			<path class="st0" d="M142.8,123.7h-6.4v12.4h-7.1v-34.7h13.5c2.8,0,5,0.5,7,1.5c1.9,1,3.4,2.3,4.5,4s1.6,3.7,1.6,5.8
				c0,3.3-1.1,6.1-3.4,8C150,122.7,146.9,123.7,142.8,123.7z M142.8,107h-6.4v11.1h6.4c2.1,0,3.6-0.5,4.5-1.5c0.9-1,1.4-2.3,1.4-3.8
				s-0.5-2.9-1.4-4.1C146.3,107.6,144.8,107,142.8,107z"/>
		</g>
	</g>
</g>
</svg>
