<?xml version="1.0" encoding="UTF-8"?>
<svg id="Layer_1" xmlns="http://www.w3.org/2000/svg" version="1.1" viewBox="0 0 28.35 28.35">
  <!-- Generator: Adobe Illustrator 29.8.2, SVG Export Plug-In . SVG Version: 2.1.1 Build 3)  -->
  <defs>
    <style>
      .st0 {
        fill: #d6ad60;
      }
    </style>
  </defs>
  <g id="Layer_1-2">
    <path class="st0" d="M27.38,18.33c-.7,6.67-9.12,8.99-13.11,3.61-.06-.08-.1-.08-.17-.01-.11.12-.22.25-.33.38-2.02,2.5-5.29,3.24-8.25,2.1-4.18-1.38-5.9-7.02-3.44-10.6.43-.67.99-1.24,1.55-1.81.08-.08.16-.18.24-.26.08-.07.12-.07.21,0,1.55,1.51,3.06,3.08,4.62,4.59.42.4.88.86.8,1.49-.05.7-.76,1.25-1.45,1.15-.21-.02-.4-.1-.57-.22-1.18-1.03-2.19-2.25-3.37-3.28-1.93,3.34,1.25,7.72,5.03,6.77,1.94-.38,3.52-1.97,3.68-3.97.09-.77.04-1.57-.26-2.29-.38-1.04-1.23-1.75-2-2.5-.68-.68-1.37-1.36-2.05-2.05-.64-.64-1.32-1.28-1.57-2.18-.97-2.86,1.09-5.74,4.09-5.83,1.14.01,2.23.46,3.07,1.23.03.03.06.03.1,0,.09-.07.19-.14.28-.22.98-.86,2.39-1.15,3.65-.89,3.12.54,4.54,4.49,2.56,6.95-1.09,1.27-2.36,2.38-3.52,3.58-.56.49-1.07,1.04-1.34,1.74-.83,1.87-.25,4.2,1.34,5.48,3.51,2.84,8.66-.48,7.46-4.84-.05-.1-.31-1.16-.48-.95-.78.73-1.51,1.51-2.28,2.26-.51.45-.93,1.18-1.68,1.21-1.08.1-1.77-1.31-1.07-2.1,1.58-1.66,3.23-3.24,4.84-4.87.08-.08.16-.16.24-.23.12-.11.18-.11.3,0,.14.12.27.25.4.39,1.72,1.57,2.65,3.85,2.48,6.18h0ZM19.02,7.68c.02-1.22-1.52-2.05-2.56-1.47-.83.51-1.4,1.36-2.15,1.98-.15.14-.31,0-.42-.12-.79-.68-1.65-2.03-2.75-2.05-.79-.01-1.59.51-1.8,1.29-.41,1.31.83,1.95,1.57,2.81,1.03,1.03,2.07,2.04,3.05,3.11.23.25.25.15.45-.06,1.05-1.14,2.15-2.24,3.27-3.32.61-.61,1.38-1.22,1.34-2.18h0Z"/>
  </g>
</svg>