<?xml version="1.0" encoding="UTF-8"?>
<svg version="1.1" xmlns="http://www.w3.org/2000/svg" width="522" height="531">
<path d="M0 0 C0.86368698 -0.00861557 1.72737396 -0.01723114 2.61723328 -0.02610779 C5.47624556 -0.04883748 8.33428329 -0.04201655 11.19335938 -0.03295898 C13.17728976 -0.03819127 15.16121766 -0.04446629 17.1451416 -0.05174255 C21.30472513 -0.06215954 25.46396683 -0.05756634 29.62353516 -0.04296875 C34.96064695 -0.02577425 40.2966829 -0.04927772 45.63367462 -0.08445835 C49.73088754 -0.10639149 53.82784137 -0.10500088 57.9250946 -0.09669304 C59.89313436 -0.09587137 61.86119274 -0.1027758 63.82917786 -0.11746407 C66.57820285 -0.13483593 69.32527337 -0.12043017 72.07421875 -0.09765625 C72.89093552 -0.10934845 73.70765228 -0.12104065 74.54911804 -0.13308716 C76.81774902 -0.09474182 76.81774902 -0.09474182 80.53710938 0.53344727 C83.21249961 3.60630369 84.2129256 7.1443908 85.39282227 11.01025391 C85.73009842 12.10334869 86.06737457 13.19644348 86.41487122 14.32266235 C86.77618637 15.51757294 87.13750153 16.71248352 87.50976562 17.94360352 C87.90443629 19.23101142 88.29973341 20.51822741 88.69560242 21.80526733 C89.55206146 24.59411545 90.40438344 27.38418228 91.25354004 30.17526245 C92.61712473 34.65681245 93.98984038 39.13553164 95.36425781 43.61376953 C96.83929964 48.4210588 98.31387947 53.22848596 99.78561401 58.03678894 C105.34616689 76.20067827 110.96728093 94.3457602 116.58932495 112.49069214 C118.51532226 118.70699209 120.44000961 124.92369745 122.36341 131.14080143 C123.65033206 135.30003465 124.93901128 139.45870403 126.23204041 143.61604309 C128.35092291 150.4334096 130.46337951 157.2514784 132.49883652 164.09430218 C133.10974016 166.14673019 133.72563675 168.1975927 134.34307861 170.24806213 C135.08017853 172.70293428 135.80724115 175.16085498 136.52166748 177.62242126 C138.59866902 184.49879596 140.73625306 190.33399227 146.38867188 195.09204102 C152.04316623 197.89437853 157.30107277 198.61977811 163.53710938 197.53344727 C175.1919489 193.41054778 181.92628276 185.91648361 188.72460938 175.97094727 C189.23185547 175.24198242 189.73910156 174.51301758 190.26171875 173.76196289 C193.06841122 169.71755909 195.81992133 165.63841155 198.53710938 161.53344727 C199.19710938 161.86344727 199.85710937 162.19344727 200.53710938 162.53344727 C190.04764627 185.65748555 177.49509854 206.39535057 159.99804688 224.92016602 C157.87274903 227.17702992 155.84986302 229.4791313 153.84960938 231.84594727 C150.39409068 235.81490388 146.56822758 239.16259842 142.53710938 242.53344727 C141.68632812 243.27208008 140.83554687 244.01071289 139.95898438 244.77172852 C125.60743828 257.0646512 109.88468884 267.11434331 93.53710938 276.53344727 C92.84407715 276.93563477 92.15104492 277.33782227 91.43701172 277.75219727 C89.62386429 278.79787729 87.8026525 279.82658353 85.97460938 280.84594727 C84.98332031 281.39895508 83.99203125 281.95196289 82.97070312 282.52172852 C80.53710938 283.53344727 80.53710938 283.53344727 77.53710938 282.53344727 C76.67900085 280.802948 76.67900085 280.802948 75.98510742 278.49780273 C75.71517471 277.62327957 75.445242 276.74875641 75.16712952 275.84773254 C74.73732033 274.38891914 74.73732033 274.38891914 74.29882812 272.90063477 C73.82847389 271.35958321 73.82847389 271.35958321 73.34861755 269.78739929 C72.29620231 266.33100752 71.26078935 262.86973744 70.22460938 259.40844727 C69.48821399 256.98216002 68.75039074 254.55630574 68.01123047 252.13085938 C66.82013195 248.22073368 65.62976288 244.31041329 64.44500732 240.39836121 C59.98284807 225.66691248 55.43691715 210.96153474 50.88066387 196.25895691 C49.4088969 191.50954047 47.94037089 186.75914044 46.4748888 182.00778103 C45.5515643 179.01555063 44.62623408 176.02394306 43.7004261 173.03248024 C43.2698113 171.63972348 42.83998103 170.24672387 42.41100883 168.85346031 C40.30068394 162.00148427 38.15911507 155.20826457 35.53710938 148.53344727 C26.54725595 176.91529215 17.64724262 205.32228027 8.91210938 233.78344727 C2.02504435 256.22123736 -4.90168176 278.64616167 -11.87565994 301.05709839 C-14.02907904 307.97739964 -16.18155162 314.89799543 -18.33398438 321.81860352 C-18.57635267 322.5978632 -18.81872097 323.37712288 -19.06843376 324.17999649 C-25.0260492 343.33600946 -30.97077448 362.49601399 -36.90740967 381.65853882 C-38.05922355 385.37623489 -39.21179011 389.09369624 -40.36505127 392.8109436 C-41.72256925 397.18666433 -43.07856886 401.56285279 -44.43343925 405.939394 C-44.93003813 407.54268055 -45.42714396 409.14581019 -45.92482185 410.74876213 C-48.62917563 419.4605422 -51.25306471 428.18103755 -53.67549133 436.97589111 C-54.46289062 439.53344727 -54.46289062 439.53344727 -55.46289062 440.53344727 C-58.26278782 440.62864094 -61.03795237 440.65898671 -63.83813477 440.64697266 C-65.15508583 440.6471917 -65.15508583 440.6471917 -66.49864197 440.64741516 C-69.41513497 440.64671571 -72.33156496 440.63892182 -75.24804688 440.63110352 C-77.26443955 440.62923945 -79.28083267 440.62781549 -81.29722595 440.6268158 C-86.615542 440.62298971 -91.93383093 440.61315865 -97.25213623 440.60211182 C-102.6745975 440.59189964 -108.09706314 440.58731859 -113.51953125 440.58227539 C-124.16732965 440.57153646 -134.81510789 440.55445896 -145.46289062 440.53344727 C-144.90569028 436.1075271 -144.1262772 431.98880359 -142.78320312 427.73657227 C-142.43703949 426.63104507 -142.09087585 425.52551788 -141.73422241 424.38648987 C-141.35593292 423.19748581 -140.97764343 422.00848175 -140.58789062 420.78344727 C-140.18745151 419.51093699 -139.78753154 418.23826325 -139.38809204 416.96543884 C-138.53318145 414.24453788 -137.67502697 411.52469061 -136.81427002 408.80563354 C-135.44193985 404.47002586 -134.07733298 400.13201272 -132.71435547 395.79345703 C-132.25045893 394.31697046 -131.78656123 392.84048425 -131.32266235 391.36399841 C-131.0922588 390.63062193 -130.86185524 389.89724545 -130.62446976 389.14164543 C-129.92101247 386.90339469 -129.2168651 384.66536208 -128.51254272 382.42738342 C-124.32627196 369.12233526 -120.19740118 355.79989913 -116.08789062 342.47094727 C-114.70537807 337.99038593 -113.32241982 333.5099622 -111.93945312 329.02954102 C-111.58691467 327.88717987 -111.23437622 326.74481873 -110.87115479 325.56784058 C-106.31858019 310.81962581 -101.74639956 296.07748389 -97.17624664 281.33470917 C-90.18194455 258.77133194 -83.19406783 236.20599599 -76.22119141 213.63598633 C-68.7429524 189.43077714 -61.2509722 165.22982665 -53.75878906 141.02893066 C-47.6006748 121.13718987 -41.44415981 101.24496602 -35.29931641 81.34912109 C-33.934529 76.93054789 -32.56834596 72.51241072 -31.20068359 68.09472656 C-30.55108173 65.99618288 -29.90150451 63.89763157 -29.25195312 61.79907227 C-28.78273941 60.28323296 -28.78273941 60.28323296 -28.30404663 58.73677063 C-26.33493852 52.36966443 -24.3792661 45.99856491 -22.43151855 39.62489319 C-21.12969541 35.36867665 -19.82177468 31.11434824 -18.51281738 26.86032104 C-17.90434015 24.87726908 -17.29870927 22.89334112 -16.69616699 20.90847778 C-15.87825827 18.21477633 -15.0506424 15.52424322 -14.22070312 12.83422852 C-13.86569229 11.65114105 -13.86569229 11.65114105 -13.50350952 10.44415283 C-10.8522801 1.93067524 -8.96257516 -0.0716144 0 0 Z " fill="#EF3F40" transform="translate(260.462890625,51.466552734375)"/>
<path d="M0 0 C0.92065247 0.00182281 1.84130493 0.00364563 2.78985596 0.00552368 C16.46392631 0.05104757 29.83062943 0.44988713 43.25 3.3125 C44.07967285 3.48410645 44.9093457 3.65571289 45.76416016 3.83251953 C73.55568459 9.74594715 101.65545044 21.5031771 123.25 40.3125 C124.09175781 41.0446875 124.93351562 41.776875 125.80078125 42.53125 C128.31536077 44.75964824 130.78838766 47.02584523 133.25 49.3125 C133.91644531 49.91320313 134.58289063 50.51390625 135.26953125 51.1328125 C155.87870238 70.52474134 168.23445427 98.87732817 173.25 126.3125 C173.58644531 128.08947266 173.58644531 128.08947266 173.9296875 129.90234375 C182.35753265 183.9906376 162.95710416 237.73272159 131.50390625 281.1171875 C116.56797802 301.48593313 99.46340739 321.03262998 79.25 336.3125 C77.99203524 337.30806091 76.73565708 338.30562838 75.48046875 339.3046875 C24.37196222 379.64527658 -38.67409766 402.89007591 -103.75 404.3125 C-102.65111123 396.79348348 -100.81016587 389.55484461 -98.75 382.25 C-98.48880371 381.30938721 -98.22760742 380.36877441 -97.95849609 379.3996582 C-97.70406738 378.51366943 -97.44963867 377.62768066 -97.1875 376.71484375 C-96.95933594 375.91554443 -96.73117188 375.11624512 -96.49609375 374.29272461 C-95.75 372.3125 -95.75 372.3125 -93.75 370.3125 C-91.37904372 369.788867 -89.06870811 369.37177894 -86.671875 369.015625 C-85.19662403 368.78048014 -83.72144789 368.54486545 -82.24633789 368.30883789 C-81.08402145 368.12685349 -81.08402145 368.12685349 -79.89822388 367.94119263 C-65.21955495 365.62335077 -50.9418367 362.79156532 -36.75 358.3125 C-35.96334961 358.07515137 -35.17669922 357.83780273 -34.36621094 357.59326172 C5.86539027 345.35497744 43.10088106 321.32108042 73.25 292.3125 C74.1167334 291.48661377 74.1167334 291.48661377 75.00097656 290.64404297 C83.04662183 282.94773075 90.3439812 274.98038135 96.97509766 266.03173828 C98.2127098 264.36278678 99.47053819 262.71072447 100.73046875 261.05859375 C124.76557693 229.0133731 140.46831415 190.18551355 140.5 149.9375 C140.50067474 149.17172638 140.50134949 148.40595276 140.50204468 147.61697388 C140.48651674 136.54816418 140.10247902 126.06680597 137.25 115.3125 C137.08371094 114.63590332 136.91742188 113.95930664 136.74609375 113.26220703 C128.43487486 79.6402484 106.62941826 51.97974568 77.33203125 33.83203125 C32.18347575 6.97343893 -23.17843584 4.56666197 -73.29125977 16.75488281 C-84.63887015 19.66155444 -95.71244931 23.40706579 -106.75 27.3125 C-106.80188477 28.12654297 -106.85376953 28.94058594 -106.90722656 29.77929688 C-106.98424805 30.85244141 -107.06126953 31.92558594 -107.140625 33.03125 C-107.21313477 34.09279297 -107.28564453 35.15433594 -107.36035156 36.24804688 C-108.07767362 41.88954214 -110.15745144 45.79957887 -114.25 49.6875 C-120.14993325 53.52245661 -124.73375254 54.09855262 -131.75 53.3125 C-137.06648014 51.68140742 -140.79003866 49.09397601 -143.75 44.3125 C-146.08509461 39.05853712 -146.85423728 33.70677481 -145.0625 28.19921875 C-142.37054254 22.24326288 -138.85013989 18.69766889 -132.8125 16 C-126.43902879 14.56922075 -122.23383336 15.17593898 -116.546875 18.14453125 C-114.75 19.3125 -114.75 19.3125 -113.328125 21.01171875 C-112.80734375 21.44097656 -112.2865625 21.87023437 -111.75 22.3125 C-108.16437491 21.83528898 -104.93849686 20.73378239 -101.56640625 19.45703125 C-100.56770508 19.08473389 -99.56900391 18.71243652 -98.54003906 18.32885742 C-97.47495117 17.93158447 -96.40986328 17.53431152 -95.3125 17.125 C-80.13408062 11.57903907 -64.86112179 7.17249497 -49 4.0625 C-47.85096191 3.83566528 -47.85096191 3.83566528 -46.67871094 3.60424805 C-31.16378153 0.75039055 -15.74127091 -0.06497596 0 0 Z " fill="#EF3F40" transform="translate(346.75,-0.3125)"/>
<path d="M0 0 C3.26290206 8.63975037 6.06636515 17.4017558 8.7890625 26.22265625 C9.25011443 27.70921543 9.71140927 29.19569928 10.17292786 30.68211365 C11.40533283 34.65363596 12.63449571 38.62615437 13.86292648 42.59890747 C15.14138024 46.73182779 16.42247321 50.8639298 17.70336914 54.99609375 C19.26759177 60.04278115 20.83152896 65.08955618 22.39411926 70.13674927 C25.54043541 80.29847338 28.69660157 90.4570639 31.86388397 100.61227226 C33.12830126 104.66708623 34.39122815 108.7223647 35.65424347 112.77761555 C36.64139725 115.9466531 37.62975935 119.11530636 38.61968994 122.28347778 C39.70605405 125.76110957 40.788987 129.23979157 41.87109375 132.71875 C42.19181351 133.74222031 42.51253326 134.76569061 42.8429718 135.82017517 C43.27346077 137.20759666 43.27346077 137.20759666 43.71264648 138.62304688 C43.96304184 139.42577026 44.21343719 140.22849365 44.47142029 141.05554199 C45 143 45 143 45 145 C14.97 145 -15.06 145 -46 145 C-48.97 135.43 -51.94 125.86 -55 116 C-60.39862048 100.15226788 -60.39862048 100.15226788 -69 86 C-69.7425 84.948125 -70.485 83.89625 -71.25 82.8125 C-88.81428663 64.84902504 -112.20334725 61.72403963 -136 60 C-136 59.34 -136 58.68 -136 58 C-135.32348389 57.86013672 -134.64696777 57.72027344 -133.94995117 57.57617188 C-90.72893249 48.54502259 -35.20697582 34.80419068 -3.42089844 1.33740234 C-2 0 -2 0 0 0 Z " fill="#EF3F40" transform="translate(433,347)"/>
<path d="M0 0 C2 1 2 1 3.2265625 4.47265625 C3.69531052 6.00180891 4.16125773 7.53182183 4.625 9.0625 C14.81218166 40.95335956 35.13594458 64.78184457 63.05224609 82.70068359 C65.09397214 84.06268735 67.04967113 85.51074693 69 87 C68.3436874 93.05635299 66.73971507 98.62943333 64.9375 104.4375 C64.65583984 105.35982422 64.37417969 106.28214844 64.08398438 107.23242188 C63.39392401 109.48973798 62.69916877 111.74549184 62 114 C52.25624951 114 41.86772552 103.66121595 35.06640625 97.1484375 C33.91843791 95.98768555 32.77748757 94.81994027 31.64453125 93.64453125 C30.00313139 92.00313139 28.29196045 90.53659607 26.5 89.0625 C23.17485049 86.28282445 20.43287809 83.16818422 17.67578125 79.83203125 C15.9344154 77.92830029 14.1058286 76.48187938 12 75 C7.74889522 93.65533358 10.07810279 109.81765158 15 128 C-3.8621944 125.77426106 -23.78045771 107.55966497 -37 95 C-38.36931218 93.82666277 -39.74391787 92.65946034 -41.125 91.5 C-56.46224868 78.06432077 -67.23824354 60.23034127 -75.9375 42 C-76.23229248 41.38906494 -76.52708496 40.77812988 -76.83081055 40.14868164 C-78.54441024 36.44903773 -79.51289847 33.04479246 -80 29 C-76.15609415 31.16642834 -72.69621905 33.68398765 -69.17749023 36.32763672 C-53.95080041 47.69579207 -37.74272335 56.26603894 -20 63 C-19.98582031 62.06542969 -19.97164062 61.13085938 -19.95703125 60.16796875 C-19.28747942 41.72814932 -13.6995958 13.6995958 0 0 Z " fill="#EF3F40" transform="translate(80,263)"/>
</svg>
