<svg id="Layer_1" data-name="Layer 1" xmlns="http://www.w3.org/2000/svg" viewBox="0 0 191.77 55.27"><defs><style>.cls-1{fill:#5fb446;}.cls-1,.cls-2{fill-rule:evenodd;}.cls-2{fill:#444544;}</style></defs><path class="cls-1" d="M35.67,123.62a10.79,10.79,0,0,0,10.81-10.77l0-10.8a5.41,5.41,0,0,0-5.4,5.39v6a5.41,5.41,0,1,1-5.38-6h5.38a5.42,5.42,0,0,0-4.37-5.29,8.1,8.1,0,0,0-2.6,0,10.77,10.77,0,0,0,1.59,21.43Zm24.75-21.57a10.8,10.8,0,0,0-6.48,2.15A5.43,5.43,0,0,0,49.61,102v21.61H55v-10.8a5.39,5.39,0,0,1,5.4-5.4h2.27a5.42,5.42,0,0,0,5.41-5.39ZM82,123.6a10.77,10.77,0,0,0,6.49-2.16,5.41,5.41,0,0,0,4.32,2.16V102.05a5.42,5.42,0,0,0-5.41,5.39v5.4a5.41,5.41,0,0,1-10.81,0v-5.4a5.41,5.41,0,0,0-5.4-5.39v10.8A10.79,10.79,0,0,0,82,123.6Zm21.93-38c1.09-3.4,3.36-4.58,7.71-4.43-2.63,1.07-5.14,2.06-6.79,4.51-.75,1.11-.31,1.58.49,1.73,2.79.54,6-1.79,7.53-3.93a13.84,13.84,0,0,0,2.3-5.49c.15-.91.12-.66-.54-.25-4.2,2.63-8.45.45-11.08,4.12-2.07-9-11.46-6.23-17.85-13-.51-.55-.44-.64-.42.18.08,4.58,1.07,13.7,7.77,17.68A14.28,14.28,0,0,0,99,88.46c.89,0,1.17-.63.45-2.47-1.84-4.66-5.64-7.23-9.6-10,6.8,1.26,11.65,5.29,11.58,10.89,0,1.78,1.51,1.47,2,.33a14.38,14.38,0,0,0,.48-1.67ZM21.72,113.33a10.79,10.79,0,0,1-10.8,10.29H.11V107.4A5.42,5.42,0,0,1,5.52,102v16.23h5.4a5.4,5.4,0,0,0,5.41-5.39V102.07a5.4,5.4,0,0,0-5.41-5.39H5.52A5.41,5.41,0,0,1,.11,91.3H10.23c.45,0,.9,0,1.35,0a10.78,10.78,0,0,1,10.15,10.75v10.44C21.73,112.78,21.74,113.05,21.72,113.33Z" transform="translate(-0.11 -68.36)"/><path class="cls-2" d="M131.54,123.62a10.79,10.79,0,0,0,10.81-10.77l0-10.8a5.41,5.41,0,0,0-5.41,5.39c0,1.48.14,5.76-.18,6.87a5.4,5.4,0,1,1-5.2-6.85h5.37a5.4,5.4,0,0,0-3.77-5.13,7.83,7.83,0,0,0-4,0,10.77,10.77,0,0,0,2.42,21.28Zm49.53-13.5h-4.71a5.43,5.43,0,0,1,4.69-2.7h4.7a5.4,5.4,0,0,1-4.68,2.7Zm-10.73,4.19a10.8,10.8,0,0,0,10.71,9.28h10.83a5.41,5.41,0,0,0-5.4-5.39h-5.43a5.41,5.41,0,0,1-4.69-2.7h4.71A10.79,10.79,0,0,0,191.54,102H181.05a10.79,10.79,0,0,0-10.71,12.28ZM97.6,123.6H103v-7.09l1.52-1.52c2.31,2.36,4.7,4.7,7,7a5.44,5.44,0,0,0,7.64,0l-10.87-10.86,6.09-6.08a5.37,5.37,0,0,0,.17-7.78L103,108.89V91.29a5.41,5.41,0,0,0-5.41,5.38V123.6Zm63.83-9.12a5.4,5.4,0,1,1-5.14-7,5.4,5.4,0,0,1,5.14,7Zm-5.14,9.12a10.8,10.8,0,0,0,10.81-10.78l0-21.52a5.41,5.41,0,0,0-5.41,5.38v6.8a10.79,10.79,0,1,0-5.38,20.12Z" transform="translate(-0.11 -68.36)"/></svg>