<?xml version="1.0" encoding="UTF-8"?><svg id="a" xmlns="http://www.w3.org/2000/svg" viewBox="0 0 460 220"><defs><style>.b{fill:#4f0101;}.c{fill:#fdfdfc;}.d{fill:#e3b447;}</style></defs><path class="c" d="M460,0v220H0V0h460ZM14.01,75l18.01-11.48c32.17-16.11,69.83-7.83,104.38-8.61,19.46-.44,39.59-13.46,45.64-32.37.78-2.44,3.32-13.31,2.89-14.9-1.78-6.47-11.12,5.48-12.98,6.81-41.12,29.23-100.67-7.8-143.46,35.54-1.55,1.57-13.52,17.9-13.93,19.07-.71,2.04-.69,3.85-.54,5.95ZM253,198c6.06.08,10.76,4.81,16.32,7.18,19.27,8.23,37.77,8.32,57.91,3.54,3.6-.85,6.78-3.72,11.28-3.72,6.07,0,15.77,6.08,24.13,6.86,115.07,10.83,128-157.87,13.86-164.86-20.24-1.24-40.85.93-60.94,1.04-40.18.22-80.38-.27-120.54-.04l70.74,70.82c4.12.86,10.08-7.79,13.24-10.34,6.41-5.18,14.94-8.15,23.3-6.28,5.49,1.23,7.32,8.06,15.77,5.34,4.6-1.48,12.88-14.25,16.49-14.6,5.81-.57,12.67,17.17,22.47,14.6,10.61-2.78,13.29-9.57,27.67-3.73,31.72,12.88,13.53,68.11-23.92,50.92-3.65-1.68-2.96-6.07-7.06-4.57-2.52.92-13.92,16.79-17.41,17.69-6.05,1.57-16.32-16.95-18.99-17.74-3.16-.94-7.47,4.27-10.91,5.76-26.01,11.24-44.38-25-63.07-37.7-34.36-23.34-69.79-16.98-101.54,6.09-1.49,1.08-2.82,1.31-2.78,3.72-28.15.26-69.56,3.58-96.18-1.32-8-1.47-19.99-5.57-17.6-15.97,1.94-8.43,20.17-10.25,27.29-10.7,37.09-2.38,84.73,9.44,118.16-9.84,6.6-3.81,14.33-16.09,14.33-23.67v-15c0-.89-1.97-1.72-3.33-1.35-1.46.4-4.33,4.36-6.34,5.68-40.86,26.89-133.97-6.18-160.16,34.84-13.3,20.84-4.73,50.14,18.56,59.08,17.48,6.71,35.68,5.23,53.72,5.2,41.18-.07,82.37.14,123.54.04,6.89,8.61,16.63,14.71,22,24l-3.97,2.53-177.37.63c-.98.38-1.91,1.16-1.65,2.32.31,1.39,17.34,16.45,20.02,18.99,4.69,4.44,4.08,7.77,12.42,8.58,46.15-3.13,97.5,4.02,143.03-.07,6.1-.55,26.28-7.56,27.52-13.98ZM339.65,113.35c-5.95-5.29-8.6-2.09-13.06,3.73-6.68,8.72-7.1,19.85,1.4,27.42,4.96,4.41,6.29,5.54,11.48,1.46,7.61-5.98,12.89-12.96,8.92-22.86-2.17-3.05-6.02-7.33-8.74-9.75Z"/><path class="b" d="M253,198c.24-1.23-.08-2.59-.93-3.55l-19.07-15.45c-5.37-9.29-15.11-15.39-22-24-12.08-15.09-51.78-27.19-72-27-.05-2.42,1.29-2.64,2.78-3.72,31.75-23.07,67.18-29.43,101.54-6.09,18.7,12.7,37.07,48.95,63.07,37.7,3.44-1.49,7.76-6.7,10.91-5.76,2.68.79,12.94,19.31,18.99,17.74,3.5-.91,14.89-16.77,17.41-17.69,4.1-1.5,3.41,2.89,7.06,4.57,37.45,17.19,55.64-38.04,23.92-50.92-14.38-5.84-17.06.95-27.67,3.73-9.8,2.57-16.66-15.16-22.47-14.6-3.61.35-11.89,13.12-16.49,14.6-8.45,2.72-10.28-4.11-15.77-5.34-8.36-1.88-16.89,1.1-23.3,6.28-3.16,2.55-9.12,11.19-13.24,10.34l-70.74-70.82c40.17-.23,80.37.26,120.54.04,20.09-.11,40.7-2.28,60.94-1.04,114.14,6.99,101.2,175.69-13.86,164.86-8.36-.79-18.05-6.86-24.13-6.86-4.49,0-7.68,2.87-11.28,3.72-20.14,4.77-38.63,4.69-57.91-3.54-5.56-2.37-10.26-7.1-16.32-7.18Z"/><path class="d" d="M211,155c-41.17.09-82.36-.11-123.54-.04-18.04.03-36.23,1.51-53.72-5.2-23.29-8.94-31.87-38.24-18.56-59.08,26.19-41.03,119.3-7.95,160.16-34.84,2.01-1.32,4.87-5.28,6.34-5.68,1.36-.37,3.33.45,3.33,1.35v15c0,7.58-7.72,19.86-14.33,23.67-33.43,19.28-81.07,7.46-118.16,9.84-7.12.46-25.36,2.28-27.29,10.7-2.39,10.4,9.6,14.5,17.6,15.97,26.63,4.9,68.03,1.58,96.18,1.32,20.22-.19,59.92,11.91,72,27Z"/><path class="d" d="M253,198c-1.23,6.43-21.41,13.44-27.52,13.98-45.54,4.09-96.88-3.07-143.03.07-8.34-.81-7.73-4.14-12.42-8.58-2.68-2.54-19.71-17.6-20.02-18.99-.26-1.16.68-1.94,1.65-2.32l177.37-.63,3.97-2.53,19.07,15.45c.85.96,1.17,2.31.93,3.55Z"/><path class="d" d="M14.01,75c-.15-2.1-.17-3.91.54-5.95.41-1.17,12.38-17.5,13.93-19.07,42.79-43.34,102.35-6.31,143.46-35.54,1.86-1.33,11.2-13.27,12.98-6.81.44,1.59-2.11,12.46-2.89,14.9-6.05,18.91-26.17,31.93-45.64,32.37-34.55.78-72.22-7.5-104.38,8.61l-18.01,11.48Z"/><path class="d" d="M339.65,113.35c2.72,2.43,6.58,6.7,8.74,9.75,3.97,9.91-1.31,16.88-8.92,22.86-5.19,4.08-6.53,2.96-11.48-1.46-8.51-7.58-8.09-18.71-1.4-27.42,4.47-5.83,7.12-9.03,13.06-3.73Z"/></svg>