<?xml version="1.0" encoding="UTF-8"?><svg id="Layer_1" xmlns="http://www.w3.org/2000/svg" viewBox="0 0 128 128"><defs><style>.cls-1{fill:#ec9f9f;}.cls-2{fill:#102036;}.cls-3{fill:#3681ad;}.cls-4{fill:#a4b1b9;}</style></defs><path class="cls-3" d="M104,30.74v66.52c0,3.72-3.02,6.74-6.74,6.74H30.74c-3.73,0-6.74-3.02-6.74-6.74V30.74c0-2.05.91-3.88,2.35-5.11,1.18-1.02,2.72-1.63,4.39-1.63h66.51c3.72,0,6.74,3.02,6.74,6.74Z"/><path class="cls-2" d="M104,57.32v39.93c0,3.72-3.02,6.74-6.74,6.74h-28.89l-21.29-20.39.38-.06,7.69-1,22.89.33-20.21-1.11-4.11-1.31-.38-.5-1.69-2.22-2.85-3.73-5.96-23.41,47.64-6.39.25.03,13.28,13.08Z"/><path class="cls-4" d="M47.47,83.71c-.17,0-.33-.05-.47-.14-.69-.43-2.62-1.72-2.21-2.77.35-.91,1.74-.74,2.66-.78,2.04-.09,22.53.28,30.33.29.29,0,.81-.26.84-.47.4-2.32,1.74-10.13,2.4-13.67.11-.57-.33-1.1-.91-1.1h-21.15c-.2,0-.39-.06-.55-.18-1.79-1.31-2.95-2.56-3.48-4.12-.21-.6.25-1.22.88-1.22h30.52c.59,0,1.03.55.91,1.13-1.31,6.03-4.27,19.79-4.86,22.56-.01.05-.03.1-.04.15,0,0,0,0,0,0-.13.32-.42.54-.75.58-.2.02-.41.04-.62.04-8.09-.03-29.69-.24-33.48-.31Z"/><path class="cls-1" d="M53.34,75.47c-1.65-.02-3.34-.32-4.8-.94-.55-.23-1.07-.5-1.55-.86-4.01-2.95-5.42-7.67-6.2-12.58-.61-3.82-2.07-10.77-2.93-14.69-.33-1.48.8-2.87,2.31-2.87,11.06.04,49.09.2,50.01.24.29.01.62.01.53.46-.27,3.39-5.69,7.64-9.48,7.63-11.81-.03-23.61-.08-35.42-.12-.52,0-1.14-.06-.99.78.28,1.64.68,3.26.86,4.91.41,3.66.6,7.39,3.32,10.28,3.12,3.31,6.96,3.5,11.39,3.5,3.67,0,7.21-.02,10.88-.02.62,0,1.11.53,1.06,1.15l-.19,2.28c-.05.55-.5.97-1.05.97-3.13,0-12.92-.06-17.77-.13Z"/></svg>