<?xml version="1.0" encoding="UTF-8"?>
<svg version="1.1" xmlns="http://www.w3.org/2000/svg" width="70" height="70">
<path d="M0 0 C23.1 0 46.2 0 70 0 C70 23.1 70 46.2 70 70 C46.9 70 23.8 70 0 70 C0 46.9 0 23.8 0 0 Z " fill="#FDF7F6" transform="translate(0,0)"/>
<path d="M0 0 C13.86 0 27.72 0 42 0 C42 0.66 42 1.32 42 2 C39.66248657 3.16875672 38.10334003 3.13466215 35.5 3.25 C27.97838235 3.96737972 21.59068987 6.84093214 16.5 12.5 C12.33053423 17.63910898 11.69893947 22.52107299 11.8125 29 C11.81314453 29.69867187 11.81378906 30.39734375 11.81445312 31.1171875 C11.83958462 34.07711902 11.95573099 36.81117352 12.6328125 39.69921875 C13.1064571 42.66705569 12.37743928 44.1427748 11.0625 46.8125 C10.68222656 47.60269531 10.30195313 48.39289062 9.91015625 49.20703125 C9.60980469 49.79871094 9.30945312 50.39039063 9 51 C17.33198003 54.92157305 17.33198003 54.92157305 26 58 C26 59.32 26 60.64 26 62 C27.1446875 61.8453125 27.1446875 61.8453125 28.3125 61.6875 C29.199375 61.790625 30.08625 61.89375 31 62 C32.5625 64.375 32.5625 64.375 34 67 C36.06700655 68.32793606 36.06700655 68.32793606 38 69 C37 70 37 70 33.48999023 70.11352539 C31.92951579 70.11327431 30.3690358 70.1077134 28.80859375 70.09765625 C28.08224731 70.09664917 27.35590088 70.09564209 26.60754395 70.09460449 C23.88417999 70.08935716 21.16083847 70.075396 18.4375 70.0625 C12.353125 70.041875 6.26875 70.02125 0 70 C0 46.9 0 23.8 0 0 Z " fill="#FDFAFA" transform="translate(0,0)"/>
<path d="M0 0 C3.125 0.25 3.125 0.25 5 1.75 C5.37125 2.245 5.7425 2.74 6.125 3.25 C5.01125 3.20875 3.8975 3.1675 2.75 3.125 C-0.91866025 2.83878141 -0.91866025 2.83878141 -2.875 5.25 C-2.875 6.24 -2.875 7.23 -2.875 8.25 C-1.98296875 7.94964844 -1.0909375 7.64929687 -0.171875 7.33984375 C0.99859375 6.95957031 2.1690625 6.57929688 3.375 6.1875 C4.53515625 5.80464844 5.6953125 5.42179687 6.890625 5.02734375 C11.20926617 3.98940946 11.20926617 3.98940946 14.125 5.25 C15.3894043 7.27197266 15.3894043 7.27197266 16.44921875 9.9140625 C17.03219727 11.35072266 17.03219727 11.35072266 17.62695312 12.81640625 C18.01818359 13.82574219 18.40941406 14.83507812 18.8125 15.875 C19.21533203 16.86113281 19.61816406 17.84726562 20.03320312 18.86328125 C22.17223335 24.23056312 23.28637572 28.37963001 24.125 34.25 C15.215 36.89 6.305 39.53 -2.875 42.25 C-3.844375 38.24875 -4.81375 34.2475 -5.8125 30.125 C-6.11663818 28.87444824 -6.42077637 27.62389648 -6.73413086 26.33544922 C-6.97526611 25.33529785 -7.21640137 24.33514648 -7.46484375 23.3046875 C-7.71097412 22.28874512 -7.95710449 21.27280273 -8.21069336 20.22607422 C-8.87595327 17.24572937 -9.40114364 14.26616457 -9.875 11.25 C-8.225 10.92 -6.575 10.59 -4.875 10.25 C-4.81441406 9.61191406 -4.75382812 8.97382812 -4.69140625 8.31640625 C-4.60761719 7.49011719 -4.52382813 6.66382813 -4.4375 5.8125 C-4.35628906 4.98878906 -4.27507813 4.16507813 -4.19140625 3.31640625 C-3.69866072 0.09835214 -3.33800837 0.2902616 0 0 Z " fill="#E21E26" transform="translate(36.875,24.75)"/>
<path d="M0 0 C7.12521071 4.27512642 11.9631167 8.58993825 14.125 16.875 C14.78271228 22.86933979 14.54698674 28.27415567 12.125 33.875 C10.22110151 31.01915227 9.43037823 28.9438238 8.5 25.6875 C8.10941406 24.33591797 8.10941406 24.33591797 7.7109375 22.95703125 C7.51757812 22.26996094 7.32421875 21.58289063 7.125 20.875 C6.073125 21.16375 5.02125 21.4525 3.9375 21.75 C2.679375 21.79125 1.42125 21.8325 0.125 21.875 C-2.625 19.125 -2.625 19.125 -4.875 15.875 C-6.18818262 13.97541919 -6.18818262 13.97541919 -7.875 12.875 C-10.83269177 12.37489476 -10.83269177 12.37489476 -13.875 12.875 C-14.514375 13.37 -15.15375 13.865 -15.8125 14.375 C-17.875 15.875 -17.875 15.875 -24.875 15.875 C-28.34 23.3 -28.34 23.3 -31.875 30.875 C-32.535 30.545 -33.195 30.215 -33.875 29.875 C-34.68456938 13.86351675 -34.68456938 13.86351675 -29.875 7.875 C-21.87215119 -0.52882662 -11.48163738 -4.40999254 0 0 Z " fill="#E51C24" transform="translate(44.875,5.125)"/>
<path d="M0 0 C6.75 -0.203125 6.75 -0.203125 9 1.625 C10.31794101 4.7551099 9.81054223 6.75783109 9 10 C7.02 10.33 5.04 10.66 3 11 C3.26554687 11.95519531 3.53109375 12.91039062 3.8046875 13.89453125 C5.90567455 21.55082196 7.75924543 29.14732965 9 37 C6.64451433 36.23302719 4.29066421 35.46153799 1.9375 34.6875 C1.28072266 34.47416016 0.62394531 34.26082031 -0.05273438 34.04101562 C-4.48249744 32.5789756 -8.73527606 30.89111946 -13 29 C-8.78150182 19.27748495 -4.48843799 9.60164025 0 0 Z " fill="#E21E26" transform="translate(21,23)"/>
<path d="M0 0 C3.74792767 0.54657278 4.64350595 1.53115734 7 4.4375 C7.8971875 5.79875 7.8971875 5.79875 8.8125 7.1875 C10.9159745 9.84374097 10.9159745 9.84374097 14.75 9.75 C15.8225 9.646875 16.895 9.54375 18 9.4375 C18.81436868 11.20747474 19.6264294 12.97851152 20.4375 14.75 C20.88996094 15.73613281 21.34242187 16.72226562 21.80859375 17.73828125 C23 20.4375 23 20.4375 24 23.4375 C23.34 23.4375 22.68 23.4375 22 23.4375 C21.505 24.9225 21.505 24.9225 21 26.4375 C19.35 22.1475 17.7 17.8575 16 13.4375 C10.23457274 14.54319838 4.61527443 15.72850343 -1 17.4375 C-0.25 12.6875 -0.25 12.6875 2 10.4375 C5.125 10.3125 5.125 10.3125 8 10.4375 C5.29120665 9.08310332 2.99066732 9.37248549 0 9.4375 C-0.09796875 10.06398438 -0.1959375 10.69046875 -0.296875 11.3359375 C-0.44640625 12.15320312 -0.5959375 12.97046875 -0.75 13.8125 C-0.88921875 14.62460937 -1.0284375 15.43671875 -1.171875 16.2734375 C-2 18.4375 -2 18.4375 -4.05175781 19.57275391 C-4.69467773 19.85812012 -5.33759766 20.14348633 -6 20.4375 C-5.81300537 21.20416992 -5.62601074 21.97083984 -5.43334961 22.76074219 C-4.59184316 26.2340936 -3.7645297 29.71067449 -2.9375 33.1875 C-2.64294922 34.3940625 -2.34839844 35.600625 -2.04492188 36.84375 C-1.77099609 38.00390625 -1.49707031 39.1640625 -1.21484375 40.359375 C-0.95823975 41.42768555 -0.70163574 42.49599609 -0.43725586 43.59667969 C-0.0179902 46.32061893 -0.08845886 47.87328339 -1 50.4375 C-1.66 48.7875 -2.32 47.1375 -3 45.4375 C-4.65 45.4375 -6.3 45.4375 -8 45.4375 C-8 44.4475 -8 43.4575 -8 42.4375 C-6.515 41.9425 -6.515 41.9425 -5 41.4375 C-5.15146484 40.78152832 -5.30292969 40.12555664 -5.45898438 39.44970703 C-6.14156851 36.48781695 -6.82082454 33.52517348 -7.5 30.5625 C-7.73847656 29.52996094 -7.97695313 28.49742188 -8.22265625 27.43359375 C-8.44824219 26.44746094 -8.67382812 25.46132813 -8.90625 24.4453125 C-9.11572266 23.53410645 -9.32519531 22.62290039 -9.54101562 21.68408203 C-10 19.4375 -10 19.4375 -10 17.4375 C-8.02 17.1075 -6.04 16.7775 -4 16.4375 C-3.65151821 12.33517788 -3.65151821 12.33517788 -5.125 8.625 C-7.66676215 7.01521731 -10.0398108 6.76640991 -13 6.4375 C-13.226875 7.200625 -13.45375 7.96375 -13.6875 8.75 C-15.48165488 13.79072087 -17.74058077 18.59095951 -20 23.4375 C-20.99 22.4475 -21.98 21.4575 -23 20.4375 C-21.37859827 17.19469655 -19.64553563 14.0102731 -17.9375 10.8125 C-17.56044922 10.10609375 -17.18339844 9.3996875 -16.79492188 8.671875 C-15.86351404 6.92695905 -14.9317873 5.18221334 -14 3.4375 C-12.88753906 3.4684375 -11.77507813 3.499375 -10.62890625 3.53125 C-5.97412966 3.41099743 -4.43428641 0.64666677 0 0 Z " fill="#F9B9B8" transform="translate(34,16.5625)"/>
<path d="M0 0 C2.66140694 2.66140694 3.69769187 5.75057443 5.0625 9.1875 C5.33126953 9.83525391 5.60003906 10.48300781 5.87695312 11.15039062 C7.60057032 15.45298616 8.51559151 19.38914886 9 24 C3.87080814 26.10428384 -0.5610835 26.21755666 -6 26 C-5.67 23.36 -5.34 20.72 -5 18 C-5.99 17.34 -6.98 16.68 -8 16 C-8 16.66 -8 17.32 -8 18 C-10.31 18.66 -12.62 19.32 -15 20 C-16.83691257 16.21812119 -17.15837626 14.05431692 -16 10 C-15.34 10 -14.68 10 -14 10 C-13.67 11.98 -13.34 13.96 -13 16 C-11.35 15.34 -9.7 14.68 -8 14 C-8.20625 13.21625 -8.4125 12.4325 -8.625 11.625 C-8.74875 10.75875 -8.8725 9.8925 -9 9 C-7 7 -7 7 -4.5 6.6875 C-3.675 6.790625 -2.85 6.89375 -2 7 C-1.01 8.485 -1.01 8.485 0 10 C0 8.02 0 6.04 0 4 C-0.99 4.495 -0.99 4.495 -2 5 C-1.34 3.35 -0.68 1.7 0 0 Z " fill="#E51E2A" transform="translate(52,35)"/>
<path d="M0 0 C0.78375 0.04125 1.5675 0.0825 2.375 0.125 C3.99449011 2.69713134 4.41908751 3.80169159 4 6.875 C3.690625 7.98875 3.690625 7.98875 3.375 9.125 C-1.375 10.25 -1.375 10.25 -3.625 9.125 C-3.625 9.785 -3.625 10.445 -3.625 11.125 C-5.935 11.785 -8.245 12.445 -10.625 13.125 C-12.46191257 9.34312119 -12.78337626 7.17931692 -11.625 3.125 C-10.965 3.125 -10.305 3.125 -9.625 3.125 C-9.295 5.105 -8.965 7.085 -8.625 9.125 C-6.975 8.465 -5.325 7.805 -3.625 7.125 C-3.83125 6.34125 -4.0375 5.5575 -4.25 4.75 C-4.37375 3.88375 -4.4975 3.0175 -4.625 2.125 C-2.625 0.125 -2.625 0.125 0 0 Z " fill="#FDD6DC" transform="translate(47.625,41.875)"/>
<path d="M0 0 C3.5 0.1875 3.5 0.1875 7 1 C7.66 1.99 8.32 2.98 9 4 C7.39125 3.938125 7.39125 3.938125 5.75 3.875 C2.16945084 3.72650039 2.16945084 3.72650039 -0.0625 5.0625 C-2.89335051 6.43226637 -5.01489446 5.67843308 -8 5 C-8.226875 5.763125 -8.45375 6.52625 -8.6875 7.3125 C-10.48165488 12.35322087 -12.74058077 17.15345951 -15 22 C-15.99 21.01 -16.98 20.02 -18 19 C-16.37859827 15.75719655 -14.64553563 12.5727731 -12.9375 9.375 C-12.37192383 8.31539062 -12.37192383 8.31539062 -11.79492188 7.234375 C-10.86351404 5.48945905 -9.9317873 3.74471334 -9 2 C-7.329375 2.061875 -7.329375 2.061875 -5.625 2.125 C-1.95633975 2.41121859 -1.95633975 2.41121859 0 0 Z " fill="#FBC1BC" transform="translate(29,18)"/>
<path d="M0 0 C3.125 0.25 3.125 0.25 5 1.75 C5.37125 2.245 5.7425 2.74 6.125 3.25 C5.01125 3.20875 3.8975 3.1675 2.75 3.125 C-0.91866025 2.83878141 -0.91866025 2.83878141 -2.875 5.25 C-2.875 6.24 -2.875 7.23 -2.875 8.25 C-2.19953125 8.02183594 -1.5240625 7.79367188 -0.828125 7.55859375 C0.06390625 7.27113281 0.9559375 6.98367187 1.875 6.6875 C2.75671875 6.39746094 3.6384375 6.10742188 4.546875 5.80859375 C7.20334316 5.23302565 8.59531106 5.35751629 11.125 6.25 C10.135 6.25 9.145 6.25 8.125 6.25 C7.795 6.91 7.465 7.57 7.125 8.25 C3.49001076 9.41593995 -0.17181526 10.32420381 -3.875 11.25 C-4.535 14.22 -5.195 17.19 -5.875 20.25 C-6.205 19.26 -6.535 18.27 -6.875 17.25 C-7.535 17.25 -8.195 17.25 -8.875 17.25 C-9.205 15.27 -9.535 13.29 -9.875 11.25 C-8.225 10.92 -6.575 10.59 -4.875 10.25 C-4.81441406 9.61191406 -4.75382812 8.97382812 -4.69140625 8.31640625 C-4.60761719 7.49011719 -4.52382813 6.66382813 -4.4375 5.8125 C-4.35628906 4.98878906 -4.27507813 4.16507813 -4.19140625 3.31640625 C-3.69866072 0.09835214 -3.33800837 0.2902616 0 0 Z " fill="#D42225" transform="translate(36.875,24.75)"/>
<path d="M0 0 C5.625 -0.25 5.625 -0.25 9 2 C9.1875 4.625 9.1875 4.625 9 7 C8.05125 7.165 7.1025 7.33 6.125 7.5 C2.91873588 8.62222102 2.91873588 8.62222102 2.15625 10.9140625 C1.67381375 12.92184864 1.32880438 14.96141284 1 17 C0.01 16.67 -0.98 16.34 -2 16 C-1.79375 15.0925 -1.5875 14.185 -1.375 13.25 C-0.9872755 9.88972103 -1.19588033 8.75924185 -3 6 C0.4352048 3.70986347 1.985331 3.82157027 6 4 C4.02 3.34 2.04 2.68 0 2 C0 1.34 0 0.68 0 0 Z " fill="#FACFCE" transform="translate(31,17)"/>
<path d="M0 0 C0 0.99 0 1.98 0 3 C-0.66 3 -1.32 3 -2 3 C-2.33 3.99 -2.66 4.98 -3 6 C-3.99 6.33 -4.98 6.66 -6 7 C-6 7.66 -6 8.32 -6 9 C-6.66 9 -7.32 9 -8 9 C-8.66 13.62 -9.32 18.24 -10 23 C-9.34 23 -8.68 23 -8 23 C-8 22.34 -8 21.68 -8 21 C-7.34 21.33 -6.68 21.66 -6 22 C-7.32 24.64 -8.64 27.28 -10 30 C-10.66 29.67 -11.32 29.34 -12 29 C-12.81222669 12.93596095 -12.81222669 12.93596095 -8 7 C-5.46629318 4.48079913 -2.82083254 2.19093789 0 0 Z " fill="#CB262C" transform="translate(23,6)"/>
<path d="M0 0 C0.66 0 1.32 0 2 0 C2.5321441 2.08047297 3.05031786 4.16452293 3.5625 6.25 C3.85253906 7.41015625 4.14257812 8.5703125 4.44140625 9.765625 C4.95179964 12.72090983 5.02996165 14.24434101 4 17 C3.34 15.35 2.68 13.7 2 12 C0.35 12 -1.3 12 -3 12 C-3 11.01 -3 10.02 -3 9 C-2.01 8.67 -1.02 8.34 0 8 C0 5.36 0 2.72 0 0 Z " fill="#FCCEC7" transform="translate(29,50)"/>
<path d="M0 0 C2.52475462 2.52475462 3.04307871 4.73497997 4.125 8.125 C4.47820313 9.22070312 4.83140625 10.31640625 5.1953125 11.4453125 C5.46085937 12.28835937 5.72640625 13.13140625 6 14 C4 15 4 15 0 14 C0 10.7 0 7.4 0 4 C-0.99 4.495 -0.99 4.495 -2 5 C-1.34 3.35 -0.68 1.7 0 0 Z " fill="#D6282E" transform="translate(52,35)"/>
<path d="M0 0 C3.625 0.375 3.625 0.375 7 1 C7 1.99 7 2.98 7 4 C2.05 5.485 2.05 5.485 -3 7 C-2 2 -2 2 0 0 Z " fill="#F3C8C6" transform="translate(36,27)"/>
<path d="M0 0 C1 4 1 4 0.0625 6.25 C-0.4634375 7.11625 -0.4634375 7.11625 -1 8 C-0.34 8 0.32 8 1 8 C1 9.65 1 11.3 1 13 C1.66 13 2.32 13 3 13 C2.67 13.66 2.34 14.32 2 15 C-0.31 14.01 -2.62 13.02 -5 12 C-3.35 8.04 -1.7 4.08 0 0 Z " fill="#D4262E" transform="translate(13,40)"/>
<path d="M0 0 C0.33 0.66 0.66 1.32 1 2 C1.66 2 2.32 2 3 2 C3.3690205 13.52164009 3.3690205 13.52164009 1 19 C-0.0625 17.125 -0.0625 17.125 -1 15 C-0.67 14.34 -0.34 13.68 0 13 C0.07092842 10.7927077 0.08415025 8.58332548 0.0625 6.375 C0.05347656 5.18648437 0.04445312 3.99796875 0.03515625 2.7734375 C0.02355469 1.85820312 0.01195312 0.94296875 0 0 Z " fill="#D2242D" transform="translate(56,20)"/>
<path d="M0 0 C2.05303923 0.51325981 4.09436582 1.02775465 6.125 1.625 C8.08039699 2.2156101 8.08039699 2.2156101 10 1 C10.66 1.33 11.32 1.66 12 2 C12.33 1.34 12.66 0.68 13 0 C13 0.99 13 1.98 13 3 C8.87831311 4.62950412 6.29299643 5.26264601 2 4 C2 3.34 2 2.68 2 2 C1.34 2 0.68 2 0 2 C0 1.34 0 0.68 0 0 Z " fill="#D61E27" transform="translate(48,56)"/>
<path d="M0 0 C1.32 0.66 2.64 1.32 4 2 C4 3.65 4 5.3 4 7 C2.35 7 0.7 7 -1 7 C-1.04254356 5.00045254 -1.04080783 2.99958364 -1 1 C-0.67 0.67 -0.34 0.34 0 0 Z " fill="#EC1728" transform="translate(25,25)"/>
<path d="M0 0 C0.66 0 1.32 0 2 0 C2 4.62 2 9.24 2 14 C1.34 14 0.68 14 0 14 C-1.10370043 10.6888987 -0.92673641 8.75251051 -0.5625 5.3125 C-0.46066406 4.31863281 -0.35882813 3.32476563 -0.25390625 2.30078125 C-0.17011719 1.54152344 -0.08632812 0.78226563 0 0 Z " fill="#FDCCCB" transform="translate(9,21)"/>
<path d="M0 0 C1.98 0.495 1.98 0.495 4 1 C4 1.99 4 2.98 4 4 C3.01 3.67 2.02 3.34 1 3 C1 3.66 1 4.32 1 5 C1.66 5 2.32 5 3 5 C3.33 5.99 3.66 6.98 4 8 C2.35 8 0.7 8 -1 8 C-0.67 5.36 -0.34 2.72 0 0 Z " fill="#F51C28" transform="translate(47,53)"/>
<path d="M0 0 C0.66 0 1.32 0 2 0 C3.52448631 2.9826906 4.93940067 5.818202 6 9 C5.34 9 4.68 9 4 9 C3.67 9.99 3.34 10.98 3 12 C2.49166409 10.75336669 1.99368855 9.50250613 1.5 8.25 C1.2215625 7.55390625 0.943125 6.8578125 0.65625 6.140625 C0 4 0 4 0 0 Z " fill="#FCC8C1" transform="translate(52,31)"/>
<path d="M0 0 C3.125 0.25 3.125 0.25 5 1.75 C5.37125 2.245 5.7425 2.74 6.125 3.25 C5.01125 3.20875 3.8975 3.1675 2.75 3.125 C-0.91866025 2.83878141 -0.91866025 2.83878141 -2.875 5.25 C-3.57248583 6.56747324 -4.24459957 7.89914193 -4.875 9.25 C-3.8847561 0.33780488 -3.8847561 0.33780488 0 0 Z " fill="#B33431" transform="translate(36.875,24.75)"/>
<path d="M0 0 C1.2065625 0.0309375 1.2065625 0.0309375 2.4375 0.0625 C2.7675 1.3825 3.0975 2.7025 3.4375 4.0625 C2.48875 4.041875 1.54 4.02125 0.5625 4 C-2.46916283 3.83698174 -2.46916283 3.83698174 -4.5625 5.0625 C-3.43829114 0.08386076 -3.43829114 0.08386076 0 0 Z " fill="#F2B4B3" transform="translate(47.5625,41.9375)"/>
<path d="M0 0 C-0.639375 0.4125 -1.27875 0.825 -1.9375 1.25 C-4.20990931 3.17810487 -4.60196439 4.11424181 -5 7 C-5.66 7 -6.32 7 -7 7 C-7.33 4.69 -7.66 2.38 -8 0 C-5.13822943 -1.43088528 -3.06624227 -0.59991697 0 0 Z " fill="#F7ABA7" transform="translate(32,34)"/>
<path d="M0 0 C0.66 0 1.32 0 2 0 C2.33 1.98 2.66 3.96 3 6 C2.01 6.66 1.02 7.32 0 8 C-0.38063221 5.6739143 -0.71269945 3.33944736 -1 1 C-0.67 0.67 -0.34 0.34 0 0 Z " fill="#FDC1B6" transform="translate(36,45)"/>
<path d="M0 0 C0.66666667 1.33333333 1.33333333 2.66666667 2 4 C2.4125 4.66 2.825 5.32 3.25 6 C4 8 4 8 3.125 10.25 C2.75375 10.8275 2.3825 11.405 2 12 C1.4654744 10.75579353 0.94791389 9.50429064 0.4375 8.25 C0.14746094 7.55390625 -0.14257812 6.8578125 -0.44140625 6.140625 C-1.07831803 3.69987216 -0.80248831 2.3596345 0 0 Z " fill="#FCD9D7" transform="translate(58,44)"/>
<path d="M0 0 C0.99 0 1.98 0 3 0 C3.625 3.375 3.625 3.375 4 7 C3.34 7.66 2.68 8.32 2 9 C1.34 6.03 0.68 3.06 0 0 Z " fill="#F02030" transform="translate(31,48)"/>
<path d="M0 0 C1.98 0.495 1.98 0.495 4 1 C4 2.65 4 4.3 4 6 C1.525 5.01 1.525 5.01 -1 4 C-0.67 2.68 -0.34 1.36 0 0 Z " fill="#F11D31" transform="translate(14,17)"/>
<path d="M0 0 C0 0.66 0 1.32 0 2 C-1.96466413 3.06775224 -3.96855359 4.06553465 -6 5 C-6.66 4.67 -7.32 4.34 -8 4 C-5.52914451 0.29371676 -4.37054922 0 0 0 Z " fill="#FDDDD4" transform="translate(61,59)"/>
<path d="M0 0 C2.3125 0.8125 2.3125 0.8125 3.3125 2.8125 C-0.02083333 2.8125 -3.35416667 2.8125 -6.6875 2.8125 C-4.2961605 0.59829676 -3.32534138 -0.23200056 0 0 Z " fill="#AF2C36" transform="translate(34.6875,19.1875)"/>
<path d="M0 0 C0.66 0 1.32 0 2 0 C2 0.66 2 1.32 2 2 C2.99 2.33 3.98 2.66 5 3 C4.67 4.65 4.34 6.3 4 8 C2 5 2 5 2 3 C1.34 3 0.68 3 0 3 C0 2.01 0 1.02 0 0 Z " fill="#DC1A1C" transform="translate(36,42)"/>
</svg>
