<svg width="32" height="33" viewBox="0 0 32 33" fill="none" xmlns="http://www.w3.org/2000/svg">
<g id="Aparat - Iconly Pro">
<path id="Vector" fill-rule="evenodd" clip-rule="evenodd" d="M21.4803 15.4641C21.3576 15.9255 21.0643 16.3081 20.6523 16.5455C20.3816 16.6988 20.0829 16.7775 19.7803 16.7775C19.6203 16.7775 19.4603 16.7561 19.3029 16.7135C18.8509 16.5961 18.4683 16.3068 18.2309 15.8988C17.9909 15.4895 17.9269 15.0081 18.0509 14.5468C18.3003 13.6029 19.2776 13.0349 20.2243 13.2815L20.2309 13.2829C21.1723 13.5469 21.7323 14.5241 21.4803 15.4641ZM19.8896 21.3988C19.6776 22.1921 18.9536 22.7189 18.1643 22.7189C18.0163 22.7189 17.8669 22.7015 17.7176 22.6616C16.7696 22.3976 16.2069 21.4203 16.4589 20.4803C16.5843 20.0189 16.8829 19.6348 17.2976 19.3988C17.7069 19.1655 18.1816 19.1041 18.6349 19.2309C19.0896 19.3495 19.4723 19.6415 19.7109 20.0508C19.9509 20.4655 20.0123 20.9428 19.8896 21.3988ZM15.5403 13.8788C15.4149 14.3388 15.1176 14.7228 14.7016 14.9588C14.4323 15.1121 14.1336 15.1908 13.8336 15.1908C13.6749 15.1908 13.5176 15.1695 13.3629 15.1268C12.911 15.0083 12.5283 14.7161 12.2897 14.3068C12.051 13.8935 11.987 13.4149 12.111 12.9575C12.3603 12.0135 13.3297 11.4509 14.2843 11.6962L14.2883 11.6975C15.2309 11.9602 15.7923 12.9375 15.5403 13.8788ZM13.9496 19.8108C13.7376 20.6041 13.0137 21.1321 12.227 21.1321C12.0777 21.1321 11.9283 21.1135 11.7777 21.0748C10.8297 20.8121 10.267 19.8321 10.519 18.8921C10.643 18.4321 10.9377 18.0468 11.3497 17.8121C11.759 17.5761 12.2337 17.5175 12.695 17.6441C13.151 17.7628 13.5323 18.0521 13.7709 18.4588C14.0083 18.8708 14.0723 19.3495 13.9496 19.8108ZM18.5083 7.82687C16.0083 7.15887 13.3976 7.49887 11.1563 8.7922C8.91499 10.0855 7.31366 12.1735 6.64432 14.6735C5.97499 17.1761 6.31899 19.7895 7.61632 22.0308C8.90966 24.2681 10.999 25.8656 13.4936 26.5296C14.3309 26.7549 15.1789 26.8669 16.0229 26.8669C17.6989 26.8669 19.3536 26.4269 20.8443 25.5668C23.0843 24.2735 24.6869 22.1856 25.3576 19.6843C26.0269 17.1816 25.6816 14.5681 24.3856 12.3255C23.0909 10.0895 21.0043 8.4922 18.5083 7.82687Z" fill="#000431"/>
<path id="Vector_2" fill-rule="evenodd" clip-rule="evenodd" d="M24.6886 25.3455C24.1472 25.2001 23.6059 25.5215 23.4632 26.0523C23.0552 27.5749 21.4792 28.4801 19.9539 28.0788C19.4219 27.9335 18.8739 28.2563 18.7312 28.7883C18.5899 29.3215 18.9072 29.8695 19.4406 30.0109C19.8579 30.1216 20.2766 30.1748 20.6899 30.1748C22.8406 30.1748 24.8152 28.7388 25.3952 26.5709C25.5392 26.0376 25.2206 25.4881 24.6886 25.3455Z" fill="#000431"/>
<path id="Vector_3" fill-rule="evenodd" clip-rule="evenodd" d="M7.12229 24.6385C6.38496 24.4439 5.76896 23.9705 5.38629 23.3105C5.00229 22.6465 4.89963 21.8732 5.09829 21.1305C5.24229 20.5972 4.92496 20.0492 4.39163 19.9052C3.84896 19.7652 3.31029 20.0812 3.16629 20.6119C2.82896 21.8719 3.00229 23.1865 3.65563 24.3132C4.30629 25.4372 5.35563 26.2385 6.60896 26.5705C6.69563 26.5945 6.78096 26.6052 6.86629 26.6052C7.30896 26.6052 7.71296 26.3092 7.83163 25.8612C7.97429 25.3279 7.65563 24.7785 7.12229 24.6385Z" fill="#000431"/>
<path id="Vector_4" fill-rule="evenodd" clip-rule="evenodd" d="M28.3434 10.041C27.6941 8.91835 26.6447 8.11835 25.3914 7.78635C24.8581 7.64369 24.3114 7.96235 24.1687 8.49569C24.0274 9.02902 24.3447 9.57702 24.8781 9.71835C25.6154 9.91302 26.2314 10.385 26.6127 11.0437C26.9981 11.7077 27.1007 12.4837 26.9021 13.2277C26.7607 13.761 27.0767 14.3077 27.6101 14.4517C27.6967 14.4744 27.7834 14.4851 27.8687 14.4851C28.3114 14.4851 28.7141 14.1904 28.8341 13.7424C29.1714 12.4824 28.9967 11.169 28.3434 10.041Z" fill="#000431"/>
<path id="Vector_5" fill-rule="evenodd" clip-rule="evenodd" d="M7.3121 9.01123C7.39744 9.03523 7.48544 9.04457 7.56944 9.04457C8.0121 9.04457 8.4161 8.75123 8.5361 8.30323C8.9441 6.78057 10.5254 5.8779 12.0441 6.2779C12.5721 6.42723 13.1241 6.10457 13.2668 5.56857C13.4081 5.03523 13.0908 4.48723 12.5574 4.3459C9.95877 3.6579 7.29344 5.20323 6.6041 7.78723C6.46144 8.32057 6.77877 8.86857 7.3121 9.01123Z" fill="#000431"/>
</g>
</svg>
