<?xml version="1.0" encoding="utf-8"?>
<!-- Generator: Adobe Illustrator 28.4.1, SVG Export Plug-In . SVG Version: 6.00 Build 0)  -->
<svg version="1.1" id="Layer_1" xmlns="http://www.w3.org/2000/svg" xmlns:xlink="http://www.w3.org/1999/xlink" x="0px" y="0px"
	 viewBox="0 0 312.9 287.7" style="enable-background:new 0 0 312.9 287.7;" xml:space="preserve">
<style type="text/css">
	.st0{fill:#404041;}
	.st1{fill:#C5B6AA;}
	.st2{fill:#DAD1CA;}
	.st3{fill:#FEFEFE;}
	.st4{fill:#A97C50;}
</style>
<g>
	<path class="st0" d="M203.4,140.2c0.7,0.1,2.2,0.5,3,0.7c1.2,0.4,3.4,1.8,4.4,1.8c1,0,5.5-2.3,7-2.8c12.7-4.1,25.5-1.7,35.6,7
		c14.7,12.7,15.8,33.7,27.3,48.8l5.7,7.5c-6.9,1.1-13.6,1.4-20.2-0.9c-16.3-5.6-16-21.3-23.2-34.3c-5.8-10.4-13.4-16-23.4-22h-0.5
		c2.2,3.5,5,6.5,7.2,9.9c6,9,9,19.8,8.3,30.7c-0.1,1.3-1.1,5.8-0.8,6.5l79,62l-4.1,5.3l-78.2-60.8l-6.2,6.5l15.1,34.1l-12.8,45.6
		l-0.4,0.5h-13.5c3.1-6.8,7.5-13,9.4-20.3c1.1-4.4,2.7-11.7,3.1-16.1c0.5-5.9-3.7-7.9-7.1-11.7c-3.5-3.9-7.2-7.7-10.7-11.6
		c-5.4-6.2-13.1-19.5-21.9-20.4c-4-0.4-10.3,2.6-14.1,4.2c-5.2,2.2-17,7.4-20,11.9c-4.4,6.7-2.8,21,5.1,24.7
		c2.7,1.3,4.7,0.6,7.5,0.5v12.2c-4.6,0.2-9-0.9-13.2-2.8c-9-3.9-13.5-9.5-14.2-19.6c-0.5-7.8,0.3-16.2,0.4-24
		c0.1-0.3,5.1-3.2,5.6-3.2c1.2,0,4.3,2.8,5.4,2.6c16.5-8.7,41-25.6,44-45.4c1.3-8.6-0.2-18.4,0.4-27.1
		C195.9,140.4,199.9,139.8,203.4,140.2L203.4,140.2z"/>
	<path class="st0" d="M103,126.2c-0.1,11.8-0.7,25,0,36.7c0.8,14.5,10.2,24.7,20.4,33.8c0.1,0.5-2.3,2.4-2.9,2.8
		c-1.6,1.3-3.5,2.9-5.2,4c-0.8,0.5-1.8,0.5-2,1.4l0,71.5l-1.2,7.8H98.5c1.6-5.6,8.3-12.8,7.9-18.7l-15.8-60c-1-1.6-2.5-2.9-4.5-3.1
		c-7.8-0.8-17,0.6-25,0c-1.5,0.2-2,1.1-2.5,2.4c-1.3,3.3-2.4,10-1.8,13.5s5.6,7.2,8.8,8.8v11c-5.3,0.2-8.7,0.8-12.5-3.5
		c-4.1-4.7-5.2-10.4-5.5-16.4c-0.3-5.6-0.5-14.6,0-20c0.3-2.5,1.4-4.5,3-6.4l30.3-20.6c-1.3-9.8-3.8-18.5-9.2-26.7
		c-3.8-5.7-7.8-9.8-14.5-12c-3,6.9-2.6,14.6-4.5,21.7c-0.5,1.7-1.6,5.4-2.8,6.6c-2.2,2.3-8.4,1.1-10.9-0.4s-1.9-2-2.3-4.5l0.5-1
		c8-4.7,9.9-12.5,11.3-21.2c1.8-11.4,2.1-23.1,2.2-34.6c0.1-0.5,0.3-0.9,0.6-1.3c0.5-0.3,1-0.5,1.6-0.5c3.4-0.1,8,0.8,11.3,1.6
		c9.8,2.3,16.7,6.4,24.2,12.9c4.7,4.1,9.6,8.9,14,13.3L103,126.2L103,126.2z"/>
	<path class="st1" d="M181.9,118.3v50.1c0,9.2-15.6,20.7-22.8,25.1c-1.6,0.9-10.4,5.9-11.5,5.8c-0.9-0.1-4-1.7-5.1-2.3
		c-9.7-4.9-29.2-17.7-29.2-29.8v-48.8L181.9,118.3L181.9,118.3z"/>
	<path class="st0" d="M128.3,99.7l0.5-0.9c1.3-0.7,10.8-6.7,10.7-7.5c-1.7-2.3-2.7-3.9-1.6-6.8c3.7-9.3,21.7-26.2,30.1-13.3
		c5.8,8.9,1.5,20.4-3,28.9c-2.7,5-4.4,6.7-10.2,7.9c-14.5,0-29,0-43.5,0c0.1-0.5,0.9-0.7,0.5-1.2L4.1,23.5c-0.6-0.7-3.3-7.5-3-7.8
		l6.4,2l110.3,85.2l0.9,0C121.7,101.5,125.2,101.2,128.3,99.7L128.3,99.7z"/>
	<path class="st1" d="M157.3,25.1c1.4-3.9-1.9-9.1,0.2-14.5c1.1-2.7,5.5-6.6,8.6-6.3l-1.5,3.2c4.5-3.6,9.5-4.7,15-2.7
		c5.2,1.9,9.2,6.6,14.2,8.6c2.9,1.2,6.9,2.2,10,1.7c-2.7,3.9-8.1,3.4-12.2,2.4c3.5,5.5,12.2,6.8,18,5.1c3.4-1,5.6-3,8.2-5.4
		c0.4-0.4,0.6-0.2,0.3,0.3c-2.6,5.7-6.1,9.6-12.5,11c0.6,0.9,2.5,0.7,3.5,0.6c0.6-0.1,6.1-2,6-1.6c-1.6,2.3-3.9,4.6-6.6,5.6
		c-0.4,0.1-2.1,0.7-2.4,0.7h-5.3c0.1,1.2,2,2.1,3,2.3c1.7,0.3,2.6,0.2,4.2-0.4c0.3-0.1,0.8-0.4,0.5,0.2c-7.8,8.3-23.6,8.7-27.9-3.3
		c-0.4,0-0.5,1.4-0.6,1.7c-0.1,1.1,0.1,2.1-0.2,3.2c-2.4-4-3.5-10.5-8-12.7c-4.2-2.1-8-0.9-11,2.3C160.2,27.7,157.2,26.2,157.3,25.1
		L157.3,25.1z"/>
	<path class="st0" d="M160.9,27l-2.5,5c8.6,5.5,12.4,22.2,4.6,29.6c-2,1.9-10.4,3.1-13.2,3.2c-2.3,0.1-9.9-0.7-11.7-1.7
		c-0.6-0.4-0.8-1.9-1.3-2.5v-0.6c5.4-2.5,11.7-5.1,17.6-4.7c8.8,3.7,9.2-10.3,0.4-7.6c-7.3-0.8-14.9-3.7-21.6-6.7l0.2-0.7
		c0.2-0.2,0.5-1.7,0.9-2.3c3.9-6.6,12.6-10,20-7.8c0.3-0.1,2.7-4.2,2.9-4.8L160.9,27L160.9,27z"/>
	<path class="st0" d="M47.6,97.6c0.1,0.3,0.3,0.6,0.4,0.8s0.2,0.6,0.2,0.9c-0.2,11.8-0.9,23.6-2.7,35.4c-0.6,3.9-1.6,9-3.9,12.2
		c-1.2,1.7-3.5,4.4-5.6,4.3c-2.1-16.9-1.3-34.4-4-51.4c0.2-0.2,0.3-0.4,0.5-0.6c1.4-1.2,12.6-2.7,14.3-1.9
		C47.2,97.3,47.4,97.4,47.6,97.6L47.6,97.6z"/>
	<path class="st1" d="M128.3,99.7c0.6-5.4,0.9-11.4,2.5-16.6c1.8-6.1,5.9-11.6,7.3-17.8c8.2,2,16.7,1.6,24.8-0.9
		c3.6,2.8,5.6,4.7,7,9.1c3.5,11,2.7,22.9,2.4,34.3c-5.8,0-11.6,0-17.4,0c1.6-1.6,5.2-1.9,6.7-3.5c2.1-2.3,6-10.5,7.1-13.6
		c5.8-16.6-4.4-32-20.3-18.4c-2.9,2.5-9.8,10.2-10.2,13.9c-0.3,3.1,1.5,3.3,2,5c0.3,0.9-2.5,2.6-3.3,3.1
		C134.4,95.9,130.9,98.5,128.3,99.7L128.3,99.7z"/>
	<path class="st0" d="M52.8,83.6c18-1.1,35,11.5,46.6,23.9c0.7,0.7,3.4,3.6,3.6,4.1c0.3,0.8,0.3,9.1-0.2,9.1c-0.3,0-0.6-0.2-0.9-0.4
		c-12.8-13.9-28.3-25.9-48-26.1l-1.2-0.6c-2,0.2-2.6-0.8-1.8-2.9l0-6.6C51.2,83.4,51.8,83.2,52.8,83.6L52.8,83.6z"/>
	<path class="st1" d="M136.8,60.4c-1.8,0.4-4.6-2.4-5.9-3.6c-2.6-2.3-4.8-5-7.1-7.5c3.2-2.5,5.7-5.7,8.5-8.5
		c0.3-0.3,1.1-0.7,1.2-0.8c0.9,1,2.7,1.4,4,1.9c3.8,1.4,12.8,4.6,16.4,5c1.1,0.1,1.8-0.5,2.9-0.5c5.4-0.1,7.2,7.4,2.2,9.5
		c-2.7,1.1-3.1-0.1-5.2-0.4c-3.4-0.4-10.4,2.2-13.7,3.4C139.2,59.2,137.3,60.3,136.8,60.4L136.8,60.4z"/>
	<path class="st1" d="M52.8,93.6c6.6,0.2,11.8,1,18,3.1c13.1,4.6,22.6,14,32.1,23.7l0.1-8.8c0.2,0.5,0.3,0.4,0.3,1
		c0.4,4.2-0.3,9.3-0.3,13.6c-8.6-7.5-16-16.8-26.3-22.3c-7.9-4.2-16.6-6-25.5-6.3c-1-0.3-0.9-3.6,0-4C51.7,93.4,52.3,93.4,52.8,93.6
		L52.8,93.6z"/>
	<path class="st1" d="M51.3,97.6c0,13-0.6,32.4-4.1,44.7c-1.7,6.2-5.1,10.1-10.5,13.4c-0.2-1.5-0.4-3-0.6-4.6
		c5.2-3.3,6.8-6.6,8.1-12.5c2.7-12.4,3.2-28.4,3.5-41.1C48.6,96.6,50.3,96.6,51.3,97.6L51.3,97.6z"/>
	<path class="st0" d="M43.7,83.6l4.2-0.2c0.6,0.1,0.6,8.4-0.2,9.9l-1.4,0.6c-5,0.1-9.9,0.9-14.7,2.1L30,95.7c-2.6-2.5-5.4-5-7.9-7.6
		C29.2,86.3,36.2,83.8,43.7,83.6L43.7,83.6z"/>
	<path class="st1" d="M47.6,93.3c0.3,0.1,0.3,0.2,0,0.3c0.9,1.1,0.9,2.9,0,4c-5.2,0-10.5,0.6-15.5,2.1c-0.4-2.6-0.4-2.3-2.1-4
		C35.7,94.3,41.6,93.2,47.6,93.3L47.6,93.3z"/>
	<path class="st1" d="M52.8,83.6c-0.4,0-0.8,0-1.2,0c-0.1,2.4,0.1,4.8,0,7.2c0,0.5-0.5,2.4-0.3,2.6c0.1,0.1,1.3-0.2,1.5,0.3
		c-0.5,0-1,0-1.5,0c-0.4,0.9-3.1,0.6-3.6,0c0-0.1,0-0.2,0-0.3c0-3.2,0-6.5,0-9.7c-1.3,0-2.6,0-4,0c1.8-0.5,4.1-0.3,6-0.3
		C50.5,83.2,52,83.2,52.8,83.6L52.8,83.6z"/>
	<path class="st2" d="M218.2,17.5l-0.3-0.3c0.3-0.2,0.4-0.8,0.9-0.9C219,16.9,218.3,17.2,218.2,17.5L218.2,17.5z"/>
	<path class="st3" d="M131.7,159.6c-0.5-3.1,1-2,3.1-2.9v-18.5c-1.8-0.7-3.6,0-3.1-2.6c4.9,0.2,10.2-1.1,15,0.4
		c10.9,3.5,7.9,23.6-3.3,23.6L131.7,159.6L131.7,159.6z"/>
	<path class="st3" d="M163.6,135.9c0.5,2.9-0.7,2.1-2.8,2.9c-0.4,6.5,0.6,13.7,0,20.1c-0.4,5.1-4,7.2-8.8,6.2c0-0.4,0.2-2.3,0.3-2.4
		c0.5-0.4,4.4,1,4.9-2.9v-21c-1.7-0.9-3.6,0.1-3.1-2.6L163.6,135.9L163.6,135.9z"/>
	<path class="st4" d="M51.3,93.6v4c-1.2,0-2.4,0-3.6,0c0-1.3,0-2.6,0-4C48.7,93.3,50,93.6,51.3,93.6z"/>
	<path class="st1" d="M138.4,156.9V138h4.7c0.4,0,2.6,0.7,3,1c4.6,2.6,4.6,13.5,0.5,16.5c-0.5,0.4-2.7,1.4-3.2,1.4L138.4,156.9
		L138.4,156.9z"/>
</g>
</svg>
