<svg width="47" height="20" viewBox="0 0 47 20" fill="none" xmlns="http://www.w3.org/2000/svg">
<g id="Group 1000004625">
<g id="Vector">
<path d="M1.38653 0.622818V3.83752C1.38653 4.21368 1.47562 4.49085 1.6538 4.66903C1.83199 4.84721 2.10916 4.9363 2.48532 4.9363C2.85653 4.9363 3.13123 4.84721 3.30941 4.66903C3.49254 4.49085 3.58411 4.21368 3.58411 3.83752V0.622818H4.21517V3.85979C4.21517 4.39433 4.06916 4.80019 3.77714 5.07736C3.48512 5.34959 3.05451 5.4857 2.48532 5.4857C1.91118 5.4857 1.4781 5.34959 1.18608 5.07736C0.894057 4.80019 0.748047 4.39433 0.748047 3.85979V0.622818H1.38653Z" fill="black"/>
<path d="M6.53101 5.4857C6.29343 5.4857 6.05586 5.46837 5.81828 5.43373C5.58566 5.39908 5.36293 5.35206 5.1501 5.29267L5.26889 4.81752C5.50152 4.87196 5.71929 4.91403 5.92222 4.94373C6.12515 4.96848 6.31323 4.98085 6.48646 4.98085C6.6696 4.98085 6.81808 4.96353 6.93192 4.92888C7.05071 4.89423 7.13485 4.83979 7.18434 4.76555C7.23879 4.6913 7.26601 4.59726 7.26601 4.48342C7.26601 4.39928 7.24869 4.32999 7.21404 4.27555C7.18434 4.2211 7.12743 4.17656 7.04328 4.14191C6.95914 4.10231 6.83046 4.06272 6.65722 4.02312C6.60773 4.01322 6.56318 4.00332 6.52359 3.99342C6.48894 3.97858 6.44192 3.9662 6.38253 3.9563C6.06081 3.89196 5.81333 3.82019 5.6401 3.741C5.46687 3.65686 5.34561 3.55539 5.27631 3.43661C5.20702 3.31782 5.17237 3.16191 5.17237 2.96888C5.17237 2.74615 5.22187 2.55807 5.32086 2.40464C5.41985 2.2512 5.56586 2.13489 5.75889 2.0557C5.95687 1.97156 6.19445 1.92948 6.47162 1.92948C6.6597 1.92948 6.86263 1.94433 7.0804 1.97403C7.30313 2.00373 7.53823 2.05075 7.78571 2.11509L7.67434 2.59767C7.42192 2.53827 7.20909 2.4962 7.03586 2.47145C6.86263 2.44671 6.68939 2.43433 6.51616 2.43433C6.35283 2.43433 6.21919 2.45413 6.11525 2.49373C6.01131 2.52837 5.93212 2.58282 5.87768 2.65706C5.82818 2.7313 5.80343 2.82039 5.80343 2.92433C5.80343 3.02827 5.82323 3.11241 5.86283 3.17676C5.90242 3.23615 5.97914 3.28812 6.09298 3.33267C6.20682 3.37226 6.3751 3.41433 6.59783 3.45888C6.94924 3.52817 7.21652 3.60241 7.39965 3.68161C7.58278 3.7608 7.71147 3.85979 7.78571 3.97858C7.85995 4.09736 7.89707 4.25822 7.89707 4.46115C7.89707 4.68883 7.84758 4.87938 7.74859 5.03282C7.6496 5.1813 7.49864 5.29514 7.29571 5.37433C7.09278 5.44858 6.83788 5.4857 6.53101 5.4857Z" fill="black"/>
<path d="M8.64733 3.5257C8.64733 3.01095 8.78096 2.61746 9.04823 2.34524C9.32046 2.06807 9.70652 1.92948 10.2064 1.92948C10.7162 1.92948 11.1023 2.0656 11.3646 2.33782C11.6319 2.61004 11.7655 3.006 11.7655 3.5257V3.99342H9.10763V3.55539H11.127V3.45888C11.127 3.12726 11.0528 2.87731 10.9043 2.70903C10.7608 2.54075 10.5281 2.45661 10.2064 2.45661C9.8847 2.45661 9.6496 2.54322 9.50111 2.71645C9.35758 2.88474 9.28581 3.14706 9.28581 3.50342V4.00085C9.28581 4.20873 9.32046 4.38196 9.38975 4.52055C9.45904 4.65913 9.56298 4.76307 9.70157 4.83236C9.8451 4.90166 10.0282 4.9363 10.251 4.9363C10.4786 4.9363 10.7088 4.92393 10.9414 4.89918C11.179 4.87443 11.4042 4.83979 11.617 4.79524L11.6913 5.31494C11.4141 5.37433 11.1567 5.4164 10.9191 5.44115C10.6816 5.47085 10.4588 5.4857 10.251 5.4857C9.9045 5.4857 9.61248 5.4263 9.3749 5.30752C9.13733 5.18873 8.95667 5.01797 8.83293 4.79524C8.70919 4.56757 8.64733 4.29534 8.64733 3.97858V3.5257Z" fill="black"/>
<path d="M8.51009 15.3614H8.62368L8.80038 14.0615L9.79746 8.55861H11.2489L9.68387 16.7119H7.44991L6.2509 11.1964L6.06158 9.90908H5.93537L5.74605 11.1964L4.55965 16.7119H2.31308L0.748047 8.55861H2.19949L3.19656 14.0615L3.37326 15.3614H3.49947L3.73927 14.0615L4.93829 8.55861H7.05865L8.25767 14.0615L8.51009 15.3614Z" fill="black"/>
<path d="M11.8281 13.4556C11.8281 12.5722 12.0637 11.899 12.5349 11.4362C13.0061 10.9735 13.6792 10.7421 14.5543 10.7421C15.4462 10.7421 16.1235 10.9735 16.5863 11.4362C17.0491 11.8906 17.2805 12.5637 17.2805 13.4556V14.3391H12.8757V13.4304H15.8921V13.2916C15.8921 12.812 15.7869 12.4544 15.5766 12.2188C15.3662 11.9832 15.0255 11.8654 14.5543 11.8654C14.0747 11.8654 13.7297 11.9874 13.5193 12.2314C13.3174 12.4754 13.2164 12.8624 13.2164 13.3925V14.3013C13.2164 14.6042 13.2669 14.8566 13.3679 15.0585C13.4773 15.2521 13.6371 15.3993 13.8475 15.5003C14.0578 15.6012 14.3271 15.6517 14.6552 15.6517C15.0507 15.6517 15.4462 15.6349 15.8416 15.6012C16.2455 15.5592 16.641 15.5087 17.028 15.4498L17.1542 16.5605C16.6578 16.653 16.2034 16.7203 15.7912 16.7624C15.3789 16.8045 15.0002 16.8255 14.6552 16.8255C14.0494 16.8255 13.532 16.7245 13.1028 16.5226C12.6821 16.3207 12.3624 16.0304 12.1436 15.6517C11.9333 15.2647 11.8281 14.7977 11.8281 14.2508V13.4556Z" fill="black"/>
<path d="M20.2848 14.5284C20.2848 14.8987 20.4026 15.189 20.6382 15.3993C20.8738 15.6012 21.2019 15.7022 21.6226 15.7022C21.9424 15.7022 22.199 15.6517 22.3925 15.5508C22.5861 15.4498 22.7249 15.2941 22.809 15.0838C22.9016 14.8734 22.9479 14.5958 22.9479 14.2508V13.3168C22.9479 12.9718 22.9016 12.6942 22.809 12.4838C22.7249 12.265 22.5861 12.1094 22.3925 12.0168C22.199 11.9158 21.9424 11.8654 21.6226 11.8654C21.2019 11.8654 20.8738 11.9705 20.6382 12.1809C20.4026 12.3828 20.2848 12.6689 20.2848 13.0391V14.5284ZM19.8809 11.8654C19.9735 11.5036 20.2007 11.2259 20.5625 11.0324C20.9243 10.8388 21.366 10.7421 21.8877 10.7421C22.443 10.7421 22.9016 10.843 23.2634 11.045C23.6252 11.2385 23.8945 11.533 24.0712 11.9285C24.2479 12.3155 24.3362 12.7951 24.3362 13.3673V14.2003C24.3362 14.7725 24.2479 15.2563 24.0712 15.6517C23.8945 16.0388 23.6252 16.3333 23.2634 16.5352C22.9016 16.7287 22.443 16.8255 21.8877 16.8255C21.366 16.8255 20.9243 16.7287 20.5625 16.5352C20.2007 16.3417 19.9735 16.064 19.8809 15.7022L20.1838 15.2983L19.9693 16.7119H18.8965V8.2557H20.2848V12.1557L19.8809 11.8654Z" fill="black"/>
<path d="M30.0942 8.55861L32.8583 16.7119H31.4068L29.501 11.0324L29.1476 9.90908H28.971L28.6049 11.0324L26.7118 16.7119H25.2603L28.0244 8.55861H30.0942ZM30.8515 13.7207L31.1797 14.844H26.9263L27.2671 13.7207H30.8515Z" fill="black"/>
<path d="M35.1862 14.5284C35.1862 14.8987 35.304 15.189 35.5396 15.3993C35.7752 15.6012 36.1034 15.7022 36.5241 15.7022C36.8438 15.7022 37.1004 15.6517 37.294 15.5508C37.4875 15.4498 37.6263 15.2941 37.7105 15.0838C37.803 14.8734 37.8493 14.5958 37.8493 14.2508V13.3168C37.8493 12.9718 37.803 12.6942 37.7105 12.4838C37.6263 12.265 37.4875 12.1094 37.294 12.0168C37.1004 11.9158 36.8438 11.8654 36.5241 11.8654C36.1034 11.8654 35.7752 11.9705 35.5396 12.1809C35.304 12.3828 35.1862 12.6689 35.1862 13.0391V14.5284ZM33.7979 19.1099V10.8557H34.8707L35.0852 12.2692L34.7823 11.8654C34.8749 11.5036 35.1021 11.2259 35.4639 11.0324C35.8257 10.8388 36.2674 10.7421 36.7891 10.7421C37.3444 10.7421 37.803 10.843 38.1648 11.045C38.5266 11.2385 38.7959 11.533 38.9726 11.9285C39.1493 12.3155 39.2376 12.7951 39.2376 13.3673V14.2003C39.2376 14.7725 39.1493 15.2563 38.9726 15.6517C38.7959 16.0388 38.5266 16.3333 38.1648 16.5352C37.803 16.7287 37.3444 16.8255 36.7891 16.8255C36.2674 16.8255 35.8257 16.7287 35.4639 16.5352C35.1021 16.3417 34.8749 16.064 34.7823 15.7022L35.1862 15.4119V19.1099H33.7979Z" fill="black"/>
<path d="M42.1747 14.5284C42.1747 14.8987 42.2925 15.189 42.5281 15.3993C42.7637 15.6012 43.0919 15.7022 43.5126 15.7022C43.8323 15.7022 44.0889 15.6517 44.2825 15.5508C44.476 15.4498 44.6148 15.2941 44.699 15.0838C44.7915 14.8734 44.8378 14.5958 44.8378 14.2508V13.3168C44.8378 12.9718 44.7915 12.6942 44.699 12.4838C44.6148 12.265 44.476 12.1094 44.2825 12.0168C44.0889 11.9158 43.8323 11.8654 43.5126 11.8654C43.0919 11.8654 42.7637 11.9705 42.5281 12.1809C42.2925 12.3828 42.1747 12.6689 42.1747 13.0391V14.5284ZM40.7864 19.1099V10.8557H41.8592L42.0737 12.2692L41.7708 11.8654C41.8634 11.5036 42.0906 11.2259 42.4524 11.0324C42.8142 10.8388 43.2559 10.7421 43.7776 10.7421C44.3329 10.7421 44.7915 10.843 45.1533 11.045C45.5151 11.2385 45.7844 11.533 45.9611 11.9285C46.1378 12.3155 46.2261 12.7951 46.2261 13.3673V14.2003C46.2261 14.7725 46.1378 15.2563 45.9611 15.6517C45.7844 16.0388 45.5151 16.3333 45.1533 16.5352C44.7915 16.7287 44.3329 16.8255 43.7776 16.8255C43.2559 16.8255 42.8142 16.7287 42.4524 16.5352C42.0906 16.3417 41.8634 16.064 41.7708 15.7022L42.1747 15.4119V19.1099H40.7864Z" fill="black"/>
</g>
</g>
</svg>
