<svg width="57" height="19" viewBox="0 0 57 19" fill="none" xmlns="http://www.w3.org/2000/svg">
<g id="text">
<g id="Get it on">
<path id="path42" d="M4.6987 2.62384C4.6987 3.17258 4.5363 3.60934 4.21086 3.93544C3.84089 4.3231 3.35959 4.51692 2.76764 4.51692C2.19991 4.51692 1.71796 4.32048 1.32179 3.92693C0.924318 3.53404 0.726562 3.0462 0.726562 2.46472C0.726562 1.88258 0.924318 1.3954 1.32179 1.00185C1.71796 0.608956 2.19991 0.411856 2.76764 0.411856C3.04855 0.411856 3.31834 0.46686 3.57372 0.57687C3.82975 0.68688 4.03471 0.832905 4.1886 1.0156L3.84285 1.36134C3.58289 1.05096 3.2247 0.895113 2.76764 0.895113C2.35379 0.895113 1.99626 1.04048 1.69439 1.33122C1.39251 1.62262 1.24191 1.99979 1.24191 2.46472C1.24191 2.92898 1.39251 3.30681 1.69439 3.59755C1.99626 3.88895 2.35379 4.03366 2.76764 4.03366C3.20637 4.03366 3.57175 3.88764 3.86511 3.59494C4.05501 3.40438 4.16437 3.13984 4.19383 2.79933H2.76764V2.3272H4.6712C4.68953 2.43001 4.6987 2.52889 4.6987 2.62384Z" fill="black"/>
<path id="path46" d="M4.6987 2.62384C4.6987 3.17258 4.5363 3.60934 4.21086 3.93544C3.84089 4.3231 3.35959 4.51692 2.76764 4.51692C2.19991 4.51692 1.71796 4.32048 1.32179 3.92693C0.924318 3.53404 0.726562 3.0462 0.726562 2.46472C0.726562 1.88258 0.924318 1.3954 1.32179 1.00185C1.71796 0.608956 2.19991 0.411856 2.76764 0.411856C3.04855 0.411856 3.31834 0.46686 3.57372 0.57687C3.82975 0.68688 4.03471 0.832905 4.1886 1.0156L3.84285 1.36134C3.58289 1.05096 3.2247 0.895113 2.76764 0.895113C2.35379 0.895113 1.99626 1.04048 1.69439 1.33122C1.39251 1.62262 1.24191 1.99979 1.24191 2.46472C1.24191 2.92898 1.39251 3.30681 1.69439 3.59755C1.99626 3.88895 2.35379 4.03366 2.76764 4.03366C3.20637 4.03366 3.57175 3.88764 3.86511 3.59494C4.05501 3.40438 4.16437 3.13984 4.19383 2.79933H2.76764V2.3272H4.6712C4.68953 2.43001 4.6987 2.52889 4.6987 2.62384Z" fill="black"/>
<path id="path50" d="M7.71693 0.982699H5.92796V2.22817H7.54144V2.70029H5.92796V3.94576H7.71693V4.42902H5.4231V0.500097H7.71693V0.982699Z" fill="black"/>
<path id="path54" d="M7.71693 0.982699H5.92796V2.22817H7.54144V2.70029H5.92796V3.94576H7.71693V4.42902H5.4231V0.500097H7.71693V0.982699Z" fill="black"/>
<path id="path58" d="M9.846 4.42902H9.34113V0.982699H8.24365V0.500097H10.9435V0.982699H9.846V4.42902Z" fill="black"/>
<path id="path62" d="M9.846 4.42902H9.34113V0.982699H8.24365V0.500097H10.9435V0.982699H9.846V4.42902Z" fill="black"/>
<path id="path64" d="M12.897 0.500097H13.4018V4.42902H12.897V0.500097Z" fill="black"/>
<path id="path68" d="M15.6409 4.42902H15.1361V0.982699H14.0386V0.500097H16.7384V0.982699H15.6409V4.42902Z" fill="black"/>
<path id="path72" d="M15.6409 4.42902H15.1361V0.982699H14.0386V0.500097H16.7384V0.982699H15.6409V4.42902Z" fill="black"/>
<path id="path76" d="M19.3411 3.59232C19.6318 3.88699 19.9874 4.03366 20.4085 4.03366C20.8295 4.03366 21.1851 3.88699 21.4758 3.59232C21.7666 3.29765 21.9126 2.92178 21.9126 2.46472C21.9126 2.00765 21.7666 1.63113 21.4758 1.33712C21.1851 1.04245 20.8295 0.895113 20.4085 0.895113C19.9874 0.895113 19.6318 1.04245 19.3411 1.33712C19.051 1.63113 18.905 2.00765 18.905 2.46472C18.905 2.92178 19.051 3.29765 19.3411 3.59232ZM21.8491 3.92104C21.4627 4.31851 20.9827 4.51692 20.4085 4.51692C19.8342 4.51692 19.3542 4.31851 18.9685 3.92104C18.5822 3.52421 18.3896 3.03899 18.3896 2.46472C18.3896 1.89044 18.5822 1.40456 18.9685 1.00774C19.3542 0.610921 19.8342 0.411856 20.4085 0.411856C20.9795 0.411856 21.4581 0.611576 21.8464 1.01036C22.2341 1.40915 22.4279 1.89371 22.4279 2.46472C22.4279 3.03899 22.2348 3.52421 21.8491 3.92104Z" fill="black"/>
<path id="path80" d="M19.3411 3.59232C19.6318 3.88699 19.9874 4.03366 20.4085 4.03366C20.8295 4.03366 21.1851 3.88699 21.4758 3.59232C21.7666 3.29765 21.9126 2.92178 21.9126 2.46472C21.9126 2.00765 21.7666 1.63113 21.4758 1.33712C21.1851 1.04245 20.8295 0.895113 20.4085 0.895113C19.9874 0.895113 19.6318 1.04245 19.3411 1.33712C19.051 1.63113 18.905 2.00765 18.905 2.46472C18.905 2.92178 19.051 3.29765 19.3411 3.59232ZM21.8491 3.92104C21.4627 4.31851 20.9827 4.51692 20.4085 4.51692C19.8342 4.51692 19.3542 4.31851 18.9685 3.92104C18.5822 3.52421 18.3896 3.03899 18.3896 2.46472C18.3896 1.89044 18.5822 1.40456 18.9685 1.00774C19.3542 0.610921 19.8342 0.411856 20.4085 0.411856C20.9795 0.411856 21.4581 0.611576 21.8464 1.01036C22.2341 1.40915 22.4279 1.89371 22.4279 2.46472C22.4279 3.03899 22.2348 3.52421 21.8491 3.92104Z" fill="black"/>
<path id="path84" d="M23.1362 4.42902V0.500097H23.7505L25.6599 3.55614H25.6822L25.6599 2.79917V0.500097H26.1654V4.42902H25.6383L23.6404 1.22433H23.6188L23.6404 1.98195V4.42902H23.1362Z" fill="black"/>
<path id="path88" d="M23.1362 4.42902V0.500097H23.7505L25.6599 3.55614H25.6822L25.6599 2.79917V0.500097H26.1654V4.42902H25.6383L23.6404 1.22433H23.6188L23.6404 1.98195V4.42902H23.1362Z" fill="black"/>
</g>
<path id="Google Play" d="M43.6724 15.5609H44.8943V7.37499H43.6724V15.5609ZM54.6779 10.3236L53.2773 13.8728H53.2354L51.7817 10.3236H50.4655L52.6454 15.2839L51.4032 18.0433H52.6768L56.0367 10.3236H54.6779ZM47.7486 14.631C47.3479 14.631 46.79 14.4313 46.79 13.9356C46.79 13.3044 47.4847 13.0621 48.0852 13.0621C48.6222 13.0621 48.8756 13.178 49.2017 13.3358C49.1067 14.0941 48.4539 14.631 47.7486 14.631ZM47.896 10.1449C47.0113 10.1449 46.0946 10.5345 45.7161 11.3982L46.8005 11.8507C47.0323 11.3982 47.4638 11.2502 47.9169 11.2502C48.5488 11.2502 49.1912 11.6293 49.2017 12.3038V12.3876C48.9803 12.2613 48.5069 12.072 47.9274 12.072C46.7585 12.072 45.5681 12.7144 45.5681 13.9147C45.5681 15.0102 46.5267 15.7161 47.6006 15.7161C48.4224 15.7161 48.8756 15.3474 49.1598 14.9152H49.2017V15.5471H50.381V12.4086C50.381 10.9555 49.2966 10.1449 47.896 10.1449ZM40.3446 11.3203H38.6067V8.51437H40.3446C41.2581 8.51437 41.7767 9.27069 41.7767 9.917C41.7767 10.5515 41.2581 11.3203 40.3446 11.3203ZM40.3132 7.37499H37.3855V15.5609H38.6067V12.4597H40.3132C41.6673 12.4597 42.9986 11.4787 42.9986 9.917C42.9986 8.35525 41.6673 7.37499 40.3132 7.37499ZM24.348 14.6324C23.5039 14.6324 22.7974 13.9258 22.7974 12.9554C22.7974 11.9744 23.5039 11.2568 24.348 11.2568C25.1816 11.2568 25.8351 11.9744 25.8351 12.9554C25.8351 13.9258 25.1816 14.6324 24.348 14.6324ZM25.7513 10.782H25.7087C25.4343 10.4553 24.9072 10.1599 24.2426 10.1599C22.8498 10.1599 21.5735 11.3831 21.5735 12.9554C21.5735 14.5165 22.8498 15.7298 24.2426 15.7298C24.9072 15.7298 25.4343 15.4345 25.7087 15.0966H25.7513V15.498C25.7513 16.5634 25.1816 17.1331 24.2635 17.1331C23.5144 17.1331 23.0501 16.5948 22.8602 16.1411L21.7948 16.5844C22.1007 17.323 22.9133 18.2299 24.2635 18.2299C25.6982 18.2299 26.9116 17.3859 26.9116 15.3291V10.3282H25.7513V10.782ZM27.7557 15.5609H28.9795V7.37433H27.7557V15.5609ZM30.7829 12.8604C30.7515 11.7845 31.6165 11.2358 32.2386 11.2358C32.7244 11.2358 33.1357 11.4781 33.2725 11.8265L30.7829 12.8604ZM34.5809 11.9319C34.3491 11.3098 33.6419 10.1599 32.1967 10.1599C30.762 10.1599 29.5702 11.2882 29.5702 12.9449C29.5702 14.506 30.7515 15.7298 32.3335 15.7298C33.6104 15.7298 34.3491 14.9493 34.6549 14.4955L33.7054 13.8623C33.3891 14.3266 32.9563 14.6324 32.3335 14.6324C31.7114 14.6324 31.2681 14.3475 30.9833 13.7889L34.7072 12.2482L34.5809 11.9319ZM4.91228 11.0145V12.1958H7.73914C7.65467 12.8604 7.43334 13.3456 7.09611 13.6829C6.68423 14.0947 6.04054 14.5485 4.91228 14.5485C3.17112 14.5485 1.8104 13.1453 1.8104 11.4047C1.8104 9.66358 3.17112 8.26096 4.91228 8.26096C5.8513 8.26096 6.53689 8.63027 7.04307 9.10502L7.87665 8.27143C7.16945 7.59631 6.23109 7.07901 4.91228 7.07901C2.52808 7.07901 0.523682 9.02055 0.523682 11.4047C0.523682 13.7889 2.52808 15.7298 4.91228 15.7298C6.19901 15.7298 7.16945 15.3075 7.92904 14.5165C8.71024 13.7359 8.95252 12.6391 8.95252 11.7525C8.95252 11.4781 8.93157 11.2253 8.88901 11.0145H4.91228ZM12.167 14.6324C11.323 14.6324 10.5948 13.9363 10.5948 12.9449C10.5948 11.9424 11.323 11.2568 12.167 11.2568C13.0104 11.2568 13.7386 11.9424 13.7386 12.9449C13.7386 13.9363 13.0104 14.6324 12.167 14.6324ZM12.167 10.1599C10.6262 10.1599 9.37095 11.3308 9.37095 12.9449C9.37095 14.5485 10.6262 15.7298 12.167 15.7298C13.7072 15.7298 14.9625 14.5485 14.9625 12.9449C14.9625 11.3308 13.7072 10.1599 12.167 10.1599ZM18.2654 14.6324C17.4213 14.6324 16.6931 13.9363 16.6931 12.9449C16.6931 11.9424 17.4213 11.2568 18.2654 11.2568C19.1094 11.2568 19.8369 11.9424 19.8369 12.9449C19.8369 13.9363 19.1094 14.6324 18.2654 14.6324ZM18.2654 10.1599C16.7252 10.1599 15.4699 11.3308 15.4699 12.9449C15.4699 14.5485 16.7252 15.7298 18.2654 15.7298C19.8055 15.7298 21.0608 14.5485 21.0608 12.9449C21.0608 11.3308 19.8055 10.1599 18.2654 10.1599Z" fill="black"/>
</g>
</svg>
