<svg width="25" height="25" viewBox="0 0 25 25" fill="none" xmlns="http://www.w3.org/2000/svg">
<g id="Group 73">
<path id="LinkedIn" d="M0 3.361C0 2.55931 0.28154 1.89794 0.844595 1.37687C1.40765 0.855779 2.13965 0.595245 3.04054 0.595245C3.92536 0.595245 4.64124 0.851763 5.18822 1.36485C5.75128 1.89395 6.03282 2.58336 6.03282 3.43315C6.03282 4.20275 5.75934 4.84407 5.21236 5.35715C4.6493 5.88625 3.90927 6.1508 2.99228 6.1508H2.96815C2.08333 6.1508 1.36745 5.88625 0.820463 5.35715C0.27348 4.82805 0 4.16266 0 3.361ZM0.313707 24.4048V8.33935H5.67085V24.4048H0.313707ZM8.639 24.4048H13.9961V15.4341C13.9961 14.8729 14.0605 14.44 14.1892 14.1354C14.4144 13.5903 14.7563 13.1293 15.2148 12.7525C15.6733 12.3757 16.2484 12.1874 16.9402 12.1874C18.742 12.1874 19.6429 13.3979 19.6429 15.8189V24.4048H25V15.1936C25 12.8207 24.4369 11.0209 23.3108 9.79437C22.1847 8.56782 20.6966 7.95455 18.8465 7.95455C16.7712 7.95455 15.1544 8.8444 13.9961 10.6241V10.6722H13.972L13.9961 10.6241V8.33935H8.639C8.67116 8.85241 8.68726 10.4477 8.68726 13.1253C8.68726 15.8029 8.67116 19.5627 8.639 24.4048Z" fill="#000431"/>
</g>
</svg>
